<svg width="1920" height="535" viewBox="0 0 1920 535" fill="none" xmlns="http://www.w3.org/2000/svg">
<path d="M0 0.000244141V173.217C17.341 175.838 32.1912 182.299 43.332 198.965C53.424 214.086 50.7045 233.257 34.0944 238.758C36.6094 225.79 26.0602 205.426 16.682 223.169C-7.37062 268.72 59.4003 296.903 86.2387 297.277C128.452 297.862 171.515 286.673 206.572 258.022C241.589 229.418 268.183 185.67 312.866 175.792C333.764 171.157 353.098 174.153 368.942 192.153C381.938 206.924 386.531 231.642 365.011 238.758C367.819 224.245 355.966 205.894 347.021 224.854C325.02 271.435 392.126 297.113 419.161 297.277C459.372 297.511 501.89 286.978 535.483 259.731C572.706 229.535 600.363 184.663 647.794 174.317C667.308 170.057 688.126 177.594 701.744 194.377C713.877 209.358 715.763 232.204 695.928 238.758C698.435 225.79 687.885 205.426 678.519 223.169C654.453 268.72 721.238 296.903 748.072 297.277C790.289 297.862 833.348 286.673 868.405 258.022C903.422 229.418 930.016 185.67 974.7 175.792C995.598 171.157 1014.93 174.153 1030.78 192.153C1043.77 206.924 1048.36 231.642 1026.84 238.758C1029.65 224.245 1017.8 205.894 1008.85 224.854C986.853 271.435 1053.96 297.113 1080.99 297.277C1121.21 297.511 1166.01 289.553 1199.61 262.306C1236.83 232.11 1260.1 191.802 1305.5 173.217V0.000244141C1305.5 0.000244141 1230.69 57.7 1195.31 86.8191C1163.8 112.731 1119.32 125.933 1080.99 123.967C1057.03 122.75 985.129 94.1691 1010.28 51.6375C1021.05 33.4497 1028.71 55.3593 1026.84 67.8824C1048.7 59.1747 1045.84 31.0856 1030.51 15.6365C1014.35 -0.655188 992.71 -1.87237 972.694 2.57508C927.429 12.5935 899.852 57.6298 864.394 86.8191C832.345 113.176 788.825 125.137 750.078 124.014C725.931 123.335 654.433 93.7946 679.362 51.6375C690.131 33.4497 697.793 55.3593 695.928 67.8824C717.788 59.1747 714.92 31.0856 699.598 15.6365C683.433 -0.655188 661.793 -1.87237 641.778 2.57508C596.632 12.5701 568.856 57.7 533.478 86.8191C501.97 112.731 457.487 125.933 419.161 123.967C395.194 122.75 323.295 94.1691 348.445 51.6375C359.215 33.4497 366.876 55.3593 365.011 67.8824C386.871 59.1747 384.004 31.0856 368.681 15.6365C352.516 -0.655188 330.876 -1.87237 310.861 2.57508C265.596 12.5935 238.019 57.6298 202.561 86.8191C170.516 113.176 126.988 125.137 88.2442 124.014C64.1054 123.335 -7.4027 93.7946 17.5324 51.6375C28.3022 33.4497 35.9594 55.3593 34.0942 67.8824C52.1904 60.6728 54.6572 37.827 42.7502 21.465C32.1148 6.85867 15.9301 0.819511 0 0.000244141Z" fill="#C5DCFF"/>
<path d="M0 173.441V535H1309.5V156.5C1256.5 193.858 1213.34 244.852 1197.32 258.293C1164.35 285.985 1121.07 298.063 1080.99 297.501C1055.6 297.127 988.96 271.144 1008.85 227.325C1017.3 208.74 1028.77 224.329 1026.84 238.982C1046.86 235.354 1045.62 209.348 1034.45 194.601C1021.27 177.256 1001.94 171.358 982.722 174.12C932.684 181.282 904.867 226.81 866.4 258.247C832.827 285.68 790.69 298.063 750.078 297.501C724.106 297.127 656.579 269.997 678.52 225.382C687.184 207.756 697.612 226.108 695.928 238.982C715.943 235.354 714.7 209.348 703.529 194.601C689.871 176.601 667.69 170.726 647.794 174.143C600.524 182.266 571.664 227.934 535.483 258.293C502.512 285.985 459.232 298.063 419.161 297.501C393.771 297.127 327.126 271.144 347.021 227.325C355.465 208.74 366.936 224.329 365.011 238.982C385.027 235.354 383.783 209.348 372.612 194.601C359.436 177.256 340.102 171.358 320.889 174.12C270.85 181.282 243.033 226.81 204.567 258.247C170.99 285.68 128.863 298.063 88.2444 297.501C62.2665 297.127 -5.24653 269.997 16.6822 225.382C25.3482 207.756 35.7851 226.108 34.0944 238.982C51.2099 235.869 53.8492 214.357 44.8182 199.189C34.305 181.54 17.5366 175.079 0 173.441Z" fill="#2F5B7A"/>
<path d="M995 0V173.216C1012.34 175.838 1027.19 182.299 1038.33 198.965C1048.42 214.086 1045.7 233.257 1029.09 238.758C1031.61 225.79 1021.06 205.425 1011.68 223.168C987.629 268.72 1054.4 296.902 1081.24 297.277C1123.45 297.862 1166.51 286.673 1201.57 258.022C1236.59 229.418 1263.18 185.669 1307.87 175.791C1328.76 171.157 1348.1 174.153 1363.94 192.153C1376.94 206.923 1381.53 231.642 1360.01 238.758C1362.82 224.245 1350.97 205.893 1342.02 224.854C1320.02 271.435 1387.13 297.113 1414.16 297.277C1454.37 297.511 1496.89 286.977 1530.48 259.731C1567.71 229.535 1595.36 184.663 1642.79 174.317C1662.31 170.056 1683.13 177.594 1696.74 194.377C1708.88 209.358 1710.76 232.204 1690.93 238.758C1693.43 225.79 1682.89 205.425 1673.52 223.168C1649.45 268.72 1716.24 296.902 1743.07 297.277C1785.29 297.862 1828.35 286.673 1863.41 258.022C1898.42 229.418 1919 198.965 1919 198.965V51.6372C1919 51.6372 1894.85 57.6296 1859.39 86.8189C1827.35 113.176 1783.82 125.137 1745.08 124.014C1720.93 123.335 1649.43 93.7944 1674.36 51.6372C1685.13 33.4495 1692.79 55.359 1690.93 67.8821C1712.79 59.1745 1709.92 31.0853 1694.6 15.6363C1678.43 -0.655436 1656.79 -1.87261 1636.78 2.57484C1591.63 12.5699 1563.86 57.6998 1528.48 86.8189C1496.97 112.731 1452.49 125.933 1414.16 123.967C1390.19 122.75 1318.3 94.1689 1343.45 51.6372C1354.21 33.4495 1361.88 55.359 1360.01 67.8821C1381.87 59.1745 1379 31.0853 1363.68 15.6363C1347.52 -0.655436 1325.88 -1.87261 1305.86 2.57484C1260.6 12.5933 1233.02 57.6296 1197.56 86.8189C1165.52 113.176 1121.99 125.137 1083.24 124.014C1059.11 123.335 987.597 93.7944 1012.53 51.6372C1023.3 33.4495 1030.96 55.359 1029.09 67.8821C1047.19 60.6726 1049.66 37.8267 1037.75 21.4648C1027.11 6.85842 1010.93 0.819267 995 0Z" fill="#C5DCFF"/>
<path d="M995 173.441V535H1919.72V194.601C1919.72 194.601 1899.87 226.81 1861.4 258.247C1827.83 285.68 1785.69 298.063 1745.08 297.501C1719.11 297.127 1651.58 269.997 1673.52 225.382C1682.18 207.756 1692.61 226.108 1690.93 238.982C1710.94 235.354 1709.7 209.348 1698.53 194.601C1684.87 176.601 1662.69 170.725 1642.79 174.143C1595.52 182.265 1566.66 227.934 1530.48 258.293C1497.51 285.985 1454.23 298.063 1414.16 297.501C1388.77 297.127 1322.13 271.144 1342.02 227.325C1350.46 208.739 1361.94 224.329 1360.01 238.982C1380.03 235.354 1378.78 209.348 1367.61 194.601C1354.44 177.256 1335.1 171.357 1315.89 174.119C1265.85 181.282 1238.03 226.81 1199.57 258.247C1165.99 285.68 1123.86 298.063 1083.24 297.501C1057.27 297.127 989.753 269.997 1011.68 225.382C1020.35 207.756 1030.79 226.108 1029.09 238.982C1046.21 235.869 1048.85 214.357 1039.82 199.189C1029.31 181.54 1012.54 175.079 995 173.441Z" fill="#2F5B7A"/>
</svg>
