<svg width="198" height="214" viewBox="0 0 198 214" fill="none" xmlns="http://www.w3.org/2000/svg">
<path d="M150.639 80.4244C149.189 80.3266 147.721 80.2777 146.23 80.2777C136.053 80.2777 126.213 80.6547 116.856 81.3648C117.495 75.3954 118.044 58.486 105.81 48.0995C105.81 48.0991 141.958 45.8366 150.639 80.4244Z" fill="#254E6B"/>
<path d="M158.735 142.509C149.007 165.025 123.553 165.932 123.553 165.932C130.218 160.388 130.526 144.277 130.539 142.798C135.664 142.998 140.901 143.101 146.23 143.101C150.575 143.101 154.762 142.906 158.735 142.509Z" fill="#254E6B"/>
<path d="M80.1335 86.3106C65.8296 89.2389 54.0447 93.098 45.8258 97.5736C45.6127 97.691 45.4 97.8039 45.1823 97.9067L47.2168 72.5745L80.1335 86.3106Z" fill="#254E6B"/>
<path d="M83.5993 137.749L49.0286 150.026L47.0985 128.048C50.1566 128.518 53.2017 129.321 56.1918 130.438C63.8268 133.288 73.0925 135.761 83.5993 137.749Z" fill="#254E6B"/>
<path d="M198 116.99C198 132.255 181.879 141.196 158.735 143.488C154.762 143.885 150.575 144.081 146.23 144.081C140.902 144.081 135.664 143.978 130.54 143.778C113.322 143.107 97.387 141.339 83.5997 138.729C73.0926 136.741 63.8268 134.268 56.1922 131.418C53.2017 130.301 50.157 129.498 47.0985 129.028C45.132 128.724 43.1613 128.558 41.1948 128.538C40.3522 128.533 38.6576 128.553 37.8103 128.543C32.6043 128.504 27.4435 130.732 23.719 135.037L0 162.449C3.87376 148.351 8.21893 127.959 8.21893 113.636C8.21893 99.3119 3.87376 78.9259 0 64.8274L23.7194 92.2361C29.2336 98.6122 37.8965 100.537 45.1823 96.9274C45.3996 96.8246 45.6127 96.7117 45.8258 96.5943C54.0447 92.1182 65.8296 88.2596 80.1335 85.3313C91.0576 83.0935 103.454 81.399 116.856 80.3854C126.213 79.6753 136.054 79.2983 146.23 79.2983C147.721 79.2983 149.189 79.3472 150.639 79.445C178.032 81.2812 198 99.9978 198 116.99Z" fill="#98BEF5"/>
<path d="M171.136 112.122C173.138 112.122 174.761 110.368 174.761 108.204C174.761 106.041 173.138 104.287 171.136 104.287C169.134 104.287 167.511 106.041 167.511 108.204C167.511 110.368 169.134 112.122 171.136 112.122Z" fill="#254E6B"/>
<path d="M124.826 108.202L112.366 132.897L149.973 120.55L124.826 108.202Z" fill="#254E6B"/>
</svg>
