<svg width="512" height="512" viewBox="0 0 512 512" fill="none" xmlns="http://www.w3.org/2000/svg">
<g clip-path="url(#clip0_5_913)">
<path d="M181.327 186.669H117.328C111.438 186.669 106.664 181.903 106.664 175.997V143.998C106.664 138.123 111.437 133.342 117.328 133.342H160C163.562 133.342 166.898 135.123 168.875 138.092L190.203 170.091C192.391 173.357 192.594 177.575 190.734 181.044C188.882 184.513 185.265 186.669 181.327 186.669Z" fill="white"/>
<path d="M318.09 212.356L297.544 171.231C295.732 167.622 292.044 165.341 287.998 165.341H138.664H96C90.109 165.341 85.329 170.122 85.329 175.997C85.329 181.903 90.11 186.669 96 186.669H125.656L106.875 280.566L127.789 284.754L365.793 290.223L380.871 275.129L318.09 212.356Z" fill="#E3E8F0"/>
<path d="M479.994 239.997H96C90.109 239.997 85.329 244.778 85.329 250.669V282.661C85.329 288.567 90.11 293.349 96 293.349C101.89 293.349 106.664 288.568 106.664 282.661V261.341H128V282.661C128 288.567 132.773 293.349 138.664 293.349C144.554 293.349 149.328 288.568 149.328 282.661V261.341H170.663V282.661C170.663 288.567 175.436 293.349 181.327 293.349C187.218 293.349 191.998 288.568 191.998 282.661V261.341H213.326V282.661C213.326 288.567 218.107 293.349 223.997 293.349C229.887 293.349 234.661 288.568 234.661 282.661V261.341H255.996V282.661C255.996 288.567 260.77 293.349 266.661 293.349C272.559 293.349 277.325 288.568 277.325 282.661V261.341H298.668V282.661C298.668 288.567 303.434 293.349 309.324 293.349C315.214 293.349 319.995 288.568 319.995 282.661V261.341H341.323V282.661C341.323 288.567 346.104 293.349 351.995 293.349C357.886 293.349 362.667 288.568 362.667 282.661V261.341H383.995V282.661C383.995 288.567 388.776 293.349 394.666 293.349C400.557 293.349 405.322 288.568 405.322 282.661V261.341H426.665V282.661C426.665 288.567 431.431 293.349 437.321 293.349C443.211 293.349 447.993 288.568 447.993 282.661V261.341H469.321V282.661C469.321 288.567 474.102 293.349 479.993 293.349C485.884 293.349 490.665 288.568 490.665 282.661V250.669C490.666 244.778 485.885 239.997 479.994 239.997Z" fill="#3C4551"/>
<path d="M511.399 279.129C509.899 274.879 505.852 271.996 501.321 271.996H53.33C49.291 271.996 45.596 274.285 43.791 277.91L1.12699 363.221C-0.52901 366.533 -0.35001 370.471 1.59599 373.596C3.53399 376.752 6.97099 378.658 10.666 378.658H394.666C397.088 378.658 399.432 377.846 401.322 376.346L507.992 291.004C511.524 288.16 512.899 283.41 511.399 279.129Z" fill="white"/>
<path d="M4.07303 357.346L1.12803 363.221C-0.527973 366.533 -0.348973 370.471 1.59703 373.596C3.53503 376.752 6.97203 378.658 10.667 378.658H394.667C397.089 378.658 399.433 377.846 401.323 376.346L425.072 357.346H4.07303Z" fill="#3C4551"/>
<path d="M125.656 186.669L120.516 212.356H318.09L305.263 186.669H125.656Z" fill="#4FC2E9"/>
<path d="M191.995 186.67H170.66V212.357H191.995V186.67Z" fill="#3BAFDA"/>
<path d="M234.665 186.67H213.33V212.357H234.665V186.67Z" fill="#3BAFDA"/>
</g>
<defs>
<clipPath id="clip0_5_913">
<rect width="512" height="512" fill="white"/>
</clipPath>
</defs>
</svg>
