<svg width="531" height="370" viewBox="0 0 531 370" fill="none" xmlns="http://www.w3.org/2000/svg">
<rect width="531" height="370" rx="22" fill="#9CC4E1"/>
<path d="M53.0161 30H479V339.985H53.0161V30Z" fill="#9CC4E1"/>
<path d="M112.196 261.949C114.512 271.033 123.853 270.8 131.679 269.677C133.668 286.899 155.823 271.913 164.59 268.103C173.306 264.316 172.917 267.045 180.292 267.893C187.741 268.749 195.28 264.588 203.214 264.714C206.066 270.195 227.557 268.066 233.33 266.925C238.37 265.929 239.897 262.827 245.824 263.843C245.772 264.893 246.133 266.018 246.137 266.989C251.484 267.196 276.099 264.152 275.007 271.764C282.961 270.367 280.032 276.46 284.282 278.678C292.363 282.898 310.331 275.289 312.636 267.034C307.98 265.669 302.024 266.534 296.963 265.889C298.95 259.472 306.584 257.767 310.524 252.987C314.183 248.545 315.725 243.866 320.88 239.711C325.925 235.644 331.886 233.254 337.022 230.708C344.901 226.801 351.631 219.82 360.008 217.095C360.024 218.023 360.074 218.945 360.141 219.862C370.312 221.439 379.353 204.866 385.789 198.931C390.781 194.328 397.211 191.486 399.354 185.384C410.065 186.257 430.604 169.582 435.016 160.933C439.584 151.97 437.609 149.253 429.057 145.799C417.688 141.203 418.833 146.567 410.369 152.255C398.779 160.046 381.499 159.935 368.927 165.531C349.169 174.325 330.52 186.944 310.968 196.469C287.502 207.9 262.262 215.098 237.133 222.007C216.643 227.641 200.836 229.879 179.285 229.884C170.771 229.885 162.256 229.83 153.745 229.884C138.749 229.979 124.825 230.656 110.506 234.179C116.45 232.76 111.743 260.17 112.196 261.949Z" fill="#558BB7"/>
<path d="M129.25 207.16C131.805 207.16 258.702 166.256 265.09 162.95C271.477 159.645 411.152 119.155 411.152 119.155L412.427 136.509L277.013 232.362L144.579 244.346L129.25 207.16Z" fill="#B8B9B8"/>
<path d="M132.231 205.506C134.786 205.506 263.386 161.011 269.773 158.82C276.161 156.625 411.152 119.155 411.152 119.155L409.448 139.812C409.448 139.812 281.697 182.683 267.218 188.154C259.825 190.947 221.384 208.071 189.292 218.626C158.542 228.74 140.321 227.817 140.321 227.817L132.231 205.506Z" fill="#969796"/>
<path d="M132.231 205.506C133.18 205.506 153.088 201.057 176.517 193.215C216.099 179.968 267.997 160.196 272.009 158.82C278.397 156.627 411.152 119.155 411.152 119.155L404.868 125.973C404.868 125.973 261.576 169.462 247.098 174.933C239.704 177.726 213.08 188.858 180.988 199.413C150.238 209.527 143.515 211.394 138.192 213.977C136.595 209.329 132.231 205.506 132.231 205.506Z" fill="#7C7D7C"/>
<path d="M139.15 233.5C141.7 233.332 265.741 181.491 259.553 184.539C257.018 185.788 330.137 159.44 405.507 141.157L406.466 145.805L261.083 191.777L142.025 239.388L139.15 233.5Z" fill="#ADAEAD"/>
<path d="M260.731 190.911C259.527 191.362 140.783 237.236 140.783 237.236L137.607 232.209C140.157 232.041 264.002 180.446 259.98 182.784C258.882 183.422 342.22 154.378 405.028 139.143L405.166 143.032C405.166 143.032 263.087 190.027 260.731 190.911Z" fill="#A9AAA9"/>
<path d="M260.378 190.043C257.97 190.946 139.54 235.084 139.54 235.084L136.063 230.918C138.613 230.749 262.448 179.717 260.405 181.028C260.799 181.139 354.302 149.317 404.549 137.128L403.867 140.258C403.867 140.258 265.091 188.276 260.378 190.043Z" fill="#A5A6A5"/>
<path d="M260.024 189.177C256.414 190.531 138.298 232.932 138.298 232.932L134.52 229.626C137.069 229.458 260.801 178.829 260.831 179.272C262.689 178.813 366.384 144.255 404.069 135.114L402.568 137.484C402.568 137.484 267.094 186.525 260.024 189.177Z" fill="#A1A2A1"/>
<path d="M259.671 188.31C254.857 190.116 137.056 230.78 137.056 230.78L132.976 228.335C135.525 228.166 259.179 178.046 261.257 177.516C264.629 176.655 378.467 139.194 403.593 133.1L401.268 134.711C401.268 134.711 269.097 184.775 259.671 188.31Z" fill="#9E9F9D"/>
<path d="M259.318 187.443C253.3 189.7 135.814 228.628 135.814 228.628L131.432 227.044C133.981 226.874 257.521 177.098 261.683 175.759C266.487 174.214 390.552 134.133 403.113 131.086L399.969 131.938C399.969 131.938 271.101 183.024 259.318 187.443Z" fill="#9A9B9A"/>
<path d="M129.888 225.753C132.437 225.583 255.86 176.167 262.108 174.004C268.359 171.839 402.634 129.072 402.634 129.072L398.67 129.164C398.67 129.164 273.104 181.273 258.965 186.577C251.744 189.285 134.572 226.477 134.572 226.477L129.888 225.753Z" fill="#969796"/>
<path d="M301.677 179.668C296.601 180.517 288.929 185.526 285.635 183.672C284.048 182.777 294.656 178.979 294.904 178.848C297.153 177.645 310.87 173.397 311.402 174.414C312.539 176.596 302.835 179.475 301.677 179.668Z" fill="#D0D1CF"/>
<path d="M332.371 147.768C334.458 149.839 372.133 169.895 377.178 172.767C378.291 172.205 378.448 171.819 380.86 171.406C373.078 166.759 341.777 149.907 335.566 146.32C334.075 146.115 331.42 145.437 332.371 147.768Z" fill="#AF8B6A"/>
<path d="M333.01 146.735C335.097 148.807 373.043 168.701 378.086 171.572C379.204 171.009 377.894 171.757 380.304 171.341C372.527 166.693 341.458 149.802 335.246 146.219C333.755 146.219 333.01 145.805 333.01 146.735Z" fill="#C6A57F"/>
<path d="M332.264 147.768C334.352 149.839 372.133 169.895 377.178 172.766C378.291 172.205 379.558 171.868 381.97 171.451C374.188 166.803 342.842 150.32 336.631 146.734C335.246 145.701 330.882 146.01 332.264 147.768Z" stroke="#1A1919" stroke-width="2.267" stroke-linecap="round" stroke-linejoin="round"/>
<path d="M346.423 144.049C348.609 146.039 388.166 165.108 393.326 167.777C394.404 167.164 394.538 166.772 396.907 166.247C388.933 161.913 355.063 145.422 348.7 142.086C346.722 142.757 345.345 141.743 346.423 144.049Z" fill="#AF8B6A"/>
<path d="M347.063 142.5C349.248 144.495 389.005 163.867 394.165 166.538C395.238 165.922 393.984 166.733 396.353 166.208C388.377 161.872 355.553 144.906 349.193 141.57C347.489 141.467 346.597 142.33 347.063 142.5Z" fill="#C6A57F"/>
<path d="M347.062 144.255C348.058 145.16 386.707 164.354 393.326 167.777C394.404 167.164 395.642 166.77 398.012 166.247C390.035 161.911 356.195 145.216 349.831 141.88C347.984 140.754 344.509 142.81 347.062 144.255Z" stroke="#1A1919" stroke-width="2.267" stroke-linecap="round" stroke-linejoin="round"/>
<path d="M338.87 151.91C339.357 150.119 353.876 144.998 356.432 144.875C358.176 145.56 357.92 145.657 358.559 146.32C356.261 146.94 342.057 150.84 341.314 153.447C340.169 153.102 340.821 152.763 338.87 151.91Z" fill="#4A4B4A"/>
<path d="M338.87 151.91C339.357 150.119 353.876 144.998 356.432 144.875C358.176 145.56 357.92 145.657 358.559 146.32C356.261 146.94 342.057 150.84 341.314 153.447C340.169 153.102 340.821 152.763 338.87 151.91Z" stroke="#1A1919" stroke-width="2.267" stroke-linecap="round" stroke-linejoin="round"/>
<path d="M357.068 162.685C357.249 160.813 369.995 153.721 372.449 153.275C372.875 153.457 374.334 153.631 375.391 154.631C373.261 155.546 360.662 161.099 360.364 163.828C359.195 163.625 359.097 163.297 357.068 162.685Z" fill="#4A4B4A"/>
<path d="M357.068 162.685C357.249 160.813 369.995 153.721 372.449 153.275C372.875 153.457 374.334 153.631 375.391 154.631C373.261 155.546 360.662 161.099 360.364 163.828C359.195 163.625 359.097 163.297 357.068 162.685Z" stroke="#1A1919" stroke-width="2.267" stroke-linecap="round" stroke-linejoin="round"/>
<path d="M346.333 156.782C345.952 154.863 355.46 146.519 357.611 145.502C358.061 145.589 358.357 146.088 359.632 146.847C356.56 148.244 349.278 155.52 348.676 157.8C348.08 157.466 348.45 157.471 346.333 156.782Z" fill="#4A4B4A"/>
<path d="M346.333 156.782C345.952 154.863 355.46 146.519 357.611 145.502C358.061 145.589 358.357 146.088 359.632 146.847C356.56 148.244 349.278 155.52 348.676 157.8C348.08 157.466 348.45 157.471 346.333 156.782Z" stroke="#1A1919" stroke-width="2.267" stroke-linecap="round" stroke-linejoin="round"/>
<path d="M340.915 153.421C342.733 151.976 360.013 147.425 362.606 147.56C362.979 147.825 364.491 148.665 365.266 149.833C361.594 149.603 345.505 152.471 344.432 154.95C343.279 154.603 341.767 154.253 340.915 153.421Z" fill="#4A4B4A"/>
<path d="M340.915 153.421C342.733 151.976 360.013 147.425 362.606 147.56C362.979 147.825 364.491 148.665 365.266 149.833C361.594 149.603 345.505 152.471 344.432 154.95C343.279 154.603 341.767 154.253 340.915 153.421Z" stroke="#1A1919" stroke-width="2.267" stroke-linecap="round" stroke-linejoin="round"/>
<path d="M355.686 161.814C355.3 159.895 362.947 150.24 365.101 149.228C365.548 149.311 366.44 150.147 367.718 150.906C364.648 152.303 357.606 160.663 358.133 163.468C357.537 163.131 357.704 163.158 355.686 161.814Z" fill="#4A4B4A"/>
<path d="M355.686 161.814C355.3 159.895 362.947 150.24 365.101 149.228C365.548 149.311 366.44 150.147 367.718 150.906C364.648 152.303 357.606 160.663 358.133 163.468C357.537 163.131 357.704 163.158 355.686 161.814Z" stroke="#1A1919" stroke-width="2.267" stroke-linecap="round" stroke-linejoin="round"/>
<path d="M350.079 158.64C350.795 156.937 369.028 152.472 371.624 152.605C371.997 152.873 373.672 153.283 374.446 154.452C370.775 154.224 354.142 157.849 353.064 160.329C352.694 159.795 352.513 160.318 350.079 158.64Z" fill="#4A4B4A"/>
<path d="M350.079 158.64C350.795 156.937 369.028 152.472 371.624 152.605C371.997 152.873 373.672 153.283 374.446 154.452C370.775 154.224 354.142 157.849 353.064 160.329C352.694 159.795 352.513 160.318 350.079 158.64Z" stroke="#1A1919" stroke-width="2.267" stroke-linecap="round" stroke-linejoin="round"/>
<path d="M348.125 157.793C348.308 155.921 361.062 148.828 363.514 148.383C363.943 148.566 364.64 148.565 365.7 149.564C363.565 150.476 351.434 156.538 350.329 159.138C349.158 158.936 350.329 159.138 348.125 157.793Z" fill="#4A4B4A"/>
<path d="M348.125 157.793C348.308 155.921 361.062 148.828 363.514 148.383C363.943 148.566 364.64 148.565 365.7 149.564C363.565 150.476 351.434 156.538 350.329 159.138C349.158 158.936 350.329 159.138 348.125 157.793Z" stroke="#1A1919" stroke-width="2.267" stroke-linecap="round" stroke-linejoin="round"/>
<path d="M218.141 186.864C220.108 190.218 262.585 225.36 268.05 230.216C269.657 229.469 269.986 228.898 273.19 228.504C264.84 220.682 228.848 190.282 222.134 184.23C220.058 183.455 217.709 183.231 218.141 186.864Z" fill="#AF8B6A"/>
<path d="M218.71 184.647C220.677 187.997 264.141 223.636 269.605 228.486C271.217 227.739 269.298 228.747 272.505 228.348C264.151 220.531 227.616 189.371 220.901 183.319C218.128 183.999 218.493 184.013 218.71 184.647Z" fill="#C6A57F"/>
<path d="M217.982 186.554C219.948 189.908 262.585 225.36 268.05 230.216C269.657 229.468 271.379 229.08 274.591 228.681C266.234 220.858 228.689 189.815 221.974 183.765C219.898 182.99 217.711 183.76 217.982 186.554Z" stroke="#1A1919" stroke-width="2.267" stroke-linecap="round" stroke-linejoin="round"/>
<path d="M235.678 180.671C237.795 183.912 284.591 219.656 290.272 224.214C291.849 223.385 292.148 222.802 295.337 222.236C286.629 214.871 246.634 183.046 239.65 177.358C236.907 178.181 235.077 177.064 235.678 180.671Z" fill="#AF8B6A"/>
<path d="M236.026 178.807C238.143 182.047 286.07 217.851 291.752 222.411C293.324 221.579 291.454 222.684 294.643 222.125C285.935 214.754 246.317 183.065 239.331 177.374C236.586 178.2 235.428 175.2 236.026 178.807Z" fill="#C6A57F"/>
<path d="M236.026 180.511C238.146 183.752 284.591 219.656 290.272 224.214C291.849 223.384 293.555 222.907 296.744 222.343C288.039 214.977 246.845 183.563 239.859 177.877C238.134 176.262 234.27 177.257 236.026 180.511Z" stroke="#1A1919" stroke-width="2.267" stroke-linecap="round" stroke-linejoin="round"/>
<path d="M226.244 194.788C227.458 192.11 248.921 187.072 252.211 187.133C254.207 188.345 253.299 187.998 253.893 189.073C250.764 189.787 231.758 193.798 229.947 197.688C228.601 197.048 228.442 196.271 226.244 194.788Z" fill="#4A4B4A"/>
<path d="M226.244 194.788C227.458 192.11 248.921 187.072 252.211 187.133C254.207 188.345 253.299 187.998 253.893 189.073C250.764 189.787 231.758 193.798 229.947 197.688C228.601 197.048 228.442 196.271 226.244 194.788Z" stroke="#1A1919" stroke-width="2.267" stroke-linecap="round" stroke-linejoin="round"/>
<path d="M245.813 212.934C246.672 210.103 265.259 200.577 268.532 200.138C269.011 200.46 270.81 200.868 271.823 202.485C268.807 203.669 250.919 210.876 249.628 214.99C248.209 214.566 248.193 214.06 245.813 212.934Z" fill="#4A4B4A"/>
<path d="M245.813 212.934C246.672 210.103 265.259 200.577 268.532 200.138C269.011 200.46 270.81 200.868 271.823 202.485C268.807 203.669 250.919 210.876 249.628 214.99C248.209 214.566 248.193 214.06 245.813 212.934Z" stroke="#1A1919" stroke-width="2.267" stroke-linecap="round" stroke-linejoin="round"/>
<path d="M234.119 202.915C234.273 199.959 249.159 188.213 252.238 186.884C252.78 187.054 252.986 187.84 254.361 189.119C249.987 190.941 238.288 201.283 236.761 204.695C236.113 204.123 236.58 204.167 234.119 202.915Z" fill="#4A4B4A"/>
<path d="M234.119 202.915C234.273 199.959 249.159 188.213 252.238 186.884C252.78 187.054 252.986 187.84 254.361 189.119C249.987 190.941 238.288 201.283 236.761 204.695C236.113 204.123 236.58 204.167 234.119 202.915Z" stroke="#1A1919" stroke-width="2.267" stroke-linecap="round" stroke-linejoin="round"/>
<path d="M228.342 197.274C231.137 195.26 254.65 190.783 257.91 191.238C258.296 191.678 259.564 192.653 260.162 194.504C255.566 193.798 234.5 196.288 232.307 199.943C230.957 199.307 229.145 198.624 228.342 197.274Z" fill="#4A4B4A"/>
<path d="M228.342 197.274C231.137 195.26 254.65 190.783 257.91 191.238C258.296 191.678 259.564 192.653 260.162 194.504C255.566 193.798 234.5 196.288 232.307 199.943C230.957 199.307 229.145 198.624 228.342 197.274Z" stroke="#1A1919" stroke-width="2.267" stroke-linecap="round" stroke-linejoin="round"/>
<path d="M244.972 211.834C245.127 208.881 257.448 194.602 260.527 193.269C261.068 193.442 261.924 194.801 263.3 196.075C258.922 197.9 247.801 210.056 247.54 214.366C246.892 213.795 247.098 214.072 244.972 211.834Z" fill="#4A4B4A"/>
<path d="M244.972 211.834C245.127 208.881 257.448 194.602 260.527 193.269C261.068 193.442 261.924 194.801 263.3 196.075C258.922 197.9 247.801 210.056 247.54 214.366C246.892 213.795 247.098 214.072 244.972 211.834Z" stroke="#1A1919" stroke-width="2.267" stroke-linecap="round" stroke-linejoin="round"/>
<path d="M238.264 206.108C239.747 203.587 264.445 198.585 267.701 199.043C268.088 199.479 270.082 200.271 270.681 202.12C266.082 201.412 243.698 205.301 241.504 208.961C241.208 208.111 240.803 208.893 238.264 206.108Z" fill="#4A4B4A"/>
<path d="M238.264 206.108C239.747 203.587 264.445 198.585 267.701 199.043C268.088 199.479 270.082 200.271 270.681 202.12C266.082 201.412 243.698 205.301 241.504 208.961C241.208 208.111 240.803 208.893 238.264 206.108Z" stroke="#1A1919" stroke-width="2.267" stroke-linecap="round" stroke-linejoin="round"/>
<path d="M236.063 204.625C236.919 201.8 255.517 192.267 258.79 191.831C259.269 192.151 260.162 192.217 261.174 193.841C258.156 195.02 240.694 203.041 238.42 206.885C236.996 206.459 238.42 206.885 236.063 204.625Z" fill="#4A4B4A"/>
<path d="M236.063 204.625C236.919 201.8 255.517 192.267 258.79 191.831C259.269 192.151 260.162 192.217 261.174 193.841C258.156 195.02 240.694 203.041 238.42 206.885C236.996 206.459 238.42 206.885 236.063 204.625Z" stroke="#1A1919" stroke-width="2.267" stroke-linecap="round" stroke-linejoin="round"/>
<path d="M110.938 207.368C103.912 216.457 99.2623 228.825 100.506 237.528C102.212 249.449 116.87 257.313 125.205 259.012C150.264 264.116 254.86 246.925 295.962 230.711C354.089 207.78 393.691 182.99 410.297 163.778C412.368 161.383 423.498 151.383 425.628 140.228C428.173 126.897 423.476 107.026 415.888 105.986C411.38 116.994 396.729 139.944 376.233 156.341C352.065 175.672 322.152 193.526 303.414 200.136C283.876 207.029 222.177 216.067 202.066 218.316C181.955 220.565 126.008 216.109 110.938 207.368Z" fill="#E15C5A"/>
<path d="M302.91 202.39C283.444 209.325 220.822 218.938 200.712 221.133C180.6 223.327 125.258 220.516 110.048 209.602C103.622 218.654 99.5239 230.215 101.029 238.42C103.145 249.948 117.125 257.345 125.459 259.004C150.518 263.983 254.704 246.985 295.672 230.796C353.74 207.846 392.762 183.427 409.37 164.679C411.439 162.343 423.343 151.639 425.473 140.753C428.018 127.745 423.788 108.956 416.735 107.333C412.597 119.669 396.801 142.599 376.233 158.848C352.174 177.87 321.763 195.667 302.91 202.39Z" fill="#DF5B59"/>
<path d="M302.408 204.643C283.014 211.62 219.468 221.809 199.357 223.95C179.245 226.09 124.507 224.923 109.158 211.837C103.332 220.851 99.7981 231.609 101.553 239.313C104.091 250.453 117.379 257.379 125.714 258.996C150.773 263.852 254.549 247.045 295.382 230.88C353.391 207.911 391.833 183.863 408.441 165.581C410.51 163.302 423.189 151.894 425.319 141.279C427.864 128.594 424.102 110.885 417.582 108.681C413.817 122.345 396.873 145.254 376.233 161.355C352.281 180.068 321.377 197.808 302.408 204.643Z" fill="#DD5957"/>
<path d="M301.904 206.897C282.581 213.916 218.113 224.681 198.002 226.767C177.89 228.853 123.757 229.331 108.267 214.072C103.041 223.049 100.085 233.005 102.076 240.205C105.051 250.964 117.633 257.411 125.968 258.987C151.028 263.72 254.394 247.105 295.091 230.965C353.042 207.977 390.903 184.299 407.512 166.482C409.581 164.261 423.034 152.15 425.164 141.804C427.71 129.442 424.413 112.813 418.428 110.028C415.033 125.02 396.944 147.909 376.233 163.862C352.39 182.267 320.991 199.948 301.904 206.897Z" fill="#DC5756"/>
<path d="M301.401 209.15C282.15 216.211 216.758 227.553 196.647 229.584C176.535 231.615 123.006 233.738 107.377 216.307C102.751 225.246 100.388 234.401 102.6 241.098C106.029 251.478 117.888 257.444 126.223 258.979C151.283 263.589 254.239 247.165 294.801 231.05C352.696 208.043 389.974 184.736 406.583 167.383C408.652 165.221 422.88 152.406 425.01 142.33C427.555 130.291 424.725 114.742 419.275 111.376C416.25 127.696 397.016 150.564 376.233 166.369C352.499 184.466 320.603 202.089 301.401 209.15Z" fill="#DA5654"/>
<path d="M300.898 211.404C281.719 218.507 215.403 230.424 195.293 232.402C175.18 234.377 122.255 238.146 106.487 218.541C102.461 227.443 100.707 235.797 103.123 241.99C107.026 251.993 118.143 257.477 126.478 258.971C151.537 263.457 254.083 247.226 294.511 231.134C352.348 208.109 389.045 185.173 405.654 168.285C407.722 166.181 422.726 152.662 424.853 142.856C427.398 131.139 425.037 116.671 420.122 112.724C417.47 130.371 397.091 153.219 376.233 168.877C352.606 186.665 320.217 204.231 300.898 211.404Z" fill="#D85453"/>
<path d="M300.394 213.657C281.288 220.802 214.048 233.295 193.937 235.219C173.825 237.14 121.505 242.553 105.597 220.777C102.17 229.641 101.042 237.188 103.646 242.882C108.048 252.504 118.398 257.51 126.732 258.962C151.792 263.325 253.928 247.286 294.22 231.218C351.999 208.174 388.116 185.609 404.724 169.186C406.793 167.139 422.571 152.918 424.698 143.382C427.244 131.988 425.348 118.601 420.968 114.071C418.686 133.047 397.163 155.874 376.233 171.383C352.715 188.863 319.828 206.372 300.394 213.657Z" fill="#D65251"/>
<path d="M299.891 215.911C280.856 223.097 212.693 236.167 192.583 238.035C172.47 239.903 120.755 246.96 104.706 223.011C101.88 231.838 101.394 238.574 104.17 243.774C109.096 253.005 118.652 257.542 126.987 258.954C152.047 263.194 253.772 247.345 293.93 231.302C351.65 208.239 387.186 186.045 403.795 170.087C405.864 168.099 422.414 153.173 424.544 143.907C427.089 132.836 425.659 120.53 421.815 115.418C419.903 135.722 397.235 158.529 376.233 173.89C352.824 191.061 319.442 208.512 299.891 215.911Z" fill="#D55050"/>
<path d="M299.388 218.164C280.424 225.393 211.338 239.038 191.228 240.852C171.115 242.666 120.004 251.368 103.816 225.246C101.59 234.035 101.762 239.951 104.693 244.667C110.175 253.49 118.907 257.576 127.242 258.946C152.302 263.062 253.617 247.405 293.64 231.387C351.301 208.305 386.257 186.482 402.866 170.99C404.935 169.058 422.26 153.429 424.39 144.433C426.935 133.684 425.971 122.459 422.662 116.766C421.123 138.398 397.307 161.184 376.233 176.397C352.931 193.26 319.053 210.653 299.388 218.164Z" fill="#D34F4F"/>
<path d="M298.885 220.418C279.993 227.688 209.983 241.91 189.873 243.669C169.76 245.428 119.254 255.774 102.926 227.481C101.299 236.233 102.145 241.315 105.216 245.558C111.286 253.946 119.162 257.609 127.496 258.938C152.556 262.93 253.462 247.465 293.349 231.471C350.953 208.37 385.331 186.919 401.937 171.891C404.006 170.018 422.105 153.685 424.235 144.959C426.781 134.533 426.283 124.387 423.508 118.113C422.342 141.073 397.379 163.839 376.233 178.904C353.04 195.459 318.667 212.795 298.885 220.418Z" fill="#D14D4D"/>
<path d="M298.382 222.672C279.561 229.984 208.628 244.782 188.518 246.487C168.405 248.191 118.503 260.183 102.035 229.716C101.009 238.43 102.538 242.662 105.739 246.451C112.428 254.367 119.416 257.641 127.751 258.93C152.811 262.799 253.307 247.525 293.058 231.556C350.606 208.437 384.399 187.355 401.007 172.792C403.076 170.977 421.951 153.941 424.081 145.485C426.626 135.381 426.594 126.317 424.355 119.461C423.559 143.749 397.45 166.494 376.233 181.411C353.146 197.657 318.28 214.935 298.382 222.672Z" fill="#CF4B4C"/>
<path d="M101.145 231.95C100.719 240.627 102.937 243.989 106.263 247.343C113.597 254.739 119.671 257.674 128.005 258.921C153.066 262.666 253.151 247.585 292.768 231.64C350.257 208.502 383.472 187.791 400.078 173.694C402.147 171.937 421.796 154.196 423.926 146.01C426.471 136.23 426.905 128.245 425.204 120.809C424.775 146.425 397.522 169.149 376.233 183.918C353.255 199.856 317.893 217.077 297.878 224.926C279.13 232.28 207.273 247.653 187.163 249.303C167.05 250.953 117.752 264.589 101.145 231.95Z" fill="#CE494B"/>
<path d="M113.6 247.909C106.315 242.662 102.103 234.119 103.7 219.71C96.9454 235.108 101.685 244.964 105.829 248.476C113.795 255.229 119.834 258.152 128.169 259.398C153.227 263.144 253.151 247.585 292.769 231.64C350.258 208.502 383.472 187.791 400.078 173.694C402.147 171.937 421.796 154.196 423.926 146.01C426.472 136.23 426.906 128.245 425.204 120.809C427.545 151.073 404.229 167.496 382.833 182.99C354.648 203.397 308.81 221.834 297.24 226.373C278.491 233.726 206.218 252.092 177.794 253.642C163.632 254.412 130.825 260.312 113.6 247.909Z" fill="#B4383D"/>
<path d="M280.1 159.85C282.475 162.18 288.829 164.689 295.589 169.096C301.353 166.21 314.235 173.439 314.38 177.411C324.575 182.499 330.121 185.242 335.885 188.155C337.177 187.276 338.638 186.143 341.421 185.262C332.533 180.49 330.627 180.757 319.064 174.519C317.273 167.601 306.087 163.804 297.561 163.983C293.525 161.364 291.125 160.09 284.024 156.441C278.079 156.854 279.038 157.025 280.1 159.85Z" fill="#AF8B6A"/>
<path d="M281.592 157.991C283.966 160.321 290.16 162.984 296.92 167.392C302.684 164.506 315.726 171.58 315.87 175.552C326.066 180.64 331.612 183.383 337.376 186.296C338.668 185.417 338.638 186.143 341.421 185.262C332.531 180.492 330.624 180.344 319.063 174.105C317.271 167.189 306.086 164.011 297.559 164.189C293.524 161.57 291.46 159.989 284.358 156.341C278.413 156.752 280.529 155.167 281.592 157.991Z" fill="#C6A57F"/>
<path d="M280.1 159.85C282.475 162.18 289.202 164.843 295.962 169.251C301.726 166.365 314.235 173.439 314.38 177.411C324.575 182.499 328.843 185.242 334.607 188.155C335.899 187.276 338.638 186.143 341.421 185.262C332.533 180.49 330.627 180.757 319.064 174.519C316.508 168.116 306.087 163.804 297.561 163.983C293.525 161.364 291.125 160.09 284.024 156.441C278.079 156.854 279.038 157.025 280.1 159.85Z" stroke="#1A1919" stroke-width="2.267" stroke-linecap="round" stroke-linejoin="round"/>
<path d="M147.986 206.953C149.169 206.62 151.18 206.333 155.012 205.508C156.289 206.953 161.187 214.391 163.954 217.903C164.016 217.883 164.72 219.088 168.001 217.696C168.925 217.303 160.13 203.57 160.548 203.442C180.382 197.347 207.174 186.774 230.598 178.446C252.435 170.679 270.849 165.082 273.18 164.191C294.259 156.135 354.917 138.484 379.958 130.621C382.674 131.241 395.512 137.875 396.407 137.593C399.04 136.76 400.065 136.891 396.087 134.185C394.596 133.17 385.895 129.899 385.387 129.072C387.623 128.452 390.475 127.154 391.135 126.902C397.363 129.846 400.93 131.136 400.93 131.136L402.208 122.047L394.969 120.808C394.969 120.808 280.418 153.862 271.477 158.82C262.535 163.778 145.857 203.442 145.857 203.442C145.857 203.442 147.561 204.887 147.986 206.953Z" fill="#4A4B4A"/>
<path d="M147.986 206.953C149.169 206.62 151.18 206.333 155.012 205.508C156.289 206.953 161.187 214.392 163.954 217.903C164.017 217.883 164.72 219.088 168.001 217.696C168.925 217.303 160.13 203.57 160.548 203.442C180.382 197.347 207.174 186.774 230.598 178.446C252.435 170.679 270.849 165.082 273.18 164.191C294.259 156.135 354.917 138.484 379.958 130.621C382.674 131.241 395.512 137.875 396.407 137.593C399.04 136.761 400.065 136.891 396.087 134.185C394.596 133.17 385.895 129.899 385.387 129.072C387.623 128.452 390.475 127.154 391.135 126.902C397.363 129.847 400.93 131.136 400.93 131.136L402.208 122.047L394.969 120.808C394.969 120.808 280.418 153.862 271.477 158.82C262.535 163.778 145.857 203.442 145.857 203.442C145.857 203.442 147.561 204.887 147.986 206.953ZM110.939 207.368C103.78 216.519 99.2624 228.825 100.506 237.528C102.212 249.449 116.87 257.313 125.205 259.012C150.264 264.116 254.86 246.925 295.962 230.711C354.089 207.78 393.028 182.432 410.297 163.778C414.051 159.723 423.498 151.383 425.628 140.228C428.173 126.897 423.476 107.026 415.888 105.986C411.381 116.994 396.729 139.944 376.233 156.341C352.065 175.672 322.152 193.526 303.414 200.136C283.876 207.029 222.177 216.067 202.067 218.316C181.955 220.565 126.008 216.109 110.939 207.368Z" stroke="#1A1919" stroke-width="2.267" stroke-linecap="round" stroke-linejoin="round"/>
<path d="M115.604 208.317L111.805 204.875C111.805 204.875 111.44 206.26 110.087 207.986C110.726 210.466 112.345 210.999 114.132 212.118C119.257 215.326 138.755 219.568 154.373 221.621C179.797 224.963 250.496 217.739 272.328 212.53C278.722 211.006 294.897 207.985 301.71 202.614C295.749 203.442 280.607 208.245 272.754 210.052C257.385 213.589 238.24 215.763 222.506 217.077C189.501 219.828 156.272 216.855 153.522 216.249C148.521 215.148 115.604 208.317 115.604 208.317Z" fill="#4A4B4A"/>
<path d="M115.604 208.317L111.805 204.875C111.805 204.875 111.44 206.26 110.087 207.986C110.726 210.466 112.345 210.999 114.132 212.118C119.257 215.326 138.755 219.568 154.373 221.621C179.797 224.963 250.496 217.739 272.328 212.53C278.722 211.006 294.897 207.985 301.71 202.614C295.749 203.442 280.607 208.245 272.754 210.052C257.385 213.589 238.24 215.763 222.506 217.077C189.501 219.828 156.272 216.855 153.522 216.249C148.521 215.148 115.604 208.317 115.604 208.317Z" stroke="#1A1919" stroke-width="2.267" stroke-linecap="round" stroke-linejoin="round"/>
<path d="M410.297 108C407.653 110.181 394.543 119.155 380.916 124.527C368.916 129.255 286.635 152.709 264.237 160.473C258.276 162.538 170.574 194.036 163.343 196.503C153.575 199.834 131.197 204.613 113.19 204.23C110.498 204.172 111.448 207.329 115.426 209.544C119.405 211.76 139.171 217.37 152.244 219.141C181.041 223.042 242.831 218.124 254.87 216.249C289.361 210.879 326.042 195.683 339.184 187.74C352.172 179.891 388.424 153.236 401.356 136.509C410.457 124.733 414.746 117.448 416.687 110.789C418.231 105.484 414.557 104.487 410.297 108ZM149.477 204.268C151.975 204.047 150.977 204.296 155.226 203.029L165.019 216.043C161.399 215.837 161.187 215.629 157.674 215.217C154.373 211.291 153.309 208.812 149.477 204.268ZM330.669 186.501C315.715 194.489 300.859 199.31 282.122 205.508C254.444 212.532 188.44 217.696 169.49 215.837C166.297 211.912 163.529 206.54 160.122 201.582C163.742 199.93 222.92 178.389 264.663 165.017C309.801 150.557 377.892 129.611 380.916 128.452C384.907 130.621 395.927 135.424 395.927 135.424C382.764 149.074 360.157 170.75 330.669 186.501ZM396.407 132.48L384.588 127.367C388.102 126.282 387.943 125.818 390.179 124.888C394.862 126.953 396.566 127.367 400.238 128.762C399.122 130.47 399 130.46 396.407 132.48Z" fill="#595A59"/>
<path d="M410.297 108C407.653 110.181 394.543 119.155 380.916 124.527C368.916 129.255 286.635 152.709 264.237 160.473C258.276 162.538 170.574 194.036 163.343 196.503C153.575 199.834 131.197 204.613 113.19 204.23C110.498 204.172 111.448 207.329 115.426 209.544C119.405 211.76 139.171 217.37 152.244 219.141C181.041 223.042 242.831 218.124 254.87 216.249C289.361 210.879 326.042 195.683 339.184 187.74C352.172 179.891 388.424 153.236 401.356 136.509C410.457 124.733 414.746 117.448 416.687 110.789C418.231 105.484 414.557 104.487 410.297 108ZM149.477 204.268C151.975 204.047 150.977 204.296 155.226 203.029L165.019 216.043C161.399 215.837 161.187 215.629 157.674 215.217C154.373 211.291 153.309 208.812 149.477 204.268ZM330.669 186.501C315.715 194.489 300.859 199.31 282.122 205.508C254.444 212.532 188.44 217.696 169.49 215.837C166.297 211.912 163.529 206.54 160.122 201.582C163.742 199.93 222.92 178.389 264.663 165.017C309.801 150.557 377.892 129.611 380.916 128.452C384.907 130.621 395.927 135.424 395.927 135.424C382.764 149.074 360.157 170.75 330.669 186.501ZM396.407 132.48L384.588 127.367C388.102 126.282 387.943 125.818 390.179 124.888C394.862 126.953 396.566 127.367 400.238 128.762C399.122 130.47 399 130.46 396.407 132.48Z" stroke="#1A1919" stroke-width="2.267" stroke-linecap="round" stroke-linejoin="round"/>
<path d="M279.568 195.797C278.077 197.037 276.801 205.611 277.013 206.643C279.248 206.54 286.488 204.682 288.829 203.029C289.257 200.55 290.639 196.417 290 194.558C289.361 192.698 281.059 194.558 279.568 195.797Z" fill="#D4937F"/>
<path d="M279.568 195.797C278.077 197.037 276.801 205.611 277.013 206.643C279.248 206.54 286.488 204.682 288.829 203.029C289.257 200.55 290.639 196.417 290 194.558C289.361 192.698 281.059 194.558 279.568 195.797Z" stroke="#1A1919" stroke-width="2.267" stroke-linecap="round" stroke-linejoin="round"/>
<path d="M233.365 192.597C231.768 194.766 235.683 199.893 236.24 200.343C238.69 202.327 242.402 204.876 245.501 205.301C251.546 206.134 252.208 207.11 258.063 205.508C262.345 204.337 271.4 201.553 277.013 195.385C277.013 200.136 276.8 199.104 276.161 201.17C278.929 200.55 280.943 198.164 284.89 196.832C289.547 195.258 289.255 193.629 292.129 193.938C292.529 191.096 297.515 182 294.684 179.272C293.206 177.847 287.233 175.759 284.464 176.587C279.516 178.063 275.715 179.42 270.626 179.892C268.832 180.056 263.683 180.958 262.109 181.958C259.553 185.469 257.644 186.748 255.671 188.7C250.904 193.413 240.072 197.245 233.365 192.597Z" fill="#4A4B4A"/>
<path d="M233.365 192.597C231.768 194.766 235.683 199.893 236.24 200.343C238.69 202.327 242.402 204.876 245.501 205.301C251.546 206.134 252.208 207.11 258.063 205.508C262.345 204.337 271.4 201.553 277.013 195.385C277.013 200.136 276.8 199.104 276.161 201.17C278.929 200.55 280.943 198.164 284.89 196.832C289.547 195.258 289.255 193.629 292.129 193.938C292.529 191.096 297.515 182 294.684 179.272C293.206 177.847 287.233 175.759 284.464 176.587C279.516 178.063 275.715 179.42 270.626 179.892C268.832 180.056 263.683 180.958 262.109 181.958C259.553 185.469 257.644 186.748 255.671 188.7C250.904 193.413 240.072 197.245 233.365 192.597Z" stroke="#1A1919" stroke-width="2.267" stroke-linecap="round" stroke-linejoin="round"/>
<path d="M285.742 188.155C283.629 190.015 279.781 193.113 277.013 195.385Z" fill="#E15C5A"/>
<path d="M285.742 188.155C283.629 190.015 279.781 193.113 277.013 195.385" stroke="#1A1919" stroke-width="2.267" stroke-linecap="round" stroke-linejoin="round"/>
<path d="M289.042 188.05C288.617 191.768 286.594 202.099 286.275 203.648C285.961 205.167 285.848 207.057 286.061 209.639C286.314 212.711 288.912 228.009 289.361 230.918C290 235.049 291.172 239.595 293.726 238.148C294.69 237.6 296.92 236.186 299.156 234.429C300.916 233.045 303.324 230.462 304.585 228.644C307.15 224.948 307.353 222.241 306.927 220.277C306.134 216.625 303.202 207.78 302.244 204.682C301.398 201.944 299.582 198.794 297.772 197.347C295.962 195.9 290.533 191.357 289.042 188.05Z" fill="#8F7F6B"/>
<path d="M289.042 188.05C288.617 191.768 286.594 202.099 286.275 203.648C285.961 205.167 285.848 207.057 286.061 209.639C286.314 212.711 288.912 228.009 289.361 230.918C290 235.049 291.172 239.595 293.726 238.148C294.69 237.6 296.92 236.186 299.156 234.429C300.916 233.045 303.324 230.462 304.585 228.644C307.15 224.948 307.353 222.241 306.927 220.277C306.134 216.625 303.202 207.78 302.244 204.682C301.398 201.944 299.582 198.794 297.772 197.347C295.962 195.9 290.533 191.357 289.042 188.05Z" stroke="#1A1919" stroke-width="2.267" stroke-linecap="round" stroke-linejoin="round"/>
<path d="M279.002 128.88C279.927 129.473 280.685 130.419 280.925 131.312C281.134 132.08 280.767 135.108 279.481 134.734C278.099 134.33 279.633 131.412 277.567 130.836C274.923 130.097 274.774 133.629 274.777 135.199C274.78 136.667 274.302 138.481 272.626 139.051C271.398 139.467 269.562 139.54 268.509 138.904C265.971 137.374 266.62 134.801 268.087 132.622C268.812 131.548 269.923 130.676 271.256 130.388C272.431 130.134 273.383 129.866 274.436 129.306C275.216 128.892 275.988 128.413 276.89 128.3C277.595 128.212 278.342 128.456 279.002 128.88Z" fill="#D4937F"/>
<path d="M279.002 128.88C279.927 129.473 280.685 130.419 280.925 131.312C281.134 132.08 280.767 135.108 279.481 134.734C278.099 134.33 279.633 131.412 277.567 130.836C274.923 130.097 274.774 133.629 274.777 135.199C274.78 136.667 274.302 138.481 272.626 139.051C271.398 139.467 269.562 139.54 268.509 138.904C265.971 137.374 266.62 134.801 268.087 132.622C268.812 131.548 269.923 130.676 271.256 130.388C272.431 130.134 273.383 129.866 274.436 129.306C275.216 128.892 275.988 128.413 276.89 128.3C277.595 128.212 278.342 128.456 279.002 128.88Z" stroke="#1A1919" stroke-width="2.267" stroke-linecap="round" stroke-linejoin="round"/>
<path d="M274.99 130.621C274.458 129.382 277.97 128.864 278.183 129.897C278.397 130.931 298.517 224.101 298.517 224.101C298.517 224.101 299.901 231.538 298.731 234.636C297.027 232.053 295.537 225.34 295.537 225.34C295.537 225.34 275.521 131.861 274.99 130.621Z" fill="#A3907A"/>
<path d="M274.99 130.621C274.458 129.382 277.97 128.864 278.183 129.897C278.397 130.931 298.517 224.101 298.517 224.101C298.517 224.101 299.901 231.538 298.731 234.636C297.027 232.053 295.537 225.34 295.537 225.34C295.537 225.34 275.521 131.861 274.99 130.621Z" stroke="#1A1919" stroke-width="2.267" stroke-linecap="round" stroke-linejoin="round"/>
<path d="M273.073 132.48C274.706 132.655 275.201 132.256 276.374 131.551C277.353 130.96 279.612 129.902 280.313 131.034C281.234 132.516 277.944 133.622 277.152 134.53C275.986 135.867 276.279 136.141 275.097 137.748C274.406 138.688 273.641 139.49 272.435 139.71C270.851 139.998 269.454 139.608 268.496 138.988" fill="#D4937F"/>
<path d="M273.073 132.48C274.706 132.655 275.201 132.256 276.374 131.551C277.353 130.96 279.612 129.902 280.313 131.034C281.234 132.516 277.944 133.622 277.152 134.53C275.986 135.867 276.279 136.141 275.097 137.748C274.406 138.688 273.641 139.49 272.435 139.71C270.851 139.998 269.454 139.608 268.496 138.988" stroke="#1A1919" stroke-width="2.267" stroke-linecap="round" stroke-linejoin="round"/>
<path d="M270.093 133.565C270.599 136.193 269.612 142.224 267.698 144.72C267.034 145.584 263.172 143.698 262.428 144.255C261.001 145.325 261.048 145.206 259.528 146.319C257.942 147.482 256.584 148.897 254.848 149.869C253.244 150.766 250.398 151.37 248.648 150.467C246.609 149.417 240.824 146.189 242.148 144.565C243.508 142.897 245.668 142.868 246.859 140.769C247.582 139.492 250.688 139.324 252.049 138.91C253.007 134.984 249.81 132.371 249.813 129.536C249.816 125.476 254.696 121.798 260.289 122.148C263.764 122.365 267.372 121.961 268.656 124.811C269.426 126.517 269.742 131.741 270.093 133.565Z" fill="#D4937F"/>
<path d="M270.093 133.565C270.599 136.193 269.612 142.224 267.698 144.72C267.034 145.584 263.172 143.698 262.428 144.255C261.001 145.325 261.048 145.206 259.528 146.319C257.942 147.482 256.584 148.897 254.848 149.869C253.244 150.766 250.398 151.37 248.648 150.467C246.609 149.417 240.824 146.189 242.148 144.565C243.508 142.897 245.668 142.868 246.859 140.769C247.582 139.492 250.688 139.324 252.049 138.91C253.007 134.984 249.81 132.371 249.813 129.536C249.816 125.476 254.696 121.798 260.289 122.148C263.764 122.365 267.372 121.961 268.656 124.811C269.426 126.517 269.742 131.741 270.093 133.565Z" stroke="#1A1919" stroke-width="2.267" stroke-linecap="round" stroke-linejoin="round"/>
<path d="M264.025 125.825C262.329 125.772 260.337 123.874 259.234 125.353C258.363 126.519 259.948 128.644 260.192 129.846C259.394 131.396 259.269 132.722 259.934 134.444C258.977 134.444 259.116 134.315 257.538 134.358C257.938 130.827 255.432 130.069 254.177 130.26C252.424 130.526 252.454 137.187 252.208 138.368C252.048 137.283 248.892 133.395 248.376 131.848C248.039 130.838 247.386 128.752 247.601 127.684C248.129 125.057 248.227 122.957 250.132 121.17C251.77 119.633 255.918 117.768 257.797 117.606C262.205 117.224 264.704 119.225 267.538 120.86C268.479 121.402 269.534 122.962 269.108 124.268C268.478 126.193 265.612 125.876 264.025 125.825Z" fill="#283D45"/>
<path d="M264.025 125.825C262.329 125.772 260.337 123.874 259.234 125.353C258.363 126.519 259.948 128.644 260.192 129.846C259.394 131.396 259.269 132.722 259.934 134.444C258.977 134.444 259.116 134.315 257.538 134.358C257.938 130.827 255.432 130.069 254.177 130.26C252.424 130.526 252.454 137.187 252.208 138.368C252.048 137.283 248.892 133.395 248.376 131.848C248.039 130.838 247.386 128.752 247.601 127.684C248.129 125.057 248.227 122.957 250.132 121.17C251.77 119.633 255.918 117.768 257.797 117.606C262.205 117.224 264.704 119.225 267.538 120.86C268.479 121.402 269.534 122.962 269.108 124.268C268.478 126.193 265.612 125.876 264.025 125.825Z" stroke="#1A1919" stroke-width="2.267" stroke-linecap="round" stroke-linejoin="round"/>
<path d="M255.988 132.015C256.253 130.732 254.576 129.661 253.321 129.537C251.993 129.405 251.466 130.268 251.1 131.241C250.574 132.63 251.63 133.72 252.634 134.7C253.179 135.233 255.285 136.622 255.828 135.01" fill="#D4937F"/>
<path d="M255.988 132.015C256.253 130.732 254.576 129.661 253.321 129.537C251.993 129.405 251.466 130.268 251.1 131.241C250.574 132.63 251.63 133.72 252.634 134.7C253.179 135.233 255.285 136.622 255.828 135.01" stroke="#1A1919" stroke-width="2.267" stroke-linecap="round" stroke-linejoin="round"/>
<path d="M262.96 130.439C264.93 129.718 266.502 130.311 267.325 130.492C267.165 129.199 263.812 128.89 262.96 130.439Z" fill="#1A1919"/>
<path d="M266.229 132.339C266.754 132.709 266.244 133.841 265.837 133.841C265.349 133.841 265.216 133.066 265.26 132.722C265.33 132.179 265.733 131.988 266.229 132.339Z" fill="#1A1919"/>
<path d="M268.854 132.851C268.853 134.067 268.987 134.788 269.561 135.366C270.146 135.344 271.008 135.557 271.159 136.096C271.636 137.798 269.643 137.974 269.332 137.974" fill="#D4937F"/>
<path d="M268.854 132.851C268.853 134.067 268.987 134.788 269.561 135.366C270.146 135.344 271.008 135.557 271.159 136.096C271.636 137.798 269.643 137.974 269.332 137.974" stroke="#1A1919" stroke-width="2.267" stroke-linecap="round" stroke-linejoin="round"/>
<path d="M268.921 141.467C269.507 140.587 269.082 140.796 269.614 139.452C269.241 139.812 267.659 139.7 267.112 139.607C266.577 139.515 265.399 139.387 265.04 138.982C266.047 141.725 268.463 141.321 268.921 141.467Z" fill="#FFFFFE"/>
<path d="M252.794 132.584C252.794 132.085 252.78 131.298 253.56 131.488C253.935 131.58 255.01 132.829 254.976 133.203M268.921 141.466C269.507 140.587 269.082 140.796 269.614 139.452C269.24 139.812 267.659 139.7 267.112 139.607C266.577 139.515 265.399 139.387 265.04 138.982C266.047 141.725 268.463 141.321 268.921 141.466Z" stroke="#1A1919" stroke-width="2.267" stroke-linecap="round" stroke-linejoin="round"/>
<path d="M260.619 192.286C258.215 195.103 249.606 197.693 245.927 197.657C241.951 197.616 242.564 197.934 238.703 196.859C235.454 195.955 233.655 194.056 232.726 191.15C232.242 189.63 232.756 187.712 233.046 185.882C231.237 182.887 232.43 181.932 233.365 180.201C234.912 177.339 234.29 176.919 235.11 173.547C236.097 169.487 235.729 165.176 237.212 161.32C238.548 157.855 237.111 154.811 238.475 151.383C239.229 149.492 247.86 140.465 249.893 139.297C248.136 142.552 252.527 145.34 257.637 145.34C262.428 144.358 266.792 143.326 267.644 148.078C268.496 152.828 266.996 157.44 267.006 158.406C267.036 161.377 264.758 162.153 265.052 165.079C265.449 169.011 266.704 172.237 266.58 176.351C266.49 179.316 266.034 182.157 265.054 184.98C264.018 187.963 262.679 189.871 260.619 192.286Z" fill="#FFFFFE"/>
<path d="M255.322 137.361C255.801 140.305 260.215 143.133 261.07 143.791M260.619 192.286C258.215 195.103 249.606 197.693 245.927 197.657C241.951 197.616 242.564 197.934 238.703 196.859C235.454 195.955 233.655 194.056 232.726 191.149C232.242 189.63 232.756 187.712 233.046 185.882C231.237 182.887 232.43 181.932 233.365 180.201C234.912 177.339 234.29 176.919 235.11 173.547C236.097 169.487 235.729 165.176 237.212 161.32C238.548 157.855 237.111 154.811 238.475 151.383C239.229 149.492 247.86 140.465 249.893 139.297C248.136 142.552 252.527 145.34 257.637 145.34C262.428 144.358 266.792 143.326 267.644 148.078C268.496 152.828 266.996 157.44 267.006 158.405C267.036 161.377 264.758 162.153 265.052 165.079C265.449 169.011 266.704 172.237 266.58 176.351C266.49 179.316 266.034 182.157 265.054 184.98C264.018 187.963 262.679 189.871 260.619 192.286Z" stroke="#1A1919" stroke-width="2.267" stroke-linecap="round" stroke-linejoin="round"/>
<path d="M245.661 139.143C243.969 139.993 239.024 146.002 237.624 147.87C235.92 150.143 233.839 151.125 232.567 157.116C230.825 165.311 231.326 177.862 231.449 179.891C231.661 183.402 250.185 189.29 261.896 184.539C262.322 182.06 261.789 170.905 261.258 169.149C256.679 169.872 252.205 167.891 251.462 164.191C249.973 156.754 254.657 150.865 256.999 148.386C259.34 145.907 264.557 144.565 266.58 149.109C267.706 151.64 265.835 165.739 262.428 168.941C262.428 170.595 262.96 183.402 262.96 183.402L269.986 179.891C269.986 179.891 265.517 172.866 266.368 168.116C267.857 163.365 268.922 154.274 269.348 149.729C269.773 145.185 265.196 142.292 262.321 142.706C260.832 142.92 255.349 144.926 252.847 147.509C251.197 146.94 246.3 145.34 245.421 143.016C247.976 140.537 248.535 141.079 252.049 139.685C252.208 139.22 252.128 138.988 251.968 138.29C248.855 137.361 247.817 138.058 245.661 139.143Z" fill="#DF5140"/>
<path d="M242.52 194.868C244.65 196.315 253.732 195.835 256.148 194.972M232.3 184.126C233.046 187.328 235.892 189.813 239.114 189.704M237.41 155.101C236.771 155.876 235.203 158.929 234.855 160.473C234.217 163.313 234.27 177.257 234.164 177.878C234.057 178.497 234.323 181.75 235.601 183.145M242.308 156.806C241.669 157.58 239.912 161.299 239.593 162.848C239.273 164.397 238.741 179.892 238.635 180.511C238.528 181.131 238.155 182.835 239.433 184.229M247.897 158.665C247.258 159.44 246.3 162.073 245.98 163.623C245.661 165.172 244.489 181.441 244.384 182.06C244.277 182.68 244.384 184.539 245.661 185.934M255.402 168.736C254.763 169.51 253.805 171.215 253.486 172.764C253.166 174.314 252.794 181.441 252.687 182.06C252.581 182.68 252.527 184.849 253.805 186.244M245.661 139.143C243.969 139.993 239.024 146.002 237.624 147.87C235.92 150.143 233.839 151.125 232.567 157.116C230.825 165.311 231.326 177.862 231.449 179.891C231.661 183.402 250.185 189.29 261.896 184.539C262.322 182.06 261.789 170.905 261.258 169.149C256.679 169.872 252.205 167.891 251.462 164.191C249.973 156.754 254.657 150.865 256.999 148.386C259.34 145.907 264.557 144.565 266.58 149.109C267.706 151.64 265.835 165.739 262.428 168.941C262.428 170.595 262.96 183.402 262.96 183.402L269.986 179.891C269.986 179.891 265.517 172.866 266.368 168.116C267.857 163.365 268.922 154.274 269.348 149.729C269.773 145.185 265.196 142.292 262.321 142.706C260.832 142.92 255.349 144.926 252.847 147.509C251.197 146.94 246.3 145.34 245.421 143.016C247.976 140.537 248.535 141.079 252.049 139.685C252.208 139.22 252.128 138.988 251.968 138.29C248.855 137.361 247.817 138.058 245.661 139.143Z" stroke="#1A1919" stroke-width="2.267" stroke-linecap="round" stroke-linejoin="round"/>
<path d="M231.342 171.524C234.111 173.797 245.501 175.657 246.46 175.966C247.351 176.254 252.315 176.997 254.017 176.688C255.705 176.382 264.451 174.933 266.687 172.969C267.325 174.417 267.112 173.798 267.538 175.037C265.834 177.516 254.656 179.787 253.379 179.787C252.101 179.787 246.353 179.477 244.97 178.857C243.585 178.237 232.62 176.586 231.342 174.107C231.023 173.279 230.916 173.074 231.342 171.524Z" fill="#373736"/>
<path d="M231.342 171.524C234.111 173.797 245.501 175.657 246.46 175.966C247.351 176.254 252.315 176.997 254.017 176.688C255.705 176.382 264.451 174.933 266.687 172.969C267.325 174.417 267.112 173.798 267.538 175.037C265.834 177.516 254.656 179.787 253.379 179.787C252.101 179.787 246.353 179.477 244.97 178.857C243.585 178.237 232.62 176.586 231.342 174.107C231.023 173.279 230.916 173.074 231.342 171.524Z" stroke="#1A1919" stroke-width="2.267" stroke-linecap="round" stroke-linejoin="round"/>
<path d="M230.491 170.079L232.088 170.285L231.661 175.863H230.384L230.491 170.079Z" fill="#373736"/>
<path d="M230.491 170.079L232.088 170.285L231.661 175.863H230.384L230.491 170.079Z" stroke="#1A1919" stroke-width="2.267" stroke-linecap="round" stroke-linejoin="round"/>
<path d="M249.546 175.347L248.907 180.615L246.247 180.305L247.205 175.037L249.546 175.347Z" fill="#373736"/>
<path d="M249.546 175.347L248.907 180.615L246.247 180.305L247.205 175.037L249.546 175.347Z" stroke="#1A1919" stroke-width="2.267" stroke-linecap="round" stroke-linejoin="round"/>
<path d="M259.748 175.147C261.679 177.581 265.213 177.49 267.431 175.863C270.242 173.804 269.075 168.91 268.205 165.903C267.621 163.882 266.766 163.072 264.817 162.321C261.814 161.165 258.393 163 257.614 166.011C257.205 167.603 257.942 168.895 258.14 170.44C258.361 172.166 258.61 173.715 259.748 175.147Z" fill="#D4937F"/>
<path d="M259.748 175.147C261.679 177.581 265.213 177.49 267.431 175.863C270.242 173.804 269.075 168.91 268.205 165.903C267.621 163.882 266.766 163.072 264.817 162.321C261.814 161.165 258.393 163 257.614 166.011C257.205 167.603 257.942 168.895 258.14 170.44C258.361 172.166 258.61 173.715 259.748 175.147Z" stroke="#1A1919" stroke-width="2.267" stroke-linecap="round" stroke-linejoin="round"/>
<path d="M254.87 156.96C253.699 160.989 256.999 167.909 256.892 169.975C262.215 165.637 269.879 167.392 269.879 167.392C269.879 167.392 268.26 163.429 267.325 158.82C266.578 155.141 266.899 153.021 266.899 152.105" fill="#FFFFFE"/>
<path d="M254.87 156.96C253.699 160.989 256.999 167.909 256.892 169.975C262.215 165.637 269.879 167.392 269.879 167.392C269.879 167.392 268.26 163.429 267.325 158.82C266.578 155.141 266.899 153.021 266.899 152.105" stroke="#1A1919" stroke-width="2.267" stroke-linecap="round" stroke-linejoin="round"/>
<path d="M264.683 168.415C265.837 168.476 267.585 168.639 268.765 168.716C270.792 168.849 272.714 168.786 274.745 168.839C276.797 168.892 279.408 167.909 281.271 167.547C281.697 166.772 282.528 165.628 282.762 165.327C283.542 164.322 284.971 163.935 286.249 163.679C287.474 163.471 288.495 164.394 288.601 165.013C289.489 165.487 289.788 165.715 290.214 166.334C290.639 166.954 290.133 167.342 289.734 167.806C290.506 168.581 291.211 168.934 291.251 169.356C291.358 170.491 290.843 170.866 290.772 171.37C290.864 172.333 291.139 172.29 290.82 172.807C290.352 173.562 288.978 174.787 287.913 174.787C287.58 174.077 287.647 173.883 287.513 173.043C285.301 173.251 283.546 173.857 281.39 173.237C278.995 174.038 275.272 175.106 273.445 175.797C272.254 176.248 264.025 178.238 260.938 176.173" fill="#D4937F"/>
<path d="M264.683 168.415C265.837 168.476 267.585 168.639 268.765 168.716C270.792 168.849 272.714 168.786 274.745 168.839C276.797 168.892 279.408 167.909 281.271 167.547C281.697 166.772 282.528 165.628 282.762 165.327C283.542 164.322 284.971 163.935 286.249 163.679C287.474 163.471 288.495 164.394 288.601 165.013C289.489 165.487 289.788 165.715 290.214 166.334C290.639 166.954 290.133 167.342 289.734 167.806C290.506 168.581 291.211 168.934 291.251 169.356C291.358 170.491 290.843 170.866 290.772 171.37C290.864 172.333 291.139 172.29 290.82 172.807C290.352 173.562 288.978 174.787 287.913 174.787C287.58 174.077 287.647 173.883 287.513 173.043C285.301 173.251 283.546 173.857 281.39 173.237C278.995 174.038 275.272 175.106 273.445 175.797C272.254 176.248 264.025 178.238 260.938 176.173" stroke="#1A1919" stroke-width="2.267" stroke-linecap="round" stroke-linejoin="round"/>
<path d="M289.178 170.718C289.32 170.691 290.775 171.213 290.932 172.222Z" fill="#EFA89D"/>
<path d="M289.178 170.718C289.32 170.691 290.775 171.213 290.932 172.222" stroke="#1A1919" stroke-width="2.267" stroke-linecap="round" stroke-linejoin="round"/>
<path d="M269.414 129.227C268.935 129.304 268.757 130.003 268.815 130.311C269.095 130.389 269.414 130.118 269.734 130.427C269.794 130.416 269.515 130.144 269.503 130.069C269.461 129.811 269.534 129.49 269.534 129.227" fill="#1A1919"/>
<path d="M264.417 132.592C265.236 132.333 265.774 132.248 266.635 132.248Z" fill="#D4937F"/>
<path d="M264.417 132.592C265.236 132.333 265.774 132.248 266.635 132.248" stroke="#1A1919" stroke-width="2.267" stroke-linecap="round" stroke-linejoin="round"/>
<path d="M286.249 173.237C286.711 173.237 288.584 172.764 289.044 172.785Z" fill="#EFA89D"/>
<path d="M286.249 173.237C286.711 173.237 288.584 172.764 289.044 172.785" stroke="#1A1919" stroke-width="2.267" stroke-linecap="round" stroke-linejoin="round"/>
</svg>
