<svg width="251" height="250" viewBox="0 0 251 250" fill="none" xmlns="http://www.w3.org/2000/svg">
<path d="M49.7887 121.356H33.856C15.158 121.357 0 106.259 0 87.6351H15.9326C34.6307 87.6351 49.7887 102.733 49.7887 121.356Z" fill="#3D88BF"/>
<path d="M49.7887 121.357H33.856C15.158 121.357 0 136.454 0 155.078H15.9326C34.6307 155.078 49.7887 139.98 49.7887 121.357Z" fill="#3D88BF"/>
<path d="M37.3005 121.357C78.2145 93.6588 103.305 62.5929 152.776 62.5929C173.578 62.5929 194.324 65.2232 214.439 70.4114L205.461 100.506L112.41 110.792L37.3005 121.357Z" fill="#3D88BF"/>
<path d="M236.826 128.472H247.115C245.096 136.04 239.772 142.827 231.144 146.283C230.848 146.402 230.552 146.515 230.251 146.623C223.397 149.115 216.447 151.262 209.434 153.075C190.863 157.868 171.82 160.259 152.783 160.259C126.221 160.259 99.6535 155.602 74.3884 146.288C57.4956 140.062 41.1773 131.752 25.8317 121.362C80.6051 84.2779 147.664 73.7124 209.445 89.6428C216.452 91.45 223.403 93.597 230.257 96.0897C240.711 99.8967 246.558 108.485 247.798 117.634H247.707C241.7 117.634 236.826 122.489 236.826 128.472Z" fill="#79A5E6"/>
<path d="M231.143 146.283C230.848 146.402 230.552 146.515 230.25 146.623C223.397 149.115 216.446 151.262 209.433 153.075C190.862 157.868 171.82 160.259 152.783 160.259C126.221 160.259 99.653 155.602 74.3878 146.288C117.774 130.29 164.977 128.03 209.444 139.496C216.452 141.303 223.402 143.45 230.256 145.943C230.558 146.05 230.854 146.164 231.143 146.283Z" fill="#79A5E6"/>
<path d="M250.268 118V128.472C248.273 135.419 243.269 141.607 235.267 144.731C226.793 148.042 218.169 150.823 209.435 153.075C205.035 143.407 202.582 132.667 202.582 121.362C202.582 110.051 205.035 99.3177 209.442 89.6439C218.175 91.8952 226.8 94.6706 235.273 97.9813C244.551 101.605 249.065 109.717 250.268 118L247.5 120C242.794 126.864 250.268 112.016 250.268 118Z" fill="#3D88BF"/>
<path d="M219.825 129.27C225.716 129.27 230.491 124.514 230.491 118.647C230.491 112.779 225.716 108.023 219.825 108.023C213.935 108.023 209.159 112.779 209.159 118.647C209.159 124.514 213.935 129.27 219.825 129.27Z" fill="#3D88BF"/>
<path d="M219.825 125.146C223.429 125.146 226.351 122.236 226.351 118.647C226.351 115.057 223.429 112.147 219.825 112.147C216.221 112.147 213.3 115.057 213.3 118.647C213.3 122.236 216.221 125.146 219.825 125.146Z" fill="#4D4D4D"/>
<path d="M137.181 187.407C130.394 174.806 135.148 159.11 147.8 152.35L174.103 138.296C180.89 150.898 176.136 166.593 163.483 173.354L137.181 187.407Z" fill="#3D88BF"/>
</svg>
