<svg width="59" height="57" viewBox="0 0 59 57" fill="none" xmlns="http://www.w3.org/2000/svg">
<g clip-path="url(#clip0_11_1919)">
<path d="M29.4999 0C45.7932 0 59 12.7609 59 28.5001C59 44.2411 45.7932 57 29.4999 57C13.2066 57 0 44.2409 0 28.5001C0 12.7609 13.2068 0 29.4999 0Z" fill="#5B82BB"/>
<path d="M33.0917 19.6203H36.8936V14.1946H32.4244V14.2141C27.0092 14.3994 25.8994 17.3402 25.8016 20.429H25.7904V23.1383H22.103V28.4517H25.7904V42.6945H31.3476V28.4517H35.8998L36.7792 23.1383H31.3494V21.5014C31.3494 20.4575 32.0684 19.6203 33.0917 19.6203Z" fill="white"/>
</g>
<defs>
<clipPath id="clip0_11_1919">
<rect width="59" height="57" fill="white"/>
</clipPath>
</defs>
</svg>
