<svg width="58" height="57" viewBox="0 0 58 57" fill="none" xmlns="http://www.w3.org/2000/svg">
<g clip-path="url(#clip0_11_1915)">
<path d="M28.9999 0C45.0151 0 58 12.7609 58 28.5001C58 44.2393 45.0153 57 29.0001 57C12.9849 57 0 44.2391 0 28.5001C0 12.7611 12.9829 0 28.9999 0Z" fill="#5B82BB"/>
<path d="M39.0086 12.4653H18.9896C15.5114 12.4653 12.6839 15.2459 12.6839 18.6623V38.3381C12.6839 41.7563 15.5132 44.5351 18.9896 44.5351H39.0106C42.4887 44.5351 45.3163 41.7545 45.3163 38.3381V18.6623C45.3161 15.2459 42.4867 12.4653 39.0086 12.4653ZM40.9951 16.051L41.7093 16.0493V21.3717L36.2537 21.3895L36.2356 16.0671L40.9951 16.051ZM29.0001 23.135C33.5259 23.135 34.4593 27.3102 34.4593 28.5018C34.4593 31.4569 32.0088 33.8651 29.0001 33.8651C25.9896 33.8651 23.5409 31.4569 23.5409 28.5018C23.5389 27.3102 24.4743 23.135 29.0001 23.135ZM41.7401 37.9497C41.7401 39.6437 40.3391 41.0224 38.6118 41.0224H19.3267C17.6011 41.0224 16.1983 39.6455 16.1983 37.9497V24.9306H20.7295C20.309 25.9476 20.0715 27.337 20.0715 28.502C20.0715 33.3364 24.0735 37.2711 28.9945 37.2711C33.9155 37.2711 37.9155 33.3364 37.9155 28.502C37.9155 27.337 37.678 25.9476 37.2593 24.9306H41.7362V37.9497H41.7401Z" fill="white"/>
</g>
<defs>
<clipPath id="clip0_11_1915">
<rect width="58" height="57" fill="white"/>
</clipPath>
</defs>
</svg>
