<svg width="176" height="148" viewBox="0 0 176 148" fill="none" xmlns="http://www.w3.org/2000/svg">
<g clip-path="url(#clip0_5_975)">
<path d="M50.8963 72.0439L54.0688 82.4213H103.561L112.379 81.8039C116.441 78.4783 119.71 74.3867 122.028 69.9035C123.072 67.8852 123.928 65.7904 124.565 63.6448H39.0588L38.2657 65.3745C37.821 66.3441 37.8697 67.4965 38.3908 68.4194C38.9138 69.3424 39.8386 69.9035 40.8325 69.9035H48.1744C49.411 69.9035 50.5039 70.7633 50.8963 72.0439Z" fill="#6E6057"/>
<path d="M81.9615 82.4213H103.561L112.379 81.8039C116.441 78.4783 119.71 74.3867 122.028 69.9035C123.072 67.8852 123.928 65.7904 124.565 63.6448H81.9615V82.4213Z" fill="#615349"/>
<path d="M87.0881 14.4918C85.9785 15.7227 84.1614 15.7227 83.0329 14.4918C82.4972 13.9075 81.7703 13.5739 81.005 13.5739C79.4171 13.5739 78.1355 14.9716 78.1355 16.7034C78.1355 18.4351 76.8541 19.8328 75.266 19.8328C73.6781 19.8328 72.3965 18.4351 72.3965 16.7034C72.3965 14.7632 71.0382 14.0121 70.6176 13.8243C70.1966 13.6365 68.7429 13.1358 67.4993 14.492C66.3706 15.7229 64.5534 15.7021 63.444 14.492C62.3152 13.261 62.3152 11.2791 63.444 10.069C65.9499 7.33591 69.5271 6.54323 72.7983 8.02437C73.7166 8.44161 74.5582 9.02586 75.266 9.71432C76.7963 8.21219 78.8049 7.3151 81.0048 7.3151C83.3005 7.3151 85.4623 8.2956 87.088 10.069C88.2171 11.2787 88.2171 13.2607 87.0881 14.4918Z" fill="#CFD8E2"/>
<path d="M87.0881 14.4918C85.9785 15.7227 84.1614 15.7227 83.0329 14.4918C82.4972 13.9075 81.7703 13.5739 81.005 13.5739C79.4171 13.5739 78.1355 14.9716 78.1355 16.7034C78.1355 18.4351 76.8541 19.8329 75.266 19.8329V9.71416C76.7963 8.21202 78.8049 7.31494 81.0048 7.31494C83.3005 7.31494 85.4622 8.29543 87.0879 10.0688C88.2171 11.2787 88.2171 13.2607 87.0881 14.4918Z" fill="#EAF1F7"/>
<path d="M64.1326 27.0096C63.023 28.2405 61.206 28.2405 60.0773 27.0096C59.5416 26.4253 58.8148 26.0917 58.0495 26.0917C56.4616 26.0917 55.1799 27.4894 55.1799 29.2212C55.1799 30.9527 53.8985 32.3507 52.3104 32.3507C50.7224 32.3507 49.4409 30.9529 49.4409 29.2212C49.4409 27.281 48.0826 26.5299 47.6621 26.3421C47.241 26.1543 45.7873 25.6537 44.5437 27.0098C43.415 28.2407 41.5979 28.2199 40.4885 27.0098C39.3596 25.7789 39.3596 23.7969 40.4885 22.5868C42.9943 19.8537 46.5716 19.0611 49.8427 20.5422C50.761 20.9594 51.6027 21.5437 52.3104 22.2321C53.8407 20.73 55.8494 19.8329 58.0493 19.8329C60.3449 19.8329 62.5067 20.8134 64.1324 22.5868C65.2614 23.7965 65.2614 25.7785 64.1326 27.0096Z" fill="#CFD8E2"/>
<path d="M64.1326 27.0097C63.023 28.2406 61.206 28.2406 60.0773 27.0097C59.5416 26.4254 58.8148 26.0918 58.0495 26.0918C56.4616 26.0918 55.1799 27.4895 55.1799 29.2213C55.1799 30.9528 53.8985 32.3507 52.3104 32.3507V22.2322C53.8407 20.7301 55.8494 19.833 58.0493 19.833C60.3449 19.833 62.5067 20.8135 64.1324 22.5869C65.2614 23.7966 65.2614 25.7786 64.1326 27.0097Z" fill="#EAF1F7"/>
<path d="M111.613 57.3858H88.6568C87.0727 57.3858 85.7873 55.9851 85.7873 54.2563V29.221C85.7873 27.4923 87.0727 26.0916 88.6568 26.0916C93.1496 26.0916 97.4408 28.4315 100.135 32.3503L113.909 52.3789C114.56 53.3274 114.665 54.5956 114.179 55.6561C113.694 56.7166 112.7 57.3858 111.613 57.3858Z" fill="#EAF1F7"/>
<path d="M123.09 51.127H46.5714C45.4839 51.127 44.4902 51.7963 44.0045 52.8566L39.0588 63.6447L38.2657 65.3744C37.821 66.344 37.8697 67.4964 38.3908 68.4193C38.9138 69.3423 39.8386 69.9035 40.8325 69.9035H122.028C123.072 67.8851 123.928 65.7903 124.565 63.6447C125.476 60.5788 125.96 57.4176 125.96 54.2564C125.96 52.5277 124.675 51.127 123.09 51.127Z" fill="#78A8E2"/>
<path d="M123.09 51.127H81.9615V69.9035H122.028C123.072 67.8851 123.928 65.7903 124.565 63.6447C125.476 60.5788 125.96 57.4176 125.96 54.2564C125.96 52.5277 124.675 51.127 123.09 51.127Z" fill="#6B96C8"/>
<path d="M96.3164 88.68C91.2145 88.68 86.1107 86.9116 81.9616 83.3736C73.6709 90.4435 61.558 90.4435 53.267 83.3736C50.0314 86.1333 46.1232 87.9018 42.0244 88.4244C40.4458 88.618 39.0241 87.3976 38.8394 85.6801C38.6563 83.9635 39.7829 82.4091 41.3557 82.2083C45.0789 81.7326 48.5893 79.8796 51.2381 76.9895C52.3123 75.8159 54.2178 75.8139 55.2958 76.9895C61.8567 84.1448 73.3718 84.1448 79.9327 76.9895C81.0535 75.7672 82.8694 75.7672 83.9904 76.9895C90.5588 84.1498 102.07 84.153 108.627 76.9987C109.748 75.7764 111.564 75.7773 112.685 76.9975C115.317 79.8672 118.807 81.715 122.515 82.2008C124.09 82.4065 125.211 83.9652 125.022 85.6818C124.833 87.3974 123.397 88.6247 121.831 88.415C117.755 87.8802 113.871 86.1189 110.658 83.3817C106.514 86.9136 101.416 88.68 96.3164 88.68Z" fill="#A7E2E2"/>
<path d="M96.3164 88.68C101.416 88.68 106.515 86.9136 110.658 83.3817C113.871 86.1189 117.755 87.8804 121.831 88.415C123.397 88.6249 124.833 87.3974 125.022 85.6818C125.211 83.9652 124.09 82.4066 122.515 82.2008C118.807 81.715 115.317 79.8668 112.685 76.9975C111.565 75.7771 109.749 75.7762 108.628 76.9986C102.071 84.153 90.559 84.1498 83.9907 76.9895C83.4302 76.3782 82.696 76.0725 81.962 76.0725V83.3734C86.1107 86.9115 91.2145 88.68 96.3164 88.68Z" fill="#8AC8C8"/>
</g>
<path d="M23.344 133.6C23.2373 133.573 23.164 133.513 23.124 133.42C23.0973 133.313 23.0707 133.213 23.044 133.12C23.0173 133.027 23.004 132.933 23.004 132.84V132.72C23.0173 132.587 23.0107 132.453 22.984 132.32C22.9573 132.2 22.9373 132.073 22.924 131.94C22.924 131.887 22.9173 131.847 22.904 131.82L22.684 131.4C22.6573 131.373 22.6173 131.32 22.564 131.24C22.524 131.147 22.4773 131.067 22.424 131C22.384 130.92 22.3373 130.84 22.284 130.76C22.2573 130.707 22.224 130.66 22.184 130.62C22.144 130.58 22.104 130.533 22.064 130.48C22.0373 130.44 22.0107 130.393 21.984 130.34C21.9573 130.287 21.9173 130.24 21.864 130.2L21.804 130.1C21.7507 130.007 21.6973 129.92 21.644 129.84C21.604 129.76 21.564 129.68 21.524 129.6L21.464 129.48C21.4107 129.307 21.3507 129.14 21.284 128.98C21.2307 128.82 21.1707 128.653 21.104 128.48C21.064 128.373 21.024 128.273 20.984 128.18C20.9573 128.087 20.9173 127.993 20.864 127.9C20.7707 127.7 20.7107 127.487 20.684 127.26C20.6707 127.1 20.684 126.933 20.724 126.76C20.764 126.653 20.824 126.56 20.904 126.48C21.1573 126.267 21.4373 126.187 21.744 126.24L21.964 126.28C22.124 126.347 22.2373 126.44 22.304 126.56C22.3573 126.653 22.404 126.753 22.444 126.86C22.484 126.953 22.5107 127.06 22.524 127.18C22.5507 127.26 22.5773 127.347 22.604 127.44C22.6307 127.52 22.664 127.607 22.704 127.7C22.7707 127.847 22.844 127.993 22.924 128.14C22.9907 128.26 23.0707 128.36 23.164 128.44C23.2307 128.493 23.304 128.553 23.384 128.62C23.464 128.687 23.5373 128.753 23.604 128.82L24.024 129.24C24.0507 129.253 24.0707 129.273 24.084 129.3C24.1107 129.327 24.1307 129.353 24.144 129.38C24.184 129.407 24.2307 129.413 24.284 129.4C24.4173 129.36 24.5507 129.287 24.684 129.18C24.8973 129.007 25.0707 128.827 25.204 128.64C25.3373 128.453 25.424 128.233 25.464 127.98C25.4907 127.753 25.424 127.553 25.264 127.38C25.2373 127.327 25.1973 127.293 25.144 127.28C25.0507 127.227 24.9573 127.18 24.864 127.14C24.784 127.087 24.6907 127.047 24.584 127.02C24.4773 126.98 24.384 126.92 24.304 126.84C24.2507 126.773 24.1707 126.733 24.064 126.72C23.9707 126.693 23.884 126.66 23.804 126.62C23.724 126.58 23.6507 126.533 23.584 126.48C23.504 126.413 23.424 126.36 23.344 126.32C23.264 126.267 23.184 126.213 23.104 126.16C23.024 126.12 22.944 126.073 22.864 126.02C22.7973 125.967 22.7307 125.913 22.664 125.86C22.5707 125.793 22.484 125.727 22.404 125.66C22.324 125.58 22.244 125.507 22.164 125.44C22.1107 125.413 22.0773 125.387 22.064 125.36C21.9973 125.28 21.924 125.207 21.844 125.14C21.7773 125.06 21.7107 124.973 21.644 124.88C21.604 124.827 21.564 124.78 21.524 124.74C21.484 124.687 21.4373 124.633 21.384 124.58C21.3307 124.527 21.2773 124.473 21.224 124.42C21.184 124.353 21.1507 124.287 21.124 124.22L20.944 123.92C20.8773 123.787 20.8173 123.653 20.764 123.52C20.7107 123.387 20.6507 123.253 20.584 123.12C20.5307 122.973 20.4773 122.827 20.424 122.68C20.384 122.533 20.3507 122.387 20.324 122.24C20.3107 122.133 20.2907 122.033 20.264 121.94C20.2507 121.847 20.2373 121.753 20.224 121.66C20.2107 121.513 20.204 121.373 20.204 121.24C20.204 121.093 20.1973 120.947 20.184 120.8C20.184 120.627 20.1973 120.453 20.224 120.28C20.2507 120.107 20.284 119.933 20.324 119.76C20.3507 119.653 20.3773 119.547 20.404 119.44C20.4307 119.333 20.4573 119.233 20.484 119.14C20.5107 119.073 20.5373 119.013 20.564 118.96C20.5907 118.893 20.6107 118.833 20.624 118.78C20.7307 118.5 20.884 118.22 21.084 117.94C21.1507 117.847 21.2173 117.76 21.284 117.68C21.364 117.587 21.444 117.5 21.524 117.42C21.5907 117.353 21.6573 117.28 21.724 117.2C21.7907 117.12 21.8507 117.04 21.904 116.96C22.0773 116.733 22.2773 116.567 22.504 116.46C22.7307 116.34 22.9907 116.293 23.284 116.32C23.644 116.373 23.984 116.513 24.304 116.74C24.4107 116.82 24.5173 116.907 24.624 117C24.744 117.08 24.8573 117.167 24.964 117.26C25.2307 117.473 25.4507 117.713 25.624 117.98C25.704 118.1 25.784 118.22 25.864 118.34C25.944 118.46 26.0173 118.58 26.084 118.7C26.124 118.753 26.1573 118.807 26.184 118.86C26.2107 118.913 26.2307 118.973 26.244 119.04C26.2707 119.16 26.2773 119.28 26.264 119.4C26.264 119.507 26.2507 119.62 26.224 119.74L26.164 119.9C26.124 119.967 26.084 120.04 26.044 120.12C26.004 120.2 25.964 120.273 25.924 120.34C25.8973 120.393 25.864 120.447 25.824 120.5C25.7973 120.54 25.7707 120.58 25.744 120.62C25.6373 120.793 25.584 120.967 25.584 121.14V123.08C25.584 123.347 25.544 123.6 25.464 123.84C25.464 123.853 25.4573 123.867 25.444 123.88C25.444 123.88 25.444 123.893 25.444 123.92C25.444 123.987 25.464 124.04 25.504 124.08L25.684 124.2C25.8307 124.293 25.964 124.4 26.084 124.52C26.2173 124.627 26.3507 124.733 26.484 124.84C26.564 124.907 26.6373 124.987 26.704 125.08C26.7707 125.16 26.8307 125.24 26.884 125.32C26.9373 125.387 26.984 125.46 27.024 125.54C27.064 125.607 27.104 125.673 27.144 125.74C27.2107 125.833 27.2573 125.94 27.284 126.06C27.324 126.18 27.3573 126.3 27.384 126.42V126.5C27.3707 126.593 27.3707 126.693 27.384 126.8C27.3973 126.907 27.4107 127.013 27.424 127.12C27.424 127.147 27.424 127.18 27.424 127.22C27.4373 127.247 27.4373 127.28 27.424 127.32L27.364 127.74C27.3373 127.807 27.3507 127.847 27.404 127.86C27.444 127.86 27.464 127.873 27.464 127.9C27.504 127.913 27.5107 127.947 27.484 128C27.4573 128.053 27.424 128.067 27.384 128.04C27.384 128.027 27.3773 128.02 27.364 128.02C27.324 128.007 27.2973 128.013 27.284 128.04C27.2707 128.08 27.2573 128.12 27.244 128.16C27.244 128.2 27.244 128.247 27.244 128.3C27.1907 128.38 27.1773 128.447 27.204 128.5C27.204 128.54 27.1973 128.567 27.184 128.58C27.144 128.62 27.1307 128.673 27.144 128.74C27.144 128.767 27.124 128.793 27.084 128.82C27.004 128.86 26.944 128.933 26.904 129.04C26.8373 129.213 26.7573 129.38 26.664 129.54C26.584 129.687 26.4907 129.833 26.384 129.98C26.2773 130.127 26.164 130.273 26.044 130.42C25.9373 130.553 25.8107 130.68 25.664 130.8C25.544 130.893 25.4173 130.98 25.284 131.06C25.1507 131.153 25.0107 131.233 24.864 131.3C24.8107 131.313 24.7573 131.34 24.704 131.38L24.464 131.5C24.3573 131.513 24.2507 131.567 24.144 131.66L24.024 131.74C23.984 131.78 23.9507 131.847 23.924 131.94V132.48C23.924 132.533 23.924 132.587 23.924 132.64C23.924 132.693 23.9173 132.747 23.904 132.8C23.8907 132.827 23.884 132.86 23.884 132.9C23.884 132.94 23.8773 132.973 23.864 133C23.8507 133.053 23.8373 133.107 23.824 133.16C23.8107 133.227 23.7907 133.293 23.764 133.36C23.6973 133.547 23.5573 133.627 23.344 133.6ZM24.564 123.56C24.6173 123.56 24.6507 123.54 24.664 123.5C24.6773 123.433 24.6773 123.367 24.664 123.3C24.664 123.233 24.6573 123.173 24.644 123.12C24.6307 123.053 24.624 122.987 24.624 122.92C24.624 122.84 24.6173 122.767 24.604 122.7C24.604 122.62 24.5973 122.54 24.584 122.46C24.5707 122.38 24.5707 122.3 24.584 122.22C24.5973 122.207 24.5973 122.2 24.584 122.2C24.584 122.187 24.584 122.18 24.584 122.18C24.5707 122.087 24.564 122 24.564 121.92C24.564 121.84 24.564 121.76 24.564 121.68C24.564 121.413 24.5107 121.153 24.404 120.9C24.3107 120.687 24.2107 120.48 24.104 120.28C24.0107 120.08 23.9107 119.88 23.804 119.68C23.764 119.6 23.7107 119.527 23.644 119.46C23.5907 119.38 23.5307 119.307 23.464 119.24C23.4107 119.16 23.3373 119.147 23.244 119.2C23.164 119.213 23.0773 119.267 22.984 119.36C22.904 119.453 22.8307 119.553 22.764 119.66C22.6973 119.767 22.6373 119.88 22.584 120C22.5707 120.04 22.5573 120.08 22.544 120.12C22.5307 120.16 22.5173 120.193 22.504 120.22C22.4907 120.313 22.4773 120.413 22.464 120.52C22.464 120.613 22.464 120.713 22.464 120.82V121.08C22.464 121.267 22.5173 121.467 22.624 121.68C22.7173 121.88 22.8507 122.08 23.024 122.28C23.064 122.333 23.104 122.387 23.144 122.44C23.184 122.48 23.224 122.533 23.264 122.6C23.384 122.76 23.5173 122.9 23.664 123.02C23.824 123.14 23.9907 123.253 24.164 123.36L24.464 123.52C24.4907 123.533 24.5107 123.54 24.524 123.54C24.5373 123.54 24.5507 123.547 24.564 123.56ZM38.5665 132.46C38.4465 132.46 38.3398 132.413 38.2465 132.32C38.2198 132.28 38.1932 132.24 38.1665 132.2C38.1398 132.16 38.1132 132.12 38.0865 132.08C37.9665 131.8 37.9065 131.507 37.9065 131.2L37.8465 130.72C37.8065 130.533 37.7732 130.347 37.7465 130.16C37.7198 129.973 37.6732 129.793 37.6065 129.62L37.4865 129.28C37.4865 129.253 37.4798 129.227 37.4665 129.2C37.4665 129.173 37.4598 129.147 37.4465 129.12L37.1465 128.06C37.1332 128.033 37.1198 128 37.1065 127.96C37.1065 127.92 37.0932 127.887 37.0665 127.86C37.0265 127.78 36.9932 127.7 36.9665 127.62C36.9532 127.527 36.9332 127.433 36.9065 127.34C36.8932 127.273 36.8798 127.213 36.8665 127.16C36.8532 127.093 36.8332 127.027 36.8065 126.96C36.7798 126.88 36.7532 126.833 36.7265 126.82C36.6998 126.793 36.6398 126.793 36.5465 126.82C36.4798 126.833 36.4065 126.847 36.3265 126.86C36.2598 126.86 36.1932 126.873 36.1265 126.9C36.0732 126.913 36.0065 126.927 35.9265 126.94C35.8598 126.94 35.7932 126.947 35.7265 126.96L35.4465 127.02C35.3798 127.033 35.3065 127.053 35.2265 127.08C35.1598 127.093 35.0932 127.1 35.0265 127.1L34.6665 127.16C34.5598 127.187 34.4465 127.213 34.3265 127.24C34.2065 127.267 34.0932 127.293 33.9865 127.32C33.6665 127.4 33.3465 127.46 33.0265 127.5C32.9198 127.527 32.8598 127.573 32.8465 127.64C32.8332 127.64 32.8265 127.647 32.8265 127.66C32.7465 127.873 32.6532 128.087 32.5465 128.3C32.4532 128.5 32.3532 128.707 32.2465 128.92C32.2198 128.973 32.1932 129.027 32.1665 129.08C32.1532 129.12 32.1332 129.167 32.1065 129.22C32.0932 129.247 32.0798 129.28 32.0665 129.32C32.0532 129.347 32.0398 129.373 32.0265 129.4C31.9465 129.493 31.9065 129.607 31.9065 129.74C31.8932 129.82 31.8665 129.9 31.8265 129.98C31.7865 130.047 31.7465 130.113 31.7065 130.18C31.6932 130.22 31.6665 130.24 31.6265 130.24C31.5732 130.253 31.5198 130.273 31.4665 130.3C31.4132 130.327 31.3532 130.353 31.2865 130.38C31.2465 130.393 31.2065 130.393 31.1665 130.38C31.1398 130.367 31.1065 130.353 31.0665 130.34C31.0398 130.313 31.0132 130.3 30.9865 130.3C30.8398 130.287 30.7332 130.2 30.6665 130.04C30.5598 129.827 30.4865 129.613 30.4465 129.4C30.4332 129.347 30.4332 129.3 30.4465 129.26C30.4732 129.22 30.4932 129.18 30.5065 129.14C30.5865 129.087 30.6332 129.027 30.6465 128.96V128.94C30.6465 128.767 30.6798 128.607 30.7465 128.46C30.8265 128.3 30.8932 128.147 30.9465 128C30.9732 127.92 31.0065 127.84 31.0465 127.76C31.0865 127.68 31.1265 127.6 31.1665 127.52C31.2198 127.427 31.2598 127.34 31.2865 127.26C31.3265 127.167 31.3598 127.073 31.3865 126.98C31.4265 126.873 31.4265 126.773 31.3865 126.68C31.3598 126.6 31.3465 126.527 31.3465 126.46C31.3465 126.38 31.3532 126.3 31.3665 126.22C31.3665 126.073 31.4198 125.947 31.5265 125.84C31.5798 125.773 31.6332 125.72 31.6865 125.68C31.7532 125.627 31.8132 125.573 31.8665 125.52C31.9865 125.4 32.0798 125.24 32.1465 125.04C32.1998 124.867 32.2398 124.693 32.2665 124.52C32.3065 124.333 32.3465 124.153 32.3865 123.98C32.4132 123.807 32.4398 123.64 32.4665 123.48C32.5065 123.307 32.5465 123.14 32.5865 122.98C32.5998 122.913 32.6132 122.853 32.6265 122.8C32.6532 122.733 32.6732 122.673 32.6865 122.62C32.7265 122.513 32.7665 122.413 32.8065 122.32C32.8465 122.213 32.8732 122.107 32.8865 122C32.9132 121.947 32.9132 121.9 32.8865 121.86C32.8732 121.793 32.8732 121.733 32.8865 121.68C32.9132 121.627 32.9332 121.573 32.9465 121.52C32.9865 121.427 33.0132 121.333 33.0265 121.24C33.0532 121.147 33.0865 121.053 33.1265 120.96C33.1932 120.787 33.2465 120.647 33.2865 120.54C33.3398 120.42 33.3865 120.287 33.4265 120.14C33.4532 120.06 33.4798 119.987 33.5065 119.92C33.5465 119.84 33.5732 119.76 33.5865 119.68C33.6265 119.56 33.6598 119.44 33.6865 119.32C33.7132 119.187 33.7265 119.06 33.7265 118.94C33.7532 118.833 33.7798 118.76 33.8065 118.72C33.8732 118.587 33.9532 118.473 34.0465 118.38C34.1532 118.287 34.2532 118.193 34.3465 118.1C34.4132 118.06 34.4798 118.033 34.5465 118.02C34.6132 117.993 34.6798 118 34.7465 118.04C34.7998 118.067 34.8332 118.08 34.8465 118.08C34.9665 118.067 35.0665 118.093 35.1465 118.16C35.2265 118.227 35.2932 118.307 35.3465 118.4C35.3732 118.427 35.3932 118.46 35.4065 118.5C35.4198 118.54 35.4332 118.573 35.4465 118.6C35.5132 118.707 35.5465 118.813 35.5465 118.92C35.5465 118.973 35.5532 119.033 35.5665 119.1C35.5798 119.153 35.5932 119.213 35.6065 119.28C35.6465 119.36 35.7065 119.4 35.7865 119.4C35.7998 119.387 35.8132 119.387 35.8265 119.4C35.8398 119.413 35.8465 119.427 35.8465 119.44C35.9132 119.52 35.9332 119.607 35.9065 119.7C35.8798 119.807 35.8732 119.913 35.8865 120.02C35.9132 120.113 35.9398 120.213 35.9665 120.32C36.0198 120.453 36.0732 120.587 36.1265 120.72C36.1798 120.853 36.2332 120.987 36.2865 121.12C36.3532 121.267 36.4198 121.413 36.4865 121.56C36.5532 121.707 36.6132 121.853 36.6665 122C36.7332 122.187 36.7998 122.373 36.8665 122.56C36.9465 122.747 37.0332 122.933 37.1265 123.12L37.1865 123.34C37.1998 123.393 37.2132 123.447 37.2265 123.5C37.2532 123.553 37.2732 123.607 37.2865 123.66C37.3132 123.7 37.3332 123.74 37.3465 123.78C37.3732 123.82 37.3998 123.853 37.4265 123.88C37.4932 123.973 37.5332 124.073 37.5465 124.18C37.5865 124.313 37.6465 124.433 37.7265 124.54C37.7532 124.58 37.7932 124.6 37.8465 124.6C38.0465 124.573 38.2465 124.553 38.4465 124.54C38.6465 124.513 38.8465 124.473 39.0465 124.42C39.1932 124.38 39.3332 124.36 39.4665 124.36C39.7198 124.36 39.9532 124.447 40.1665 124.62C40.4198 124.82 40.5532 125.073 40.5665 125.38C40.5665 125.447 40.5732 125.5 40.5865 125.54C40.5865 125.633 40.5598 125.707 40.5065 125.76C40.4932 125.8 40.4665 125.84 40.4265 125.88C40.3998 125.92 40.3732 125.96 40.3465 126C40.3198 126.053 40.2932 126.093 40.2665 126.12L40.1465 126.22C40.1332 126.247 40.1132 126.28 40.0865 126.32C40.0598 126.347 40.0265 126.367 39.9865 126.38C39.9332 126.393 39.8798 126.413 39.8265 126.44C39.7732 126.453 39.7132 126.46 39.6465 126.46C39.4065 126.487 39.1932 126.48 39.0065 126.44H38.6865C38.6598 126.44 38.6198 126.453 38.5665 126.48C38.5132 126.507 38.4865 126.54 38.4865 126.58V126.66C38.5265 126.78 38.5532 126.907 38.5665 127.04C38.5932 127.16 38.6332 127.273 38.6865 127.38C38.6865 127.433 38.6998 127.487 38.7265 127.54C38.7932 127.66 38.8465 127.787 38.8865 127.92C38.9265 128.04 38.9598 128.167 38.9865 128.3C38.9865 128.327 38.9998 128.38 39.0265 128.46C39.0665 128.553 39.0998 128.653 39.1265 128.76C39.1532 128.853 39.1732 128.953 39.1865 129.06C39.1865 129.14 39.2065 129.213 39.2465 129.28C39.2998 129.4 39.3398 129.52 39.3665 129.64C39.3932 129.76 39.4132 129.887 39.4265 130.02C39.4398 130.033 39.4465 130.06 39.4465 130.1C39.4465 130.127 39.4532 130.153 39.4665 130.18C39.5332 130.327 39.5798 130.487 39.6065 130.66C39.6332 130.82 39.6665 130.98 39.7065 131.14C39.7332 131.22 39.7465 131.3 39.7465 131.38C39.7598 131.473 39.7665 131.567 39.7665 131.66C39.7665 131.727 39.7465 131.8 39.7065 131.88C39.6665 131.92 39.6465 131.94 39.6465 131.94C39.5665 131.953 39.5198 132 39.5065 132.08L39.4465 132.2C39.4198 132.253 39.3798 132.287 39.3265 132.3C39.2732 132.3 39.2265 132.32 39.1865 132.36C39.1332 132.413 39.0598 132.44 38.9665 132.44C38.9132 132.44 38.8465 132.44 38.7665 132.44C38.6998 132.44 38.6332 132.447 38.5665 132.46ZM33.7465 125.2C33.8265 125.187 33.9065 125.173 33.9865 125.16C34.0798 125.147 34.1798 125.133 34.2865 125.12C34.3532 125.107 34.4398 125.093 34.5465 125.08C34.6532 125.067 34.7532 125.053 34.8465 125.04C34.9398 125.013 35.0332 125 35.1265 125C35.2198 124.987 35.3132 124.973 35.4065 124.96C35.4865 124.933 35.5665 124.92 35.6465 124.92C35.7265 124.907 35.8065 124.893 35.8865 124.88C36.0065 124.853 36.0532 124.787 36.0265 124.68C36.0132 124.573 35.9865 124.467 35.9465 124.36C35.9198 124.24 35.8598 124.14 35.7665 124.06C35.7398 124.033 35.7265 123.993 35.7265 123.94V123.88C35.6998 123.773 35.6665 123.673 35.6265 123.58C35.5998 123.473 35.5665 123.373 35.5265 123.28C35.4998 123.173 35.4665 123.08 35.4265 123C35.3998 122.907 35.3665 122.813 35.3265 122.72L35.0865 122C35.0465 121.907 35.0065 121.813 34.9665 121.72C34.9398 121.627 34.9132 121.533 34.8865 121.44L34.8265 121.36H34.7665L34.7265 121.42C34.6598 121.62 34.5798 121.82 34.4865 122.02C34.4065 122.22 34.3332 122.433 34.2665 122.66C34.2665 122.687 34.2598 122.72 34.2465 122.76C34.2332 122.8 34.2198 122.84 34.2065 122.88C34.1532 123.013 34.0998 123.16 34.0465 123.32C34.0065 123.48 33.9732 123.64 33.9465 123.8C33.9332 123.893 33.9198 123.987 33.9065 124.08C33.8932 124.16 33.8732 124.247 33.8465 124.34L33.6665 125.12C33.6532 125.133 33.6598 125.153 33.6865 125.18C33.7132 125.193 33.7332 125.2 33.7465 125.2ZM44.9457 131.2C44.8657 131.2 44.8124 131.193 44.7857 131.18C44.7324 131.153 44.6857 131.133 44.6457 131.12C44.6057 131.107 44.5657 131.093 44.5257 131.08C44.4857 131.053 44.4457 131.027 44.4057 131C44.379 130.96 44.3524 130.92 44.3257 130.88C44.299 130.853 44.2724 130.84 44.2457 130.84C44.1657 130.84 44.1257 130.8 44.1257 130.72C44.1124 130.64 44.099 130.56 44.0857 130.48C44.0724 130.4 44.059 130.32 44.0457 130.24C44.0324 130.12 44.019 130 44.0057 129.88C44.0057 129.76 43.9924 129.647 43.9657 129.54V129.36C43.9657 129.307 43.959 129.26 43.9457 129.22C43.9457 129.18 43.9457 129.133 43.9457 129.08C43.919 129.013 43.919 128.96 43.9457 128.92C43.9724 128.68 43.9724 128.44 43.9457 128.2C43.9324 128.133 43.9257 128.067 43.9257 128C43.9257 127.933 43.919 127.867 43.9057 127.8C43.9057 127.667 43.9057 127.533 43.9057 127.4C43.9057 127.253 43.8924 127.113 43.8657 126.98V126.66C43.8657 126.553 43.859 126.453 43.8457 126.36C43.8457 126.267 43.839 126.173 43.8257 126.08C43.8124 125.96 43.799 125.84 43.7857 125.72C43.7857 125.6 43.779 125.48 43.7657 125.36C43.7524 125.333 43.7457 125.287 43.7457 125.22C43.7324 125.153 43.719 125.087 43.7057 125.02C43.7057 124.94 43.7057 124.867 43.7057 124.8L43.6457 123.8C43.6324 123.693 43.619 123.593 43.6057 123.5C43.6057 123.393 43.6057 123.293 43.6057 123.2C43.5924 123.04 43.579 122.88 43.5657 122.72C43.5524 122.56 43.539 122.407 43.5257 122.26C43.5257 122.233 43.519 122.207 43.5057 122.18C43.5057 122.153 43.5057 122.133 43.5057 122.12C43.5057 121.96 43.499 121.8 43.4857 121.64C43.4724 121.48 43.459 121.313 43.4457 121.14L43.3857 120.58C43.3457 120.367 43.339 120.133 43.3657 119.88C43.3657 119.76 43.4124 119.66 43.5057 119.58C43.5324 119.553 43.5524 119.54 43.5657 119.54C43.579 119.527 43.5924 119.513 43.6057 119.5C43.6724 119.487 43.7057 119.44 43.7057 119.36C43.7057 119.333 43.7324 119.32 43.7857 119.32H43.8857C43.899 119.32 43.9057 119.32 43.9057 119.32C43.919 119.307 43.9324 119.3 43.9457 119.3C43.9724 119.287 43.9924 119.273 44.0057 119.26C44.0324 119.233 44.0524 119.22 44.0657 119.22C44.0924 119.22 44.119 119.227 44.1457 119.24C44.1724 119.24 44.199 119.247 44.2257 119.26C44.2524 119.26 44.2724 119.253 44.2857 119.24C44.3524 119.227 44.419 119.233 44.4857 119.26C44.5657 119.273 44.6324 119.293 44.6857 119.32C44.7657 119.333 44.8257 119.387 44.8657 119.48C44.9057 119.6 44.939 119.72 44.9657 119.84C45.0057 119.947 45.0324 120.06 45.0457 120.18V120.34C45.0724 120.433 45.0857 120.533 45.0857 120.64C45.0857 120.733 45.0857 120.833 45.0857 120.94C45.0857 121.033 45.0857 121.127 45.0857 121.22C45.099 121.3 45.1124 121.38 45.1257 121.46C45.1257 121.5 45.1257 121.54 45.1257 121.58C45.1257 121.62 45.1324 121.66 45.1457 121.7C45.1457 121.78 45.1457 121.86 45.1457 121.94C45.159 122.02 45.1724 122.107 45.1857 122.2C45.199 122.347 45.2124 122.5 45.2257 122.66C45.239 122.82 45.2457 122.98 45.2457 123.14C45.2457 123.207 45.2457 123.28 45.2457 123.36C45.2457 123.427 45.2524 123.493 45.2657 123.56C45.279 123.6 45.2857 123.64 45.2857 123.68C45.2857 123.72 45.2857 123.76 45.2857 123.8V124.2C45.2857 124.28 45.2924 124.347 45.3057 124.4C45.3324 124.493 45.339 124.587 45.3257 124.68C45.3257 124.76 45.3324 124.847 45.3457 124.94L45.4057 125.86C45.419 125.993 45.4257 126.133 45.4257 126.28C45.439 126.413 45.4457 126.553 45.4457 126.7C45.4457 126.753 45.4457 126.813 45.4457 126.88C45.4457 126.933 45.4524 126.987 45.4657 127.04C45.479 127.08 45.4857 127.12 45.4857 127.16C45.4857 127.2 45.4857 127.24 45.4857 127.28C45.499 127.293 45.499 127.32 45.4857 127.36C45.4857 127.387 45.4924 127.413 45.5057 127.44C45.5324 127.533 45.5457 127.627 45.5457 127.72C45.5457 127.813 45.5457 127.913 45.5457 128.02C45.5457 128.073 45.5457 128.133 45.5457 128.2C45.559 128.253 45.5657 128.313 45.5657 128.38C45.579 128.447 45.5857 128.52 45.5857 128.6C45.5857 128.68 45.5857 128.753 45.5857 128.82C45.599 128.887 45.6057 128.96 45.6057 129.04C45.6057 129.107 45.6124 129.173 45.6257 129.24C45.639 129.267 45.6457 129.293 45.6457 129.32C45.6457 129.467 45.659 129.613 45.6857 129.76C45.7124 129.907 45.739 130.053 45.7657 130.2C45.779 130.24 45.7857 130.287 45.7857 130.34C45.7857 130.38 45.7857 130.42 45.7857 130.46C45.7857 130.5 45.7724 130.533 45.7457 130.56C45.6924 130.6 45.6524 130.68 45.6257 130.8C45.6257 130.84 45.6057 130.873 45.5657 130.9C45.4724 130.94 45.3924 130.993 45.3257 131.06C45.219 131.153 45.0924 131.2 44.9457 131.2ZM50.8313 131.06C50.7247 131.1 50.6047 131.087 50.4713 131.02L50.0713 130.84C50.0047 130.813 49.9513 130.753 49.9113 130.66L49.8513 130.54C49.8247 130.473 49.7913 130.427 49.7513 130.4C49.6847 130.347 49.638 130.253 49.6113 130.12C49.5847 129.987 49.5647 129.853 49.5513 129.72C49.538 129.587 49.5247 129.453 49.5113 129.32C49.498 129.213 49.4913 129.107 49.4913 129C49.4913 128.893 49.4913 128.793 49.4913 128.7L49.5113 128.56C49.538 128.493 49.5513 128.427 49.5513 128.36C49.5513 128.293 49.5513 128.233 49.5513 128.18V124.54C49.578 124.353 49.5913 124.167 49.5913 123.98C49.5913 123.78 49.5913 123.587 49.5913 123.4C49.6047 123.213 49.6113 123.033 49.6113 122.86C49.6113 122.673 49.598 122.493 49.5713 122.32C49.558 122.253 49.5513 122.18 49.5513 122.1C49.5513 122.02 49.5513 121.94 49.5513 121.86C49.5513 121.74 49.5513 121.62 49.5513 121.5C49.5513 121.38 49.538 121.26 49.5113 121.14V121.08C49.5113 120.893 49.498 120.713 49.4713 120.54C49.458 120.353 49.4447 120.173 49.4313 120C49.418 119.893 49.4047 119.793 49.3913 119.7C49.378 119.607 49.358 119.513 49.3313 119.42C49.318 119.367 49.3113 119.313 49.3113 119.26C49.3113 119.207 49.3113 119.153 49.3113 119.1C49.3113 119.007 49.3247 118.92 49.3513 118.84C49.378 118.747 49.4047 118.66 49.4313 118.58C49.4447 118.553 49.478 118.513 49.5313 118.46C49.558 118.433 49.5847 118.413 49.6113 118.4C49.638 118.387 49.658 118.373 49.6713 118.36C49.7513 118.253 49.858 118.207 49.9913 118.22C50.018 118.233 50.058 118.227 50.1113 118.2C50.178 118.147 50.238 118.14 50.2913 118.18C50.3313 118.207 50.398 118.207 50.4913 118.18C50.5313 118.18 50.5647 118.193 50.5913 118.22C50.6313 118.273 50.6847 118.313 50.7513 118.34C50.818 118.367 50.8647 118.407 50.8913 118.46C50.9313 118.5 50.9713 118.54 51.0113 118.58C51.038 118.62 51.0647 118.66 51.0913 118.7C51.1313 118.727 51.1513 118.767 51.1513 118.82C51.1647 118.873 51.1647 118.927 51.1513 118.98C51.1513 119.02 51.1513 119.067 51.1513 119.12C51.1513 119.24 51.158 119.367 51.1713 119.5C51.198 119.62 51.218 119.74 51.2313 119.86C51.258 119.993 51.278 120.133 51.2913 120.28C51.3047 120.413 51.318 120.553 51.3313 120.7V120.9C51.358 120.993 51.3713 121.087 51.3713 121.18C51.3713 121.273 51.378 121.367 51.3913 121.46V121.48C51.4047 121.64 51.418 121.8 51.4313 121.96C51.4447 122.12 51.458 122.28 51.4713 122.44C51.4847 122.507 51.4913 122.58 51.4913 122.66C51.4913 122.727 51.4913 122.793 51.4913 122.86V128.18C51.4913 128.3 51.498 128.42 51.5113 128.54C51.538 128.66 51.558 128.773 51.5713 128.88C51.5713 128.947 51.6113 128.98 51.6913 128.98C51.8113 129.007 51.9247 129.007 52.0313 128.98C52.178 128.953 52.318 128.94 52.4513 128.94C52.598 128.94 52.7447 128.94 52.8913 128.94C53.038 128.94 53.178 128.94 53.3113 128.94C53.458 128.927 53.598 128.913 53.7313 128.9H53.9513C54.058 128.913 54.1513 128.927 54.2313 128.94C54.3247 128.94 54.418 128.94 54.5113 128.94C54.658 128.94 54.8047 128.947 54.9513 128.96C55.1113 128.96 55.2647 128.967 55.4113 128.98C55.518 128.993 55.6247 129 55.7313 129C55.8513 129 55.9713 129 56.0913 129H56.1913C56.458 128.987 56.698 129.053 56.9113 129.2C57.0047 129.24 57.0713 129.307 57.1113 129.4C57.138 129.453 57.158 129.507 57.1713 129.56C57.198 129.6 57.218 129.653 57.2313 129.72C57.2447 129.773 57.2513 129.827 57.2513 129.88C57.2647 129.92 57.278 129.967 57.2913 130.02C57.3313 130.14 57.318 130.273 57.2513 130.42C57.238 130.46 57.2247 130.5 57.2113 130.54C57.198 130.58 57.178 130.62 57.1513 130.66C57.1247 130.7 57.0913 130.733 57.0513 130.76C57.0513 130.76 57.0247 130.773 56.9713 130.8C56.8647 130.893 56.7447 130.953 56.6113 130.98C56.4913 131.007 56.358 131.033 56.2113 131.06L56.0113 131.04C55.8113 130.973 55.6113 130.933 55.4113 130.92C55.358 130.907 55.298 130.9 55.2313 130.9C55.1647 130.887 55.098 130.88 55.0313 130.88C54.938 130.88 54.8447 130.88 54.7513 130.88C54.658 130.867 54.558 130.853 54.4513 130.84L54.2513 130.82C54.1313 130.833 54.0113 130.84 53.8913 130.84C53.7713 130.827 53.6513 130.827 53.5313 130.84C53.478 130.84 53.4247 130.84 53.3713 130.84C53.318 130.827 53.2647 130.82 53.2113 130.82C53.1047 130.82 52.998 130.82 52.8913 130.82C52.798 130.82 52.698 130.833 52.5913 130.86C52.538 130.873 52.4713 130.887 52.3913 130.9C52.3247 130.9 52.258 130.9 52.1913 130.9C51.9913 130.913 51.7913 130.933 51.5913 130.96C51.3913 130.973 51.198 131 51.0113 131.04C50.9713 131.053 50.9113 131.06 50.8313 131.06ZM64.244 131.4C64.1107 131.387 63.9773 131.367 63.844 131.34C63.724 131.327 63.604 131.293 63.484 131.24L62.984 131.06C62.8107 130.993 62.6507 130.92 62.504 130.84C62.3573 130.747 62.2107 130.653 62.064 130.56C61.9973 130.493 61.9307 130.433 61.864 130.38C61.7973 130.313 61.7307 130.253 61.664 130.2C61.5573 130.093 61.4507 129.987 61.344 129.88C61.2373 129.76 61.1373 129.633 61.044 129.5L60.564 128.76C60.444 128.573 60.3373 128.38 60.244 128.18C60.1507 127.967 60.0707 127.753 60.004 127.54C59.8573 127.14 59.784 126.747 59.784 126.36V126.04C59.784 125.707 59.804 125.38 59.844 125.06C59.8707 124.793 59.9307 124.553 60.024 124.34C60.0773 124.207 60.124 124.073 60.164 123.94C60.204 123.807 60.2507 123.68 60.304 123.56L60.364 123.42C60.3907 123.247 60.4507 123.093 60.544 122.96C60.6373 122.813 60.7173 122.673 60.784 122.54C60.8373 122.433 60.8973 122.34 60.964 122.26C61.0307 122.167 61.0907 122.073 61.144 121.98C61.1707 121.94 61.204 121.907 61.244 121.88C61.284 121.84 61.3173 121.8 61.344 121.76C61.3707 121.733 61.3907 121.7 61.404 121.66C61.4307 121.607 61.4507 121.56 61.464 121.52C61.4907 121.48 61.5373 121.427 61.604 121.36C61.684 121.32 61.7573 121.227 61.824 121.08C61.8507 121.027 61.8773 120.987 61.904 120.96C61.984 120.893 62.0507 120.813 62.104 120.72C62.1707 120.627 62.244 120.54 62.324 120.46C62.3773 120.407 62.404 120.333 62.404 120.24C62.404 120.173 62.404 120.113 62.404 120.06C62.4173 119.993 62.4173 119.933 62.404 119.88C62.3907 119.813 62.4107 119.753 62.464 119.7C62.4907 119.673 62.5107 119.64 62.524 119.6C62.5373 119.56 62.5507 119.52 62.564 119.48C62.604 119.347 62.7107 119.233 62.884 119.14C62.9107 119.113 62.944 119.1 62.984 119.1C63.0373 119.087 63.084 119.073 63.124 119.06C63.2173 119.02 63.324 119.013 63.444 119.04C63.4973 119.053 63.544 119.06 63.584 119.06C63.624 119.047 63.664 119.033 63.704 119.02C63.7573 118.993 63.804 118.973 63.844 118.96C63.8973 118.947 63.944 118.933 63.984 118.92C64.1707 118.853 64.364 118.86 64.564 118.94C64.7773 119.02 64.9307 119.16 65.024 119.36C65.0507 119.427 65.0773 119.493 65.104 119.56C65.1307 119.627 65.1507 119.693 65.164 119.76C65.1907 119.907 65.184 120.033 65.144 120.14C65.1173 120.193 65.104 120.227 65.104 120.24C65.0907 120.293 65.104 120.34 65.144 120.38C65.1707 120.42 65.204 120.453 65.244 120.48C65.3907 120.613 65.5307 120.747 65.664 120.88C65.7973 121 65.924 121.133 66.044 121.28C66.1507 121.387 66.2373 121.5 66.304 121.62C66.384 121.727 66.4573 121.847 66.524 121.98C66.5507 122.047 66.584 122.12 66.624 122.2C66.664 122.267 66.704 122.333 66.744 122.4C66.8107 122.52 66.864 122.647 66.904 122.78C66.9573 122.913 67.0107 123.047 67.064 123.18V123.2C67.0907 123.293 67.1107 123.393 67.124 123.5C67.1507 123.593 67.1907 123.693 67.244 123.8C67.284 123.893 67.3173 123.993 67.344 124.1C67.3707 124.193 67.3973 124.293 67.424 124.4C67.4507 124.52 67.4773 124.64 67.504 124.76C67.544 124.88 67.5707 125 67.584 125.12C67.5973 125.173 67.6107 125.227 67.624 125.28C67.6373 125.32 67.6507 125.367 67.664 125.42C67.6907 125.54 67.7173 125.66 67.744 125.78C67.7707 125.9 67.7907 126.02 67.804 126.14L67.864 126.28C67.8907 126.36 67.9173 126.467 67.944 126.6C67.984 126.773 68.004 126.947 68.004 127.12C68.0173 127.293 68.0173 127.473 68.004 127.66C68.004 127.753 67.9973 127.827 67.984 127.88C67.904 128.16 67.804 128.447 67.684 128.74C67.6307 128.833 67.5773 128.927 67.524 129.02C67.4707 129.1 67.4173 129.187 67.364 129.28L67.184 129.56C67.1173 129.68 67.044 129.787 66.964 129.88C66.8307 130.093 66.6707 130.28 66.484 130.44C66.2973 130.6 66.0973 130.753 65.884 130.9C65.4173 131.26 64.8707 131.427 64.244 131.4ZM64.164 129.42C64.444 129.42 64.684 129.34 64.884 129.18C64.9507 129.113 65.0173 129.053 65.084 129C65.164 128.933 65.2307 128.867 65.284 128.8C65.5373 128.52 65.7373 128.227 65.884 127.92L65.944 127.72C65.9707 127.48 65.9707 127.24 65.944 127L65.824 126.34C65.784 126.167 65.7507 126 65.724 125.84C65.6973 125.667 65.6573 125.5 65.604 125.34C65.564 125.247 65.5507 125.173 65.564 125.12C65.5773 125.053 65.5773 124.987 65.564 124.92C65.5507 124.853 65.5307 124.787 65.504 124.72C65.464 124.547 65.4173 124.373 65.364 124.2C65.3107 124.027 65.2573 123.853 65.204 123.68C65.1907 123.64 65.1773 123.6 65.164 123.56C65.1507 123.52 65.1373 123.48 65.124 123.44C65.0307 123.253 64.9307 123.073 64.824 122.9C64.7173 122.727 64.5973 122.567 64.464 122.42C64.3973 122.34 64.324 122.267 64.244 122.2C64.164 122.12 64.084 122.047 64.004 121.98C63.9907 121.953 63.9707 121.94 63.944 121.94C63.9307 121.927 63.9107 121.913 63.884 121.9C63.844 121.847 63.7907 121.853 63.724 121.92C63.6573 121.987 63.584 122.06 63.504 122.14C63.4373 122.22 63.3707 122.3 63.304 122.38C63.2373 122.473 63.164 122.567 63.084 122.66C63.0173 122.753 62.9507 122.847 62.884 122.94C62.7907 123.06 62.704 123.18 62.624 123.3C62.544 123.42 62.464 123.54 62.384 123.66C62.104 124.113 61.884 124.613 61.724 125.16C61.6973 125.24 61.684 125.3 61.684 125.34C61.6707 125.433 61.6573 125.527 61.644 125.62C61.644 125.713 61.644 125.813 61.644 125.92V126.08C61.6573 126.12 61.664 126.16 61.664 126.2C61.664 126.24 61.6707 126.28 61.684 126.32C61.684 126.48 61.724 126.653 61.804 126.84C61.9107 127.107 62.0307 127.367 62.164 127.62C62.2973 127.873 62.4507 128.113 62.624 128.34C62.664 128.393 62.704 128.447 62.744 128.5C62.7973 128.553 62.844 128.607 62.884 128.66C63.004 128.793 63.1307 128.913 63.264 129.02C63.4107 129.127 63.5573 129.22 63.704 129.3C63.864 129.38 64.0173 129.42 64.164 129.42ZM72.8245 131.4C72.5711 131.427 72.3645 131.347 72.2045 131.16C72.1245 131.08 72.0511 130.993 71.9845 130.9C71.9178 130.807 71.8645 130.707 71.8245 130.6C71.7578 130.413 71.6978 130.227 71.6445 130.04C71.5911 129.84 71.5445 129.647 71.5045 129.46C71.4645 129.313 71.4445 129.173 71.4445 129.04C71.4311 128.893 71.4111 128.753 71.3845 128.62C71.3711 128.473 71.3645 128.327 71.3645 128.18C71.3645 128.1 71.3645 128.02 71.3645 127.94C71.3645 127.847 71.3578 127.76 71.3445 127.68C71.3311 127.627 71.3245 127.58 71.3245 127.54C71.3245 127.5 71.3245 127.453 71.3245 127.4C71.3245 127.213 71.3245 127.027 71.3245 126.84C71.3245 126.64 71.3178 126.447 71.3045 126.26C71.3045 126.153 71.2978 126.06 71.2845 125.98C71.2711 125.887 71.2445 125.793 71.2045 125.7C71.1511 125.553 71.1445 125.393 71.1845 125.22C71.1845 125.18 71.1911 125.153 71.2045 125.14C71.2311 125.047 71.2445 124.953 71.2445 124.86C71.2578 124.767 71.2578 124.673 71.2445 124.58C71.2311 124.513 71.2245 124.447 71.2245 124.38C71.2245 124.313 71.2245 124.253 71.2245 124.2C71.2111 124.053 71.2045 123.907 71.2045 123.76C71.2178 123.6 71.2311 123.447 71.2445 123.3C71.2578 123.26 71.2645 123.22 71.2645 123.18C71.2645 123.14 71.2645 123.1 71.2645 123.06C71.2511 122.913 71.2511 122.773 71.2645 122.64C71.2911 122.507 71.3111 122.373 71.3245 122.24C71.3511 122.08 71.3778 121.927 71.4045 121.78C71.4311 121.62 71.4645 121.46 71.5045 121.3C71.5311 121.233 71.5445 121.16 71.5445 121.08C71.5445 121 71.5445 120.92 71.5445 120.84C71.5445 120.773 71.5378 120.707 71.5245 120.64C71.5245 120.573 71.5245 120.513 71.5245 120.46C71.5245 120.42 71.5245 120.38 71.5245 120.34C71.5245 120.3 71.5311 120.26 71.5445 120.22C71.5578 120.18 71.5645 120.14 71.5645 120.1C71.5645 120.06 71.5711 120.033 71.5845 120.02C71.6245 119.967 71.6578 119.92 71.6845 119.88C71.7111 119.827 71.7511 119.78 71.8045 119.74C71.8711 119.7 71.9311 119.66 71.9845 119.62C72.0511 119.58 72.1111 119.547 72.1645 119.52C72.2311 119.493 72.2845 119.46 72.3245 119.42C72.3778 119.353 72.4311 119.293 72.4845 119.24C72.5511 119.173 72.6045 119.1 72.6445 119.02C72.7111 118.953 72.7778 118.88 72.8445 118.8C72.9245 118.707 73.0111 118.633 73.1045 118.58C73.1311 118.567 73.1711 118.533 73.2245 118.48C73.3845 118.333 73.5711 118.24 73.7845 118.2C73.8245 118.187 73.8578 118.18 73.8845 118.18C73.9245 118.167 73.9645 118.16 74.0045 118.16L74.1445 118.1C74.2511 118.06 74.3445 118.08 74.4245 118.16C74.4511 118.2 74.4845 118.24 74.5245 118.28C74.5778 118.307 74.6245 118.333 74.6645 118.36C74.7711 118.453 74.8711 118.553 74.9645 118.66C75.0711 118.767 75.1645 118.887 75.2445 119.02C75.3778 119.233 75.4911 119.447 75.5845 119.66C75.6911 119.873 75.7911 120.093 75.8845 120.32L76.2445 121.18C76.2578 121.26 76.2911 121.333 76.3445 121.4C76.4511 121.6 76.5311 121.807 76.5845 122.02C76.6378 122.22 76.6911 122.427 76.7445 122.64C76.7578 122.667 76.7645 122.693 76.7645 122.72C76.7778 122.747 76.7845 122.773 76.7845 122.8C76.8111 122.907 76.8311 123.02 76.8445 123.14C76.8711 123.247 76.8778 123.353 76.8645 123.46C76.8778 123.58 76.8711 123.7 76.8445 123.82C76.8311 123.927 76.8111 124.033 76.7845 124.14C76.7445 124.273 76.6978 124.4 76.6445 124.52C76.5911 124.627 76.5311 124.74 76.4645 124.86C76.4378 124.94 76.3911 125.013 76.3245 125.08C76.2578 125.147 76.1911 125.207 76.1245 125.26C76.0178 125.313 75.9111 125.393 75.8045 125.5C75.7778 125.527 75.7445 125.547 75.7045 125.56C75.6778 125.573 75.6511 125.593 75.6245 125.62C75.5311 125.66 75.4311 125.707 75.3245 125.76C75.2178 125.8 75.1111 125.84 75.0045 125.88C74.9911 125.88 74.9845 125.893 74.9845 125.92C74.9845 125.933 74.9911 125.947 75.0045 125.96L75.5445 126.34C75.6111 126.38 75.6711 126.42 75.7245 126.46C75.7778 126.487 75.8311 126.52 75.8845 126.56L76.0045 126.62C76.1645 126.713 76.3245 126.813 76.4845 126.92C76.6445 127.027 76.7978 127.133 76.9445 127.24C77.2245 127.413 77.5045 127.593 77.7845 127.78C78.0645 127.953 78.3311 128.147 78.5845 128.36C78.8111 128.533 79.0111 128.733 79.1845 128.96C79.2245 129 79.2645 129.047 79.3045 129.1C79.3445 129.14 79.3911 129.173 79.4445 129.2L79.5045 129.26C79.7178 129.447 79.8378 129.7 79.8645 130.02C79.8645 130.06 79.8578 130.1 79.8445 130.14C79.8445 130.18 79.8445 130.22 79.8445 130.26C79.8445 130.34 79.8178 130.407 79.7645 130.46C79.7111 130.487 79.6845 130.52 79.6845 130.56C79.6445 130.653 79.5845 130.72 79.5045 130.76C79.4378 130.787 79.3711 130.827 79.3045 130.88C79.2778 130.893 79.2311 130.9 79.1645 130.9C79.0845 130.887 78.9978 130.873 78.9045 130.86C78.8245 130.847 78.7445 130.84 78.6645 130.84C78.5578 130.84 78.4445 130.793 78.3245 130.7C78.2445 130.633 78.1711 130.573 78.1045 130.52C78.0378 130.453 77.9711 130.373 77.9045 130.28C77.7311 130.04 77.5045 129.82 77.2245 129.62C77.0911 129.513 76.9645 129.413 76.8445 129.32C76.7245 129.227 76.5911 129.14 76.4445 129.06C76.3511 129.007 76.2578 128.953 76.1645 128.9C76.0845 128.833 75.9911 128.773 75.8845 128.72C75.5511 128.493 75.2111 128.273 74.8645 128.06C74.5178 127.833 74.1711 127.607 73.8245 127.38C73.7711 127.34 73.7111 127.3 73.6445 127.26C73.5778 127.22 73.5111 127.18 73.4445 127.14C73.4178 127.113 73.3778 127.087 73.3245 127.06C73.2711 127.06 73.2445 127.08 73.2445 127.12C73.2445 127.133 73.2378 127.147 73.2245 127.16C73.2245 127.16 73.2245 127.167 73.2245 127.18C73.2245 127.22 73.2245 127.26 73.2245 127.3C73.2245 127.34 73.2311 127.38 73.2445 127.42C73.2578 127.527 73.2645 127.633 73.2645 127.74C73.2645 127.833 73.2645 127.933 73.2645 128.04C73.2645 128.12 73.2645 128.2 73.2645 128.28C73.2778 128.347 73.2911 128.42 73.3045 128.5C73.3045 128.54 73.3045 128.587 73.3045 128.64C73.3178 128.68 73.3245 128.72 73.3245 128.76C73.3111 128.88 73.3178 129 73.3445 129.12C73.3711 129.24 73.3911 129.36 73.4045 129.48L73.5245 130C73.5378 130.053 73.5511 130.113 73.5645 130.18C73.5778 130.233 73.5911 130.293 73.6045 130.36C73.6178 130.413 73.6178 130.467 73.6045 130.52C73.6045 130.56 73.5978 130.607 73.5845 130.66C73.5845 130.673 73.5711 130.693 73.5445 130.72C73.4778 130.733 73.4311 130.78 73.4045 130.86C73.3645 130.953 73.3045 131.033 73.2245 131.1C73.1578 131.18 73.0845 131.253 73.0045 131.32C72.9911 131.333 72.9645 131.347 72.9245 131.36C72.8845 131.373 72.8511 131.387 72.8245 131.4ZM73.6045 124.4H73.6445C73.7911 124.373 73.9378 124.347 74.0845 124.32C74.2445 124.28 74.3978 124.233 74.5445 124.18C74.6911 124.14 74.8178 124.067 74.9245 123.96C75.0178 123.867 75.0645 123.76 75.0645 123.64C75.0778 123.547 75.0778 123.46 75.0645 123.38C75.0645 123.287 75.0511 123.193 75.0245 123.1C74.9711 122.86 74.9111 122.627 74.8445 122.4C74.7778 122.16 74.6978 121.933 74.6045 121.72L74.4245 121.24C74.3845 121.107 74.3378 120.98 74.2845 120.86C74.2311 120.727 74.1711 120.6 74.1045 120.48C74.0911 120.453 74.0778 120.427 74.0645 120.4C74.0511 120.36 74.0378 120.327 74.0245 120.3L73.9445 120.22C73.9045 120.167 73.8578 120.167 73.8045 120.22C73.7911 120.22 73.7711 120.233 73.7445 120.26C73.6511 120.38 73.5645 120.507 73.4845 120.64C73.4178 120.773 73.3778 120.92 73.3645 121.08C73.3511 121.133 73.3378 121.187 73.3245 121.24C73.3245 121.293 73.3245 121.353 73.3245 121.42V122.28C73.3111 122.467 73.3045 122.66 73.3045 122.86C73.3178 123.06 73.3111 123.253 73.2845 123.44C73.2711 123.48 73.2645 123.52 73.2645 123.56C73.2778 123.6 73.2845 123.64 73.2845 123.68C73.2978 123.76 73.3045 123.84 73.3045 123.92C73.3045 123.987 73.3045 124.06 73.3045 124.14C73.3045 124.273 73.3178 124.353 73.3445 124.38C73.3845 124.407 73.4711 124.413 73.6045 124.4ZM88.9374 121.2C88.9108 121.2 88.8908 121.193 88.8774 121.18C88.7308 121.14 88.6374 121.04 88.5974 120.88C88.5841 120.813 88.5708 120.753 88.5574 120.7C88.5441 120.633 88.5308 120.573 88.5174 120.52C88.4908 120.44 88.4641 120.387 88.4374 120.36C88.3841 120.293 88.3308 120.247 88.2774 120.22C88.2241 120.18 88.1641 120.147 88.0974 120.12C88.0441 120.107 87.9908 120.107 87.9374 120.12L87.8574 120.14C87.8308 120.167 87.7841 120.193 87.7174 120.22C87.5841 120.3 87.4374 120.3 87.2774 120.22C87.2374 120.193 87.1908 120.167 87.1374 120.14C87.0974 120.113 87.0508 120.087 86.9974 120.06C86.9174 120.033 86.8641 120.06 86.8374 120.14L86.8174 120.28C86.8174 120.373 86.8108 120.467 86.7974 120.56C86.7974 120.653 86.7908 120.747 86.7774 120.84L86.7574 120.86C86.7441 120.993 86.6841 121.087 86.5774 121.14C86.4708 121.193 86.3641 121.187 86.2574 121.12C86.1374 121.053 86.0574 120.953 86.0174 120.82L85.9574 120.46C85.9574 120.38 85.9374 120.3 85.8974 120.22L85.8374 120.1C85.8241 120.007 85.7641 119.92 85.6574 119.84C85.4974 119.733 85.3308 119.593 85.1574 119.42C85.1174 119.38 85.0508 119.347 84.9574 119.32C84.8641 119.28 84.7708 119.227 84.6774 119.16C84.5974 119.093 84.5174 119.027 84.4374 118.96C84.3574 118.893 84.2774 118.827 84.1974 118.76C84.1441 118.707 84.1041 118.66 84.0774 118.62C84.0241 118.553 83.9708 118.493 83.9174 118.44C83.8641 118.373 83.8108 118.313 83.7574 118.26C83.7441 118.233 83.7174 118.2 83.6774 118.16C83.6241 118.107 83.5708 118.047 83.5174 117.98C83.4774 117.913 83.4374 117.847 83.3974 117.78C83.3441 117.673 83.2841 117.567 83.2174 117.46C83.1641 117.34 83.1108 117.227 83.0574 117.12C82.9641 116.947 82.9108 116.787 82.8974 116.64C82.8841 116.613 82.8774 116.587 82.8774 116.56C82.8774 116.52 82.8708 116.487 82.8574 116.46C82.8708 116.193 82.9508 115.947 83.0974 115.72C83.2041 115.573 83.3241 115.473 83.4574 115.42C83.5774 115.353 83.7308 115.307 83.9174 115.28H83.9574C84.0641 115.293 84.1641 115.313 84.2574 115.34C84.3508 115.353 84.4374 115.393 84.5174 115.46L84.8574 115.74C84.8708 115.753 84.8841 115.767 84.8974 115.78C84.9108 115.793 84.9241 115.807 84.9374 115.82C85.2174 116.167 85.5108 116.453 85.8174 116.68C85.8974 116.733 85.9774 116.787 86.0574 116.84C86.1508 116.893 86.2374 116.947 86.3174 117C86.4641 117.08 86.6041 117.16 86.7374 117.24C86.8841 117.307 87.0308 117.373 87.1774 117.44L87.8374 117.74C87.8774 117.753 87.9241 117.773 87.9774 117.8C88.3641 117.96 88.7508 118.06 89.1374 118.1C89.2974 118.127 89.4441 118.173 89.5774 118.24L89.6974 118.32C89.7374 118.36 89.7774 118.4 89.8174 118.44C89.8574 118.467 89.8974 118.5 89.9374 118.54C90.0174 118.62 90.0574 118.707 90.0574 118.8V118.88C90.0708 118.933 90.0708 119.033 90.0574 119.18C90.0574 119.313 90.0574 119.407 90.0574 119.46C90.0574 119.54 90.0241 119.6 89.9574 119.64C89.9041 119.693 89.8641 119.753 89.8374 119.82C89.8108 119.953 89.7508 120.047 89.6574 120.1C89.6041 120.153 89.5574 120.213 89.5174 120.28C89.4908 120.347 89.4641 120.413 89.4374 120.48C89.4241 120.547 89.4041 120.62 89.3774 120.7C89.3508 120.767 89.3241 120.833 89.2974 120.9C89.2974 120.953 89.2774 121 89.2374 121.04C89.2108 121.093 89.1708 121.133 89.1174 121.16C89.0641 121.173 89.0041 121.187 88.9374 121.2ZM96.286 131.98L95.946 131.92C95.7727 131.893 95.5927 131.867 95.406 131.84C95.2327 131.813 95.0527 131.793 94.866 131.78C94.6794 131.78 94.4927 131.727 94.306 131.62C94.1327 131.527 94.0127 131.38 93.946 131.18C93.9327 131.113 93.9127 131.047 93.886 130.98C93.8727 130.913 93.8594 130.847 93.846 130.78C93.846 130.62 93.8794 130.5 93.946 130.42C94.0127 130.353 94.066 130.287 94.106 130.22C94.1594 130.153 94.2127 130.093 94.266 130.04C94.2927 130.013 94.3194 129.993 94.346 129.98C94.3727 129.967 94.3994 129.953 94.426 129.94C94.4927 129.9 94.5594 129.873 94.626 129.86C94.6927 129.833 94.7594 129.813 94.826 129.8C94.8527 129.787 94.8727 129.787 94.886 129.8C94.9127 129.8 94.9327 129.8 94.946 129.8C95.0127 129.813 95.086 129.827 95.166 129.84C95.246 129.84 95.3194 129.853 95.386 129.88L96.226 130C96.4127 130.027 96.5794 130 96.726 129.92C96.7794 129.893 96.826 129.867 96.866 129.84C96.9194 129.813 96.966 129.787 97.006 129.76C97.2994 129.587 97.5527 129.407 97.766 129.22C97.926 129.073 98.0794 128.927 98.226 128.78C98.3727 128.633 98.506 128.473 98.626 128.3C98.7194 128.18 98.7794 128.06 98.806 127.94C98.8327 127.807 98.8394 127.673 98.826 127.54L98.766 127.38C98.7527 127.313 98.726 127.26 98.686 127.22C98.646 127.18 98.606 127.133 98.566 127.08C98.486 127.013 98.406 126.94 98.326 126.86C98.2594 126.78 98.186 126.713 98.106 126.66C97.906 126.5 97.706 126.347 97.506 126.2C97.3194 126.053 97.126 125.907 96.926 125.76C96.9127 125.733 96.8727 125.707 96.806 125.68C96.686 125.6 96.566 125.513 96.446 125.42C96.3394 125.313 96.2327 125.213 96.126 125.12C95.9927 124.987 95.846 124.86 95.686 124.74C95.606 124.7 95.5327 124.633 95.466 124.54C95.4127 124.473 95.3327 124.407 95.226 124.34C95.1327 124.287 95.046 124.227 94.966 124.16C94.886 124.08 94.806 124.007 94.726 123.94L94.466 123.7C94.4127 123.633 94.3527 123.573 94.286 123.52C94.2327 123.453 94.1727 123.387 94.106 123.32C94.0794 123.253 94.0394 123.2 93.986 123.16C93.946 123.12 93.906 123.073 93.866 123.02C93.8527 122.993 93.8327 122.967 93.806 122.94C93.7794 122.9 93.7594 122.86 93.746 122.82C93.666 122.66 93.5794 122.5 93.486 122.34C93.406 122.18 93.3327 122.013 93.266 121.84C93.226 121.733 93.186 121.633 93.146 121.54C93.1194 121.433 93.0927 121.333 93.066 121.24C93.0527 121.133 93.026 121.04 92.986 120.96C92.9594 120.867 92.9327 120.773 92.906 120.68C92.8794 120.533 92.846 120.393 92.806 120.26C92.7794 120.113 92.7527 119.973 92.726 119.84L92.686 119.68C92.6727 119.533 92.6727 119.393 92.686 119.26C92.7127 119.073 92.7527 118.907 92.806 118.76C92.8594 118.6 92.946 118.473 93.066 118.38C93.1994 118.273 93.3327 118.167 93.466 118.06C93.5994 117.953 93.7394 117.867 93.886 117.8C93.9127 117.8 93.9327 117.793 93.946 117.78C94.0794 117.673 94.226 117.6 94.386 117.56C94.546 117.507 94.706 117.46 94.866 117.42C95.506 117.233 96.166 117.093 96.846 117H97.046C97.1794 117 97.306 117 97.426 117C97.546 117 97.6727 116.993 97.806 116.98C97.966 116.98 98.126 117 98.286 117.04C98.446 117.067 98.5994 117.113 98.746 117.18C98.8527 117.233 98.9594 117.293 99.066 117.36C99.1727 117.413 99.2727 117.473 99.366 117.54C99.4727 117.62 99.5394 117.707 99.566 117.8L99.626 117.94C99.6927 118.06 99.726 118.187 99.726 118.32C99.7394 118.44 99.7327 118.567 99.706 118.7C99.706 118.74 99.6994 118.787 99.686 118.84C99.686 118.88 99.686 118.92 99.686 118.96C99.646 119.253 99.506 119.48 99.266 119.64C99.1194 119.773 98.926 119.827 98.686 119.8C98.6327 119.773 98.606 119.787 98.606 119.84C98.606 119.893 98.5727 119.92 98.506 119.92H98.386C98.306 119.92 98.226 119.88 98.146 119.8C98.0794 119.733 98.046 119.68 98.046 119.64C98.046 119.587 98.0727 119.547 98.126 119.52C98.0994 119.453 98.0727 119.393 98.046 119.34C98.0194 119.287 97.9927 119.247 97.966 119.22C97.926 119.153 97.866 119.107 97.786 119.08C97.7194 119.067 97.6527 119.053 97.586 119.04C97.5194 119.027 97.4527 119.013 97.386 119C97.3327 119 97.2727 119 97.206 119C97.1394 118.987 97.0727 118.973 97.006 118.96C96.966 118.947 96.906 118.953 96.826 118.98C96.786 118.993 96.746 119.007 96.706 119.02C96.666 119.02 96.6194 119.013 96.566 119C96.526 119 96.4794 119 96.426 119C96.386 119 96.3394 119.013 96.286 119.04L95.906 119.1C95.6927 119.14 95.486 119.22 95.286 119.34C95.246 119.353 95.206 119.367 95.166 119.38C95.126 119.393 95.086 119.393 95.046 119.38C94.966 119.367 94.8994 119.387 94.846 119.44C94.8327 119.467 94.7994 119.487 94.746 119.5C94.706 119.5 94.6727 119.513 94.646 119.54C94.5927 119.593 94.566 119.647 94.566 119.7C94.5794 119.727 94.586 119.767 94.586 119.82L95.006 121.04C95.086 121.253 95.186 121.453 95.306 121.64C95.4394 121.813 95.5794 121.987 95.726 122.16C95.9527 122.427 96.186 122.653 96.426 122.84L97.066 123.38C97.1994 123.5 97.3394 123.613 97.486 123.72C97.6327 123.827 97.7727 123.933 97.906 124.04C98.106 124.187 98.306 124.34 98.506 124.5C98.706 124.647 98.906 124.8 99.106 124.96C99.266 125.093 99.4194 125.227 99.566 125.36C99.726 125.48 99.8727 125.613 100.006 125.76C100.099 125.867 100.193 125.973 100.286 126.08C100.379 126.187 100.459 126.307 100.526 126.44C100.619 126.587 100.699 126.76 100.766 126.96C100.846 127.213 100.879 127.453 100.866 127.68C100.853 127.707 100.846 127.747 100.846 127.8C100.846 127.96 100.826 128.113 100.786 128.26C100.759 128.393 100.713 128.533 100.646 128.68C100.579 128.813 100.506 128.953 100.426 129.1C100.359 129.233 100.279 129.367 100.186 129.5C100.053 129.673 99.9127 129.84 99.766 130C99.6327 130.147 99.4794 130.293 99.306 130.44C99.2127 130.52 99.1194 130.607 99.026 130.7C98.9327 130.78 98.8327 130.853 98.726 130.92C98.6594 130.973 98.5927 131.02 98.526 131.06C98.4594 131.113 98.3927 131.167 98.326 131.22C98.2727 131.247 98.2194 131.28 98.166 131.32C98.1127 131.36 98.0594 131.4 98.006 131.44C97.9527 131.493 97.886 131.533 97.806 131.56C97.7394 131.6 97.6727 131.633 97.606 131.66L97.026 131.9C96.906 131.94 96.786 131.967 96.666 131.98C96.546 131.993 96.4194 131.993 96.286 131.98ZM113.979 131.2C113.872 131.187 113.765 131.16 113.659 131.12C113.552 131.093 113.459 131.047 113.379 130.98C113.365 130.953 113.345 130.933 113.319 130.92C113.292 130.893 113.272 130.873 113.259 130.86C113.205 130.78 113.159 130.693 113.119 130.6C113.079 130.507 113.052 130.413 113.039 130.32C113.025 130.12 113.045 129.92 113.099 129.72C113.165 129.507 113.212 129.293 113.239 129.08C113.265 128.853 113.279 128.627 113.279 128.4C113.292 128.133 113.299 127.867 113.299 127.6C113.299 127.333 113.299 127.073 113.299 126.82C113.299 126.753 113.292 126.687 113.279 126.62C113.279 126.54 113.272 126.467 113.259 126.4C113.245 126.333 113.239 126.26 113.239 126.18C113.239 126.1 113.239 126.027 113.239 125.96C113.239 125.893 113.232 125.827 113.219 125.76C113.219 125.68 113.212 125.607 113.199 125.54C113.185 125.487 113.179 125.433 113.179 125.38C113.192 125.327 113.192 125.273 113.179 125.22C113.179 125.127 113.179 125.033 113.179 124.94C113.179 124.847 113.172 124.753 113.159 124.66C113.145 124.647 113.139 124.62 113.139 124.58V123.5C113.125 123.433 113.119 123.373 113.119 123.32C113.119 123.253 113.119 123.187 113.119 123.12C113.132 123.08 113.139 123.02 113.139 122.94V122.7C113.139 122.62 113.132 122.547 113.119 122.48C113.119 122.4 113.125 122.32 113.139 122.24V122.14C113.125 122.033 113.119 121.933 113.119 121.84C113.132 121.733 113.145 121.633 113.159 121.54C113.172 121.487 113.179 121.4 113.179 121.28C113.152 121.2 113.139 121.14 113.139 121.1C113.125 121.033 113.112 120.973 113.099 120.92C113.099 120.853 113.105 120.793 113.119 120.74C113.132 120.62 113.105 120.493 113.039 120.36C112.999 120.307 112.965 120.253 112.939 120.2C112.925 120.133 112.905 120.073 112.879 120.02V119.96C112.905 119.933 112.932 119.933 112.959 119.96C112.999 119.973 113.019 119.967 113.019 119.94C113.032 119.913 113.039 119.887 113.039 119.86C113.039 119.82 113.045 119.793 113.059 119.78C113.072 119.74 113.065 119.687 113.039 119.62C113.025 119.58 113.045 119.553 113.099 119.54C113.125 119.487 113.172 119.453 113.239 119.44C113.305 119.413 113.345 119.393 113.359 119.38C113.399 119.327 113.445 119.3 113.499 119.3C113.552 119.3 113.605 119.3 113.659 119.3C113.699 119.3 113.759 119.287 113.839 119.26C113.892 119.247 113.945 119.247 113.999 119.26C114.025 119.273 114.052 119.293 114.079 119.32C114.105 119.333 114.132 119.347 114.159 119.36C114.292 119.413 114.405 119.52 114.499 119.68C114.525 119.747 114.552 119.813 114.579 119.88C114.605 119.947 114.612 120.02 114.599 120.1C114.599 120.14 114.625 120.16 114.679 120.16H114.839C114.905 120.133 114.972 120.12 115.039 120.12C115.119 120.12 115.185 120.12 115.239 120.12H115.759C115.905 120.107 116.052 120.113 116.199 120.14C116.359 120.153 116.512 120.173 116.659 120.2C117.099 120.253 117.519 120.353 117.919 120.5C118.359 120.633 118.772 120.853 119.159 121.16C119.305 121.267 119.465 121.42 119.639 121.62C119.692 121.673 119.739 121.733 119.779 121.8C119.832 121.853 119.879 121.913 119.919 121.98C120.065 122.207 120.139 122.44 120.139 122.68C120.165 122.84 120.165 122.993 120.139 123.14C120.139 123.26 120.112 123.367 120.059 123.46C120.059 123.46 120.052 123.467 120.039 123.48C120.039 123.48 120.039 123.487 120.039 123.5C120.012 123.54 119.992 123.587 119.979 123.64C119.979 123.693 119.959 123.733 119.919 123.76L119.739 123.98C119.672 124.06 119.599 124.147 119.519 124.24C119.452 124.32 119.372 124.393 119.279 124.46L119.079 124.6C119.039 124.613 118.999 124.633 118.959 124.66C118.919 124.687 118.885 124.72 118.859 124.76C118.819 124.8 118.772 124.833 118.719 124.86C118.665 124.9 118.605 124.94 118.539 124.98C118.485 125.007 118.425 125.033 118.359 125.06C118.292 125.087 118.292 125.12 118.359 125.16L118.499 125.22C118.565 125.26 118.639 125.3 118.719 125.34C118.799 125.367 118.872 125.4 118.939 125.44C119.045 125.493 119.152 125.56 119.259 125.64C119.379 125.707 119.485 125.773 119.579 125.84L119.819 126.06C119.885 126.127 119.945 126.2 119.999 126.28C120.065 126.347 120.125 126.42 120.179 126.5C120.285 126.633 120.372 126.78 120.439 126.94C120.519 127.1 120.572 127.267 120.599 127.44C120.625 127.533 120.639 127.633 120.639 127.74C120.639 127.833 120.625 127.933 120.599 128.04C120.572 128.147 120.579 128.247 120.619 128.34C120.632 128.38 120.625 128.447 120.599 128.54L120.539 128.8C120.512 128.88 120.479 128.953 120.439 129.02C120.412 129.087 120.365 129.153 120.299 129.22L120.059 129.54C119.979 129.633 119.892 129.727 119.799 129.82C119.719 129.913 119.625 129.993 119.519 130.06L119.339 130.18C119.312 130.18 119.272 130.193 119.219 130.22C118.632 130.527 118.025 130.687 117.399 130.7C117.332 130.7 117.279 130.707 117.239 130.72C117.119 130.733 116.992 130.747 116.859 130.76C116.739 130.76 116.612 130.76 116.479 130.76C116.372 130.76 116.259 130.773 116.139 130.8C116.032 130.813 115.925 130.82 115.819 130.82C115.765 130.833 115.712 130.847 115.659 130.86C115.605 130.86 115.552 130.86 115.499 130.86C115.432 130.873 115.359 130.887 115.279 130.9C115.212 130.913 115.145 130.933 115.079 130.96C115.039 130.973 114.999 130.987 114.959 131C114.932 131.013 114.899 131.033 114.859 131.06C114.725 131.153 114.572 131.2 114.399 131.2H113.979ZM114.859 124.54C114.912 124.54 114.959 124.533 114.999 124.52C115.052 124.507 115.099 124.493 115.139 124.48C115.312 124.413 115.479 124.353 115.639 124.3C115.799 124.233 115.965 124.173 116.139 124.12C116.339 124.053 116.539 123.98 116.739 123.9C116.939 123.807 117.139 123.72 117.339 123.64C117.499 123.573 117.652 123.487 117.799 123.38C117.959 123.273 118.105 123.167 118.239 123.06C118.265 123.047 118.285 123.033 118.299 123.02C118.312 122.993 118.325 122.973 118.339 122.96C118.365 122.92 118.365 122.88 118.339 122.84L118.279 122.74C118.225 122.7 118.179 122.66 118.139 122.62C118.099 122.58 118.045 122.54 117.979 122.5C117.925 122.473 117.872 122.44 117.819 122.4C117.765 122.36 117.705 122.327 117.639 122.3L117.459 122.18C117.259 122.1 117.059 122.033 116.859 121.98C116.659 121.927 116.452 121.9 116.239 121.9H115.559C115.452 121.9 115.345 121.907 115.239 121.92C115.132 121.933 115.025 121.953 114.919 121.98C114.879 121.98 114.819 121.993 114.739 122.02C114.659 122.033 114.619 122.08 114.619 122.16V122.62C114.645 122.753 114.645 122.893 114.619 123.04V123.22C114.645 123.3 114.659 123.387 114.659 123.48C114.659 123.56 114.659 123.647 114.659 123.74C114.672 123.98 114.712 124.233 114.779 124.5C114.779 124.527 114.805 124.54 114.859 124.54ZM115.019 129.16H115.099C115.192 129.147 115.285 129.14 115.379 129.14C115.472 129.127 115.565 129.113 115.659 129.1C115.819 129.073 115.979 129.047 116.139 129.02C116.312 128.993 116.479 128.973 116.639 128.96C116.945 128.933 117.245 128.893 117.539 128.84C117.659 128.813 117.772 128.787 117.879 128.76C117.999 128.733 118.112 128.707 118.219 128.68C118.285 128.653 118.345 128.627 118.399 128.6C118.465 128.56 118.525 128.527 118.579 128.5C118.765 128.367 118.872 128.167 118.899 127.9C118.912 127.647 118.819 127.44 118.619 127.28C118.592 127.253 118.539 127.213 118.459 127.16C118.245 127.013 118.019 126.893 117.779 126.8C117.539 126.707 117.292 126.633 117.039 126.58C116.919 126.553 116.799 126.533 116.679 126.52C116.572 126.493 116.459 126.487 116.339 126.5C116.285 126.5 116.225 126.507 116.159 126.52C116.105 126.52 116.052 126.52 115.999 126.52C115.945 126.52 115.892 126.527 115.839 126.54C115.785 126.54 115.725 126.54 115.659 126.54C115.592 126.54 115.519 126.54 115.439 126.54C115.372 126.54 115.305 126.547 115.239 126.56H115.059C114.992 126.587 114.959 126.627 114.959 126.68C114.972 126.787 114.979 126.9 114.979 127.02C114.979 127.14 114.979 127.253 114.979 127.36C114.979 127.387 114.979 127.413 114.979 127.44C114.992 127.467 114.999 127.493 114.999 127.52V127.94C114.985 128.02 114.979 128.1 114.979 128.18C114.979 128.26 114.979 128.333 114.979 128.4C114.979 128.493 114.979 128.587 114.979 128.68C114.992 128.76 114.985 128.847 114.959 128.94C114.945 128.967 114.939 129.013 114.939 129.08C114.939 129.107 114.965 129.133 115.019 129.16ZM128.006 131.4C127.873 131.387 127.74 131.367 127.606 131.34C127.486 131.327 127.366 131.293 127.246 131.24L126.746 131.06C126.573 130.993 126.413 130.92 126.266 130.84C126.12 130.747 125.973 130.653 125.826 130.56C125.76 130.493 125.693 130.433 125.626 130.38C125.56 130.313 125.493 130.253 125.426 130.2C125.32 130.093 125.213 129.987 125.106 129.88C125 129.76 124.9 129.633 124.806 129.5L124.326 128.76C124.206 128.573 124.1 128.38 124.006 128.18C123.913 127.967 123.833 127.753 123.766 127.54C123.62 127.14 123.546 126.747 123.546 126.36V126.04C123.546 125.707 123.566 125.38 123.606 125.06C123.633 124.793 123.693 124.553 123.786 124.34C123.84 124.207 123.886 124.073 123.926 123.94C123.966 123.807 124.013 123.68 124.066 123.56L124.126 123.42C124.153 123.247 124.213 123.093 124.306 122.96C124.4 122.813 124.48 122.673 124.546 122.54C124.6 122.433 124.66 122.34 124.726 122.26C124.793 122.167 124.853 122.073 124.906 121.98C124.933 121.94 124.966 121.907 125.006 121.88C125.046 121.84 125.08 121.8 125.106 121.76C125.133 121.733 125.153 121.7 125.166 121.66C125.193 121.607 125.213 121.56 125.226 121.52C125.253 121.48 125.3 121.427 125.366 121.36C125.446 121.32 125.52 121.227 125.586 121.08C125.613 121.027 125.64 120.987 125.666 120.96C125.746 120.893 125.813 120.813 125.866 120.72C125.933 120.627 126.006 120.54 126.086 120.46C126.14 120.407 126.166 120.333 126.166 120.24C126.166 120.173 126.166 120.113 126.166 120.06C126.18 119.993 126.18 119.933 126.166 119.88C126.153 119.813 126.173 119.753 126.226 119.7C126.253 119.673 126.273 119.64 126.286 119.6C126.3 119.56 126.313 119.52 126.326 119.48C126.366 119.347 126.473 119.233 126.646 119.14C126.673 119.113 126.706 119.1 126.746 119.1C126.8 119.087 126.846 119.073 126.886 119.06C126.98 119.02 127.086 119.013 127.206 119.04C127.26 119.053 127.306 119.06 127.346 119.06C127.386 119.047 127.426 119.033 127.466 119.02C127.52 118.993 127.566 118.973 127.606 118.96C127.66 118.947 127.706 118.933 127.746 118.92C127.933 118.853 128.126 118.86 128.326 118.94C128.54 119.02 128.693 119.16 128.786 119.36C128.813 119.427 128.84 119.493 128.866 119.56C128.893 119.627 128.913 119.693 128.926 119.76C128.953 119.907 128.946 120.033 128.906 120.14C128.88 120.193 128.866 120.227 128.866 120.24C128.853 120.293 128.866 120.34 128.906 120.38C128.933 120.42 128.966 120.453 129.006 120.48C129.153 120.613 129.293 120.747 129.426 120.88C129.56 121 129.686 121.133 129.806 121.28C129.913 121.387 130 121.5 130.066 121.62C130.146 121.727 130.22 121.847 130.286 121.98C130.313 122.047 130.346 122.12 130.386 122.2C130.426 122.267 130.466 122.333 130.506 122.4C130.573 122.52 130.626 122.647 130.666 122.78C130.72 122.913 130.773 123.047 130.826 123.18V123.2C130.853 123.293 130.873 123.393 130.886 123.5C130.913 123.593 130.953 123.693 131.006 123.8C131.046 123.893 131.08 123.993 131.106 124.1C131.133 124.193 131.16 124.293 131.186 124.4C131.213 124.52 131.24 124.64 131.266 124.76C131.306 124.88 131.333 125 131.346 125.12C131.36 125.173 131.373 125.227 131.386 125.28C131.4 125.32 131.413 125.367 131.426 125.42C131.453 125.54 131.48 125.66 131.506 125.78C131.533 125.9 131.553 126.02 131.566 126.14L131.626 126.28C131.653 126.36 131.68 126.467 131.706 126.6C131.746 126.773 131.766 126.947 131.766 127.12C131.78 127.293 131.78 127.473 131.766 127.66C131.766 127.753 131.76 127.827 131.746 127.88C131.666 128.16 131.566 128.447 131.446 128.74C131.393 128.833 131.34 128.927 131.286 129.02C131.233 129.1 131.18 129.187 131.126 129.28L130.946 129.56C130.88 129.68 130.806 129.787 130.726 129.88C130.593 130.093 130.433 130.28 130.246 130.44C130.06 130.6 129.86 130.753 129.646 130.9C129.18 131.26 128.633 131.427 128.006 131.4ZM127.926 129.42C128.206 129.42 128.446 129.34 128.646 129.18C128.713 129.113 128.78 129.053 128.846 129C128.926 128.933 128.993 128.867 129.046 128.8C129.3 128.52 129.5 128.227 129.646 127.92L129.706 127.72C129.733 127.48 129.733 127.24 129.706 127L129.586 126.34C129.546 126.167 129.513 126 129.486 125.84C129.46 125.667 129.42 125.5 129.366 125.34C129.326 125.247 129.313 125.173 129.326 125.12C129.34 125.053 129.34 124.987 129.326 124.92C129.313 124.853 129.293 124.787 129.266 124.72C129.226 124.547 129.18 124.373 129.126 124.2C129.073 124.027 129.02 123.853 128.966 123.68C128.953 123.64 128.94 123.6 128.926 123.56C128.913 123.52 128.9 123.48 128.886 123.44C128.793 123.253 128.693 123.073 128.586 122.9C128.48 122.727 128.36 122.567 128.226 122.42C128.16 122.34 128.086 122.267 128.006 122.2C127.926 122.12 127.846 122.047 127.766 121.98C127.753 121.953 127.733 121.94 127.706 121.94C127.693 121.927 127.673 121.913 127.646 121.9C127.606 121.847 127.553 121.853 127.486 121.92C127.42 121.987 127.346 122.06 127.266 122.14C127.2 122.22 127.133 122.3 127.066 122.38C127 122.473 126.926 122.567 126.846 122.66C126.78 122.753 126.713 122.847 126.646 122.94C126.553 123.06 126.466 123.18 126.386 123.3C126.306 123.42 126.226 123.54 126.146 123.66C125.866 124.113 125.646 124.613 125.486 125.16C125.46 125.24 125.446 125.3 125.446 125.34C125.433 125.433 125.42 125.527 125.406 125.62C125.406 125.713 125.406 125.813 125.406 125.92V126.08C125.42 126.12 125.426 126.16 125.426 126.2C125.426 126.24 125.433 126.28 125.446 126.32C125.446 126.48 125.486 126.653 125.566 126.84C125.673 127.107 125.793 127.367 125.926 127.62C126.06 127.873 126.213 128.113 126.386 128.34C126.426 128.393 126.466 128.447 126.506 128.5C126.56 128.553 126.606 128.607 126.646 128.66C126.766 128.793 126.893 128.913 127.026 129.02C127.173 129.127 127.32 129.22 127.466 129.3C127.626 129.38 127.78 129.42 127.926 129.42ZM142.695 132.46C142.575 132.46 142.469 132.413 142.375 132.32C142.349 132.28 142.322 132.24 142.295 132.2C142.269 132.16 142.242 132.12 142.215 132.08C142.095 131.8 142.035 131.507 142.035 131.2L141.975 130.72C141.935 130.533 141.902 130.347 141.875 130.16C141.849 129.973 141.802 129.793 141.735 129.62L141.615 129.28C141.615 129.253 141.609 129.227 141.595 129.2C141.595 129.173 141.589 129.147 141.575 129.12L141.275 128.06C141.262 128.033 141.249 128 141.235 127.96C141.235 127.92 141.222 127.887 141.195 127.86C141.155 127.78 141.122 127.7 141.095 127.62C141.082 127.527 141.062 127.433 141.035 127.34C141.022 127.273 141.009 127.213 140.995 127.16C140.982 127.093 140.962 127.027 140.935 126.96C140.909 126.88 140.882 126.833 140.855 126.82C140.829 126.793 140.769 126.793 140.675 126.82C140.609 126.833 140.535 126.847 140.455 126.86C140.389 126.86 140.322 126.873 140.255 126.9C140.202 126.913 140.135 126.927 140.055 126.94C139.989 126.94 139.922 126.947 139.855 126.96L139.575 127.02C139.509 127.033 139.435 127.053 139.355 127.08C139.289 127.093 139.222 127.1 139.155 127.1L138.795 127.16C138.689 127.187 138.575 127.213 138.455 127.24C138.335 127.267 138.222 127.293 138.115 127.32C137.795 127.4 137.475 127.46 137.155 127.5C137.049 127.527 136.989 127.573 136.975 127.64C136.962 127.64 136.955 127.647 136.955 127.66C136.875 127.873 136.782 128.087 136.675 128.3C136.582 128.5 136.482 128.707 136.375 128.92C136.349 128.973 136.322 129.027 136.295 129.08C136.282 129.12 136.262 129.167 136.235 129.22C136.222 129.247 136.209 129.28 136.195 129.32C136.182 129.347 136.169 129.373 136.155 129.4C136.075 129.493 136.035 129.607 136.035 129.74C136.022 129.82 135.995 129.9 135.955 129.98C135.915 130.047 135.875 130.113 135.835 130.18C135.822 130.22 135.795 130.24 135.755 130.24C135.702 130.253 135.649 130.273 135.595 130.3C135.542 130.327 135.482 130.353 135.415 130.38C135.375 130.393 135.335 130.393 135.295 130.38C135.269 130.367 135.235 130.353 135.195 130.34C135.169 130.313 135.142 130.3 135.115 130.3C134.969 130.287 134.862 130.2 134.795 130.04C134.689 129.827 134.615 129.613 134.575 129.4C134.562 129.347 134.562 129.3 134.575 129.26C134.602 129.22 134.622 129.18 134.635 129.14C134.715 129.087 134.762 129.027 134.775 128.96V128.94C134.775 128.767 134.809 128.607 134.875 128.46C134.955 128.3 135.022 128.147 135.075 128C135.102 127.92 135.135 127.84 135.175 127.76C135.215 127.68 135.255 127.6 135.295 127.52C135.349 127.427 135.389 127.34 135.415 127.26C135.455 127.167 135.489 127.073 135.515 126.98C135.555 126.873 135.555 126.773 135.515 126.68C135.489 126.6 135.475 126.527 135.475 126.46C135.475 126.38 135.482 126.3 135.495 126.22C135.495 126.073 135.549 125.947 135.655 125.84C135.709 125.773 135.762 125.72 135.815 125.68C135.882 125.627 135.942 125.573 135.995 125.52C136.115 125.4 136.209 125.24 136.275 125.04C136.329 124.867 136.369 124.693 136.395 124.52C136.435 124.333 136.475 124.153 136.515 123.98C136.542 123.807 136.569 123.64 136.595 123.48C136.635 123.307 136.675 123.14 136.715 122.98C136.729 122.913 136.742 122.853 136.755 122.8C136.782 122.733 136.802 122.673 136.815 122.62C136.855 122.513 136.895 122.413 136.935 122.32C136.975 122.213 137.002 122.107 137.015 122C137.042 121.947 137.042 121.9 137.015 121.86C137.002 121.793 137.002 121.733 137.015 121.68C137.042 121.627 137.062 121.573 137.075 121.52C137.115 121.427 137.142 121.333 137.155 121.24C137.182 121.147 137.215 121.053 137.255 120.96C137.322 120.787 137.375 120.647 137.415 120.54C137.469 120.42 137.515 120.287 137.555 120.14C137.582 120.06 137.609 119.987 137.635 119.92C137.675 119.84 137.702 119.76 137.715 119.68C137.755 119.56 137.789 119.44 137.815 119.32C137.842 119.187 137.855 119.06 137.855 118.94C137.882 118.833 137.909 118.76 137.935 118.72C138.002 118.587 138.082 118.473 138.175 118.38C138.282 118.287 138.382 118.193 138.475 118.1C138.542 118.06 138.609 118.033 138.675 118.02C138.742 117.993 138.809 118 138.875 118.04C138.929 118.067 138.962 118.08 138.975 118.08C139.095 118.067 139.195 118.093 139.275 118.16C139.355 118.227 139.422 118.307 139.475 118.4C139.502 118.427 139.522 118.46 139.535 118.5C139.549 118.54 139.562 118.573 139.575 118.6C139.642 118.707 139.675 118.813 139.675 118.92C139.675 118.973 139.682 119.033 139.695 119.1C139.709 119.153 139.722 119.213 139.735 119.28C139.775 119.36 139.835 119.4 139.915 119.4C139.929 119.387 139.942 119.387 139.955 119.4C139.969 119.413 139.975 119.427 139.975 119.44C140.042 119.52 140.062 119.607 140.035 119.7C140.009 119.807 140.002 119.913 140.015 120.02C140.042 120.113 140.069 120.213 140.095 120.32C140.149 120.453 140.202 120.587 140.255 120.72C140.309 120.853 140.362 120.987 140.415 121.12C140.482 121.267 140.549 121.413 140.615 121.56C140.682 121.707 140.742 121.853 140.795 122C140.862 122.187 140.929 122.373 140.995 122.56C141.075 122.747 141.162 122.933 141.255 123.12L141.315 123.34C141.329 123.393 141.342 123.447 141.355 123.5C141.382 123.553 141.402 123.607 141.415 123.66C141.442 123.7 141.462 123.74 141.475 123.78C141.502 123.82 141.529 123.853 141.555 123.88C141.622 123.973 141.662 124.073 141.675 124.18C141.715 124.313 141.775 124.433 141.855 124.54C141.882 124.58 141.922 124.6 141.975 124.6C142.175 124.573 142.375 124.553 142.575 124.54C142.775 124.513 142.975 124.473 143.175 124.42C143.322 124.38 143.462 124.36 143.595 124.36C143.849 124.36 144.082 124.447 144.295 124.62C144.549 124.82 144.682 125.073 144.695 125.38C144.695 125.447 144.702 125.5 144.715 125.54C144.715 125.633 144.689 125.707 144.635 125.76C144.622 125.8 144.595 125.84 144.555 125.88C144.529 125.92 144.502 125.96 144.475 126C144.449 126.053 144.422 126.093 144.395 126.12L144.275 126.22C144.262 126.247 144.242 126.28 144.215 126.32C144.189 126.347 144.155 126.367 144.115 126.38C144.062 126.393 144.009 126.413 143.955 126.44C143.902 126.453 143.842 126.46 143.775 126.46C143.535 126.487 143.322 126.48 143.135 126.44H142.815C142.789 126.44 142.749 126.453 142.695 126.48C142.642 126.507 142.615 126.54 142.615 126.58V126.66C142.655 126.78 142.682 126.907 142.695 127.04C142.722 127.16 142.762 127.273 142.815 127.38C142.815 127.433 142.829 127.487 142.855 127.54C142.922 127.66 142.975 127.787 143.015 127.92C143.055 128.04 143.089 128.167 143.115 128.3C143.115 128.327 143.129 128.38 143.155 128.46C143.195 128.553 143.229 128.653 143.255 128.76C143.282 128.853 143.302 128.953 143.315 129.06C143.315 129.14 143.335 129.213 143.375 129.28C143.429 129.4 143.469 129.52 143.495 129.64C143.522 129.76 143.542 129.887 143.555 130.02C143.569 130.033 143.575 130.06 143.575 130.1C143.575 130.127 143.582 130.153 143.595 130.18C143.662 130.327 143.709 130.487 143.735 130.66C143.762 130.82 143.795 130.98 143.835 131.14C143.862 131.22 143.875 131.3 143.875 131.38C143.889 131.473 143.895 131.567 143.895 131.66C143.895 131.727 143.875 131.8 143.835 131.88C143.795 131.92 143.775 131.94 143.775 131.94C143.695 131.953 143.649 132 143.635 132.08L143.575 132.2C143.549 132.253 143.509 132.287 143.455 132.3C143.402 132.3 143.355 132.32 143.315 132.36C143.262 132.413 143.189 132.44 143.095 132.44C143.042 132.44 142.975 132.44 142.895 132.44C142.829 132.44 142.762 132.447 142.695 132.46ZM137.875 125.2C137.955 125.187 138.035 125.173 138.115 125.16C138.209 125.147 138.309 125.133 138.415 125.12C138.482 125.107 138.569 125.093 138.675 125.08C138.782 125.067 138.882 125.053 138.975 125.04C139.069 125.013 139.162 125 139.255 125C139.349 124.987 139.442 124.973 139.535 124.96C139.615 124.933 139.695 124.92 139.775 124.92C139.855 124.907 139.935 124.893 140.015 124.88C140.135 124.853 140.182 124.787 140.155 124.68C140.142 124.573 140.115 124.467 140.075 124.36C140.049 124.24 139.989 124.14 139.895 124.06C139.869 124.033 139.855 123.993 139.855 123.94V123.88C139.829 123.773 139.795 123.673 139.755 123.58C139.729 123.473 139.695 123.373 139.655 123.28C139.629 123.173 139.595 123.08 139.555 123C139.529 122.907 139.495 122.813 139.455 122.72L139.215 122C139.175 121.907 139.135 121.813 139.095 121.72C139.069 121.627 139.042 121.533 139.015 121.44L138.955 121.36H138.895L138.855 121.42C138.789 121.62 138.709 121.82 138.615 122.02C138.535 122.22 138.462 122.433 138.395 122.66C138.395 122.687 138.389 122.72 138.375 122.76C138.362 122.8 138.349 122.84 138.335 122.88C138.282 123.013 138.229 123.16 138.175 123.32C138.135 123.48 138.102 123.64 138.075 123.8C138.062 123.893 138.049 123.987 138.035 124.08C138.022 124.16 138.002 124.247 137.975 124.34L137.795 125.12C137.782 125.133 137.789 125.153 137.815 125.18C137.842 125.193 137.862 125.2 137.875 125.2ZM150.835 130.98C150.808 130.967 150.768 130.96 150.715 130.96C150.688 130.96 150.661 130.94 150.635 130.9C150.608 130.86 150.581 130.827 150.555 130.8C150.528 130.76 150.501 130.713 150.475 130.66C150.435 130.607 150.401 130.607 150.375 130.66H150.335C150.335 130.647 150.328 130.64 150.315 130.64C150.315 130.627 150.315 130.62 150.315 130.62C150.275 130.433 150.215 130.26 150.135 130.1C150.095 129.993 150.055 129.887 150.015 129.78C149.988 129.66 149.968 129.54 149.955 129.42L149.835 128.54L149.775 127.82V127.78C149.748 127.62 149.735 127.46 149.735 127.3C149.735 127.127 149.735 126.953 149.735 126.78C149.721 126.687 149.715 126.6 149.715 126.52C149.715 126.427 149.708 126.333 149.695 126.24C149.681 126.133 149.668 126.027 149.655 125.92C149.655 125.813 149.655 125.713 149.655 125.62L149.675 124.04V121.9C149.648 121.82 149.608 121.78 149.555 121.78C149.528 121.78 149.495 121.787 149.455 121.8C149.428 121.8 149.401 121.8 149.375 121.8L148.475 122.04C148.355 122.08 148.235 122.12 148.115 122.16C147.995 122.187 147.875 122.22 147.755 122.26C147.661 122.273 147.568 122.287 147.475 122.3C147.395 122.3 147.308 122.3 147.215 122.3C147.148 122.3 147.075 122.273 146.995 122.22C146.901 122.18 146.821 122.127 146.755 122.06C146.688 121.993 146.621 121.92 146.555 121.84L146.515 121.78C146.488 121.687 146.461 121.6 146.435 121.52C146.421 121.427 146.421 121.333 146.435 121.24C146.448 121.12 146.475 121.007 146.515 120.9C146.568 120.793 146.641 120.7 146.735 120.62C146.775 120.593 146.808 120.56 146.835 120.52C146.875 120.48 146.915 120.44 146.955 120.4C147.008 120.373 147.041 120.36 147.055 120.36C147.135 120.36 147.208 120.347 147.275 120.32C147.341 120.28 147.408 120.253 147.475 120.24C147.541 120.227 147.608 120.213 147.675 120.2C147.741 120.187 147.808 120.173 147.875 120.16C148.061 120.107 148.248 120.06 148.435 120.02C148.621 119.967 148.808 119.927 148.995 119.9L150.075 119.72C150.101 119.707 150.121 119.7 150.135 119.7C150.161 119.7 150.181 119.693 150.195 119.68C150.275 119.653 150.355 119.633 150.435 119.62C150.515 119.607 150.595 119.613 150.675 119.64C150.701 119.653 150.721 119.66 150.735 119.66C150.761 119.647 150.781 119.64 150.795 119.64C151.021 119.613 151.248 119.587 151.475 119.56C151.701 119.533 151.921 119.5 152.135 119.46C152.308 119.433 152.481 119.407 152.655 119.38C152.828 119.353 153.001 119.333 153.175 119.32C153.308 119.293 153.441 119.273 153.575 119.26C153.708 119.247 153.841 119.233 153.975 119.22C154.081 119.207 154.188 119.193 154.295 119.18C154.415 119.167 154.528 119.153 154.635 119.14C154.741 119.127 154.841 119.127 154.935 119.14C155.041 119.14 155.148 119.14 155.255 119.14C155.321 119.14 155.381 119.16 155.435 119.2C155.501 119.24 155.561 119.273 155.615 119.3C155.668 119.34 155.741 119.407 155.835 119.5C155.861 119.527 155.888 119.587 155.915 119.68C155.928 119.72 155.941 119.767 155.955 119.82C155.968 119.86 155.981 119.907 155.995 119.96C156.021 120.08 156.008 120.193 155.955 120.3L155.835 120.58C155.821 120.62 155.801 120.66 155.775 120.7C155.761 120.727 155.741 120.753 155.715 120.78C155.688 120.807 155.675 120.82 155.675 120.82C155.621 120.86 155.561 120.9 155.495 120.94C155.441 120.98 155.375 121.007 155.295 121.02L154.435 121.08C154.355 121.08 154.275 121.087 154.195 121.1C154.115 121.1 154.028 121.107 153.935 121.12H153.835C153.621 121.133 153.415 121.153 153.215 121.18C153.015 121.207 152.815 121.233 152.615 121.26L151.815 121.38C151.775 121.38 151.748 121.387 151.735 121.4C151.681 121.4 151.641 121.44 151.615 121.52V121.58C151.615 121.713 151.615 121.847 151.615 121.98C151.615 122.1 151.621 122.227 151.635 122.36C151.675 122.547 151.675 122.733 151.635 122.92C151.621 122.96 151.608 123 151.595 123.04C151.595 123.067 151.595 123.093 151.595 123.12C151.608 123.28 151.595 123.453 151.555 123.64C151.555 123.68 151.555 123.72 151.555 123.76C151.555 123.8 151.561 123.84 151.575 123.88C151.588 123.933 151.595 123.993 151.595 124.06C151.595 124.127 151.595 124.193 151.595 124.26V125.3C151.595 125.353 151.588 125.42 151.575 125.5C151.575 125.567 151.575 125.633 151.575 125.7C151.575 125.753 151.575 125.813 151.575 125.88C151.588 125.947 151.595 126.013 151.595 126.08C151.595 126.173 151.595 126.267 151.595 126.36C151.608 126.453 151.608 126.553 151.595 126.66V127.28C151.595 127.293 151.588 127.307 151.575 127.32C151.575 127.333 151.581 127.353 151.595 127.38C151.608 127.5 151.615 127.627 151.615 127.76C151.615 127.88 151.628 128 151.655 128.12C151.655 128.16 151.655 128.2 151.655 128.24C151.668 128.28 151.668 128.32 151.655 128.36C151.655 128.48 151.668 128.607 151.695 128.74C151.721 128.86 151.741 128.98 151.755 129.1C151.781 129.247 151.808 129.393 151.835 129.54C151.875 129.687 151.908 129.833 151.935 129.98L151.995 130.26C151.995 130.3 151.975 130.333 151.935 130.36C151.935 130.36 151.928 130.36 151.915 130.36C151.915 130.36 151.908 130.367 151.895 130.38C151.828 130.407 151.801 130.447 151.815 130.5V130.6C151.815 130.6 151.808 130.607 151.795 130.62C151.795 130.633 151.788 130.64 151.775 130.64C151.708 130.64 151.655 130.667 151.615 130.72C151.575 130.773 151.528 130.82 151.475 130.86C151.435 130.887 151.381 130.913 151.315 130.94C151.141 131.007 150.981 131.02 150.835 130.98Z" fill="white"/>
<defs>
<clipPath id="clip0_5_975">
<rect width="87.9966" height="95.9688" fill="white" transform="translate(37.9632)"/>
</clipPath>
</defs>
</svg>
