<svg width="531" height="370" viewBox="0 0 531 370" fill="none" xmlns="http://www.w3.org/2000/svg">
<rect width="531" height="370" rx="22" fill="#BAE0CD"/>
<path d="M261.667 138.48C261.667 138.48 273.156 160.116 279.698 170.683C284.609 178.616 290.426 190.052 297.176 200.312C306.204 214.033 315.729 225.809 315.729 225.809L298.333 224.528L282.079 224.167L261.763 224.852C261.763 224.852 261.302 221.165 261.447 219.325C261.602 217.348 262.563 215.476 262.71 213.499C262.917 210.722 262.216 207.948 262.167 205.165C262.014 196.592 263.133 188.025 262.925 179.453C262.787 173.782 261.895 168.147 261.597 162.482C261.352 157.833 261.178 153.177 261.219 148.523C261.248 145.172 261.667 138.48 261.667 138.48V138.48Z" fill="white"/>
<path d="M258.717 138.48L240.778 168.057L220.509 198.246L205.185 224.503C205.185 224.503 213.445 225.328 217.588 225.292C222.493 225.251 227.346 224.251 232.249 224.108C235.933 224 239.621 224.506 243.303 224.354C246.04 224.241 248.735 223.381 251.472 223.494C253.9 223.595 258.621 224.852 258.621 224.852L258.45 214.297L259.417 203.965L259.401 192.209L258.632 181.664L258.661 167.002L258.717 138.48Z" fill="white"/>
<path d="M224.469 228.155C254.774 227.991 280.172 228.007 307.873 228.415C298.584 244.121 297.366 245.58 288.59 255.88C288.59 255.88 284.66 255.459 278.486 255.5C276.219 255.515 273.454 256.022 270.748 256.023C267.354 256.023 263.223 256.279 259.557 256.17C254.996 256.034 250.867 255.526 246.407 255.526C243.851 255.526 239.188 255.775 236.864 255.823C231.858 255.928 229.773 255.88 227.132 255.88C221.761 255.879 208.362 228.508 219.573 228.25C225.157 228.122 224.415 228.155 224.469 228.155V228.155Z" fill="#254E6B"/>
<path d="M236.714 243.245C239.595 243.245 241.931 241.037 241.931 238.314C241.931 235.59 239.595 233.383 236.714 233.383C233.833 233.383 231.497 235.59 231.497 238.314C231.497 241.037 233.833 243.245 236.714 243.245Z" fill="white"/>
<path d="M260.297 243.245C263.178 243.245 265.513 241.037 265.513 238.314C265.513 235.59 263.178 233.383 260.297 233.383C257.416 233.383 255.08 235.59 255.08 238.314C255.08 241.037 257.416 243.245 260.297 243.245Z" fill="white"/>
<path d="M283.88 243.245C286.761 243.245 289.096 241.037 289.096 238.314C289.096 235.59 286.761 233.383 283.88 233.383C280.999 233.383 278.663 235.59 278.663 238.314C278.663 241.037 280.999 243.245 283.88 243.245Z" fill="white"/>
<path fill-rule="evenodd" clip-rule="evenodd" d="M261.282 130.145C261.282 130.145 261.847 132.914 261.837 134.315C261.829 135.588 261.282 138.098 261.282 138.098C261.282 138.098 266.394 137.213 268.57 136.646C271.331 135.927 276.007 134.121 276.007 134.121C276.007 134.121 270.511 133.207 267.838 132.467C265.598 131.848 261.282 130.145 261.282 130.145V130.145Z" fill="#254E6B"/>
<path fill-rule="evenodd" clip-rule="evenodd" d="M269.361 321.492C281.439 312.521 291.467 320.398 300.649 329.307C288.794 332.78 276.241 334.356 269.361 321.492Z" fill="#02836F"/>
<path fill-rule="evenodd" clip-rule="evenodd" d="M272.263 313.771C272.799 297.963 284.644 293.987 296.751 291.356C292.259 303.689 285.938 315.494 272.263 313.771Z" fill="#02836F"/>
<path fill-rule="evenodd" clip-rule="evenodd" d="M290.9 314.37C302.232 304.329 312.841 311.265 322.69 319.304C311.15 323.846 298.764 326.56 290.9 314.37Z" fill="#02836F"/>
<path fill-rule="evenodd" clip-rule="evenodd" d="M301.408 306.874C294.347 293.01 302.62 283.04 311.76 274.08C313.773 287.151 313.965 300.783 301.408 306.874Z" fill="#02836F"/>
<path fill-rule="evenodd" clip-rule="evenodd" d="M310.581 306.565C318.917 293.553 330.886 297.076 342.403 301.886C332.465 309.675 321.247 315.957 310.581 306.567V306.565Z" fill="#02836F"/>
<path fill-rule="evenodd" clip-rule="evenodd" d="M322.356 294.958C311.568 284.244 316.466 271.95 322.483 260.316C328.252 272.014 332.46 284.869 322.356 294.958Z" fill="#02836F"/>
<path fill-rule="evenodd" clip-rule="evenodd" d="M328.088 293.649C333.978 279.163 346.349 280.166 358.504 282.526C350.12 292.211 340.216 300.679 328.088 293.649Z" fill="#02836F"/>
<path fill-rule="evenodd" clip-rule="evenodd" d="M337.917 279.645C325.473 271.272 328.172 258.214 332.084 245.578C339.765 255.92 346.11 267.708 337.917 279.645Z" fill="#02836F"/>
<path fill-rule="evenodd" clip-rule="evenodd" d="M342.26 277.684C345.505 262.258 357.828 260.72 370.177 260.558C363.643 271.778 355.402 282.114 342.26 277.684Z" fill="#02836F"/>
<path fill-rule="evenodd" clip-rule="evenodd" d="M345.956 255.015C332.706 248.237 334.001 234.929 336.546 221.894C345.274 231.218 352.829 242.146 345.956 255.015Z" fill="#02836F"/>
<path fill-rule="evenodd" clip-rule="evenodd" d="M348.164 259.426C349.688 243.693 361.755 240.588 374 238.845C368.747 250.822 361.702 262.141 348.164 259.426Z" fill="#02836F"/>
<path fill-rule="evenodd" clip-rule="evenodd" d="M351.526 229.227C337.206 225.813 335.712 212.529 335.493 199.208C345.931 206.194 355.559 215.025 351.526 229.227Z" fill="#02836F"/>
<path fill-rule="evenodd" clip-rule="evenodd" d="M354.328 240.829C350.184 225.656 360.246 217.83 370.954 211.189C370.324 224.422 367.804 237.781 354.328 240.829Z" fill="#02836F"/>
<path fill-rule="evenodd" clip-rule="evenodd" d="M345.893 199.421C331.246 200.212 326.549 187.828 323.073 175.045C334.852 178.805 346.302 184.577 345.893 199.421Z" fill="#02836F"/>
<path fill-rule="evenodd" clip-rule="evenodd" d="M355.324 216.448C346.521 203.796 353.41 192.668 361.288 182.41C364.989 195.044 366.96 208.509 355.324 216.448Z" fill="#02836F"/>
<path fill-rule="evenodd" clip-rule="evenodd" d="M339.486 176.915C324.846 176.002 321.409 163.146 319.225 150.033C330.562 155.136 341.372 162.202 339.486 176.915Z" fill="#02836F"/>
<path fill-rule="evenodd" clip-rule="evenodd" d="M348.831 190.564C337.831 180.106 342.481 167.7 348.264 155.927C354.266 167.49 358.731 180.243 348.831 190.564Z" fill="#02836F"/>
<path fill-rule="evenodd" clip-rule="evenodd" d="M254.639 321.721C242.561 312.75 232.533 320.627 223.351 329.536C235.206 333.009 247.759 334.585 254.639 321.721Z" fill="#02836F"/>
<path fill-rule="evenodd" clip-rule="evenodd" d="M251.736 314C251.2 298.192 239.355 294.216 227.249 291.585C231.74 303.918 238.062 315.723 251.736 314Z" fill="#02836F"/>
<path fill-rule="evenodd" clip-rule="evenodd" d="M233.1 314.598C221.768 304.558 211.159 311.493 201.31 319.532C212.85 324.074 225.235 326.789 233.1 314.598Z" fill="#02836F"/>
<path fill-rule="evenodd" clip-rule="evenodd" d="M222.591 307.102C229.653 293.239 221.38 283.269 212.24 274.308C210.227 287.379 210.034 301.011 222.591 307.102Z" fill="#02836F"/>
<path fill-rule="evenodd" clip-rule="evenodd" d="M213.419 306.794C205.083 293.782 193.114 297.304 181.597 302.115C191.535 309.903 202.753 316.185 213.419 306.795V306.794Z" fill="#02836F"/>
<path fill-rule="evenodd" clip-rule="evenodd" d="M201.644 295.187C212.432 284.472 207.534 272.178 201.517 260.544C195.748 272.242 191.54 285.097 201.644 295.187Z" fill="#02836F"/>
<path fill-rule="evenodd" clip-rule="evenodd" d="M195.912 293.877C190.022 279.391 177.651 280.395 165.496 282.754C173.88 292.439 183.784 300.908 195.912 293.877Z" fill="#02836F"/>
<path fill-rule="evenodd" clip-rule="evenodd" d="M186.083 279.873C198.527 271.5 195.828 258.442 191.916 245.806C184.235 256.148 177.89 267.936 186.083 279.873Z" fill="#02836F"/>
<path fill-rule="evenodd" clip-rule="evenodd" d="M181.74 277.913C178.495 262.487 166.172 260.949 153.823 260.787C160.357 272.007 168.598 282.343 181.74 277.913Z" fill="#02836F"/>
<path fill-rule="evenodd" clip-rule="evenodd" d="M178.044 255.243C191.294 248.465 189.999 235.158 187.454 222.123C178.726 231.446 171.171 242.374 178.044 255.243Z" fill="#02836F"/>
<path fill-rule="evenodd" clip-rule="evenodd" d="M175.836 259.655C174.312 243.922 162.245 240.817 150 239.074C155.253 251.051 162.298 262.37 175.836 259.655Z" fill="#02836F"/>
<path fill-rule="evenodd" clip-rule="evenodd" d="M172.474 229.456C186.794 226.042 188.288 212.758 188.507 199.438C178.069 206.423 168.441 215.254 172.474 229.456Z" fill="#02836F"/>
<path fill-rule="evenodd" clip-rule="evenodd" d="M169.671 241.057C173.816 225.884 163.754 218.058 153.046 211.417C153.676 224.65 156.196 238.009 169.671 241.057Z" fill="#02836F"/>
<path fill-rule="evenodd" clip-rule="evenodd" d="M178.107 199.65C192.754 200.441 197.451 188.057 200.927 175.273C189.148 179.034 177.698 184.805 178.107 199.65Z" fill="#02836F"/>
<path fill-rule="evenodd" clip-rule="evenodd" d="M168.676 216.677C177.479 204.025 170.59 192.897 162.712 182.639C159.011 195.273 157.04 208.738 168.676 216.677Z" fill="#02836F"/>
<path fill-rule="evenodd" clip-rule="evenodd" d="M184.514 177.144C199.154 176.231 202.591 163.375 204.775 150.262C193.437 155.365 182.628 162.431 184.514 177.144Z" fill="#02836F"/>
<path fill-rule="evenodd" clip-rule="evenodd" d="M175.169 190.793C186.169 180.334 181.519 167.929 175.736 156.156C169.734 167.719 165.269 180.472 175.169 190.793Z" fill="#02836F"/>
<path d="M266.207 318.533C266.207 319.749 265.76 320.914 264.963 321.773C264.166 322.633 263.086 323.115 261.959 323.115C260.833 323.115 259.752 322.633 258.955 321.773C258.159 320.914 257.711 319.749 257.711 318.533C257.711 317.318 258.159 316.153 258.955 315.293C259.752 314.434 260.833 313.951 261.959 313.951C263.086 313.951 264.166 314.434 264.963 315.293C265.76 316.153 266.207 317.318 266.207 318.533V318.533Z" fill="#02836F"/>
<path d="M186.528 103.88C186.059 103.88 185.653 103.752 185.312 103.496C185.013 103.283 184.715 103.005 184.416 102.664C183.861 101.939 183.392 101.32 183.008 100.808C182.624 100.296 182.432 99.528 182.432 98.504V96.52C182.432 96.136 182.539 95.56 182.752 94.792C182.965 93.9813 183.221 93.192 183.52 92.424C183.861 91.656 184.16 91.144 184.416 90.888C184.8 89.6507 185.248 88.4347 185.76 87.24C186.272 86.0453 186.933 84.9573 187.744 83.976C187.317 82.952 187.04 81.9067 186.912 80.84C186.784 79.7307 186.72 78.6213 186.72 77.512C186.72 77.1707 186.72 76.872 186.72 76.616C186.763 76.3173 186.805 75.9973 186.848 75.656L187.04 75.4L187.104 75.336V75.08C187.061 75.0373 187.04 74.9733 187.04 74.888C187.04 74.7173 187.104 74.44 187.232 74.056C187.36 73.672 187.467 73.288 187.552 72.904C187.68 72.52 187.744 72.3067 187.744 72.264C187.744 72.1787 187.829 72.1147 188 72.072L188.32 71.944C188.363 71.9013 188.469 71.8373 188.64 71.752L188.832 71.624C189.216 71.112 189.771 70.7493 190.496 70.536C191.264 70.3227 191.947 70.216 192.544 70.216C193.824 70.216 194.763 70.664 195.36 71.56C196 72.4133 196.491 73.3947 196.832 74.504C197.131 74.2907 197.429 74.184 197.728 74.184C197.856 74.184 197.963 74.2267 198.048 74.312C198.731 74.4827 199.499 74.8453 200.352 75.4C201.248 75.9547 201.696 76.552 201.696 77.192V77.32C201.696 77.5333 201.483 77.832 201.056 78.216C200.629 78.6 200.117 79.0053 199.52 79.432C198.965 79.816 198.411 80.1787 197.856 80.52C197.344 80.8613 196.981 81.096 196.768 81.224C196.469 81.3947 196.171 81.544 195.872 81.672C195.701 81.7147 195.552 81.8 195.424 81.928C195.296 82.0133 195.147 82.0987 194.976 82.184C194.763 82.3547 194.549 82.5253 194.336 82.696C194.165 82.8667 193.973 83.0587 193.76 83.272L193.184 83.848C193.056 83.976 192.949 84.104 192.864 84.232C192.779 84.3173 192.672 84.4027 192.544 84.488C192.459 84.5733 192.309 84.68 192.096 84.808C191.925 84.936 191.733 85.0853 191.52 85.256C191.008 85.5973 190.731 85.9173 190.688 86.216C190.645 86.2587 190.56 86.4507 190.432 86.792C190.347 87.0907 190.304 87.304 190.304 87.432C190.304 87.9013 190.368 88.4773 190.496 89.16C190.624 89.8 190.816 90.4187 191.072 91.016C191.2 91.3573 191.2 91.7413 191.072 92.168C190.944 92.552 190.709 92.616 190.368 92.36C190.027 92.0187 189.728 91.5707 189.472 91.016C189.216 90.4613 189.067 90.056 189.024 89.8C188.981 89.7147 189.003 89.6507 189.088 89.608C189.173 89.5653 189.173 89.5013 189.088 89.416L188.96 89.288C188.917 89.2453 188.896 89.1813 188.896 89.096C188.896 89.096 188.853 89.0533 188.768 88.968C188.427 89.3093 188.064 89.8853 187.68 90.696C187.296 91.464 187.019 92.0613 186.848 92.488L186.464 93.384C186.251 93.8533 186.101 94.088 186.016 94.088C185.845 94.088 185.76 93.9813 185.76 93.768V93.704C185.76 93.448 185.824 93.1707 185.952 92.872L186.336 91.848C186.123 92.1893 185.931 92.5733 185.76 93C185.632 93.384 185.568 93.64 185.568 93.768V93.832L185.632 93.96C185.632 94.0027 185.653 94.0453 185.696 94.088V94.344C185.653 94.344 185.632 94.3867 185.632 94.472C185.547 94.8987 185.44 95.3253 185.312 95.752C185.184 96.1787 185.056 96.6053 184.928 97.032C184.629 97.8 184.48 98.696 184.48 99.72C184.48 100.403 184.608 101 184.864 101.512C185.12 102.024 185.611 102.28 186.336 102.28C186.72 102.28 187.061 102.216 187.36 102.088C187.701 101.96 188.192 101.64 188.832 101.128C189.515 100.659 190.197 100.104 190.88 99.464C191.563 98.7813 192.139 98.1413 192.608 97.544C193.12 96.9467 193.376 96.4987 193.376 96.2C193.504 95.9867 193.675 95.7733 193.888 95.56C194.101 95.304 194.165 95.0693 194.08 94.856C194.635 94.0027 195.104 92.9787 195.488 91.784C195.915 90.5467 196.256 89.288 196.512 88.008C196.811 86.728 197.003 85.5973 197.088 84.616C197.173 84.2747 197.237 84.04 197.28 83.912C197.365 83.7413 197.429 83.6347 197.472 83.592L197.536 83.528C197.621 83.4427 197.664 83.3147 197.664 83.144C197.664 83.0587 197.664 82.952 197.664 82.824C197.664 82.696 197.643 82.568 197.6 82.44C197.515 82.184 197.472 81.9493 197.472 81.736C197.472 81.5653 197.536 81.3307 197.664 81.032C197.792 80.7333 197.984 80.584 198.24 80.584C198.539 80.584 198.773 80.8187 198.944 81.288C199.115 81.7573 199.243 82.2693 199.328 82.824C199.456 83.336 199.52 83.7413 199.52 84.04C199.52 85.0213 199.413 86.1307 199.2 87.368C198.987 88.5627 198.709 89.6507 198.368 90.632C198.069 91.4427 197.728 92.1467 197.344 92.744C197.003 93.3413 196.597 94.0027 196.128 94.728L195.488 95.752L195.232 96.2C195.189 96.1573 195.147 96.2427 195.104 96.456C195.104 96.6267 195.061 96.712 194.976 96.712C194.933 96.712 194.891 96.7547 194.848 96.84C194.848 96.8827 194.827 96.9253 194.784 96.968C194.571 97.3093 194.315 97.608 194.016 97.864C193.845 98.0347 193.675 98.2053 193.504 98.376C193.376 98.504 193.269 98.6533 193.184 98.824C192.715 99.5067 192.117 100.232 191.392 101C190.709 101.811 189.941 102.493 189.088 103.048C188.277 103.603 187.424 103.88 186.528 103.88ZM189.344 82.312L189.408 82.184L189.536 81.672C189.664 81.1173 190.133 80.456 190.944 79.688C191.755 78.92 192.416 78.28 192.928 77.768C193.312 77.4267 193.696 77.0427 194.08 76.616C194.464 76.1893 194.848 75.8267 195.232 75.528C195.147 75.1867 194.955 74.7387 194.656 74.184C194.4 73.6293 194.101 73.1387 193.76 72.712C193.461 72.2427 193.163 72.008 192.864 72.008C192.395 72.008 191.968 72.2 191.584 72.584L191.456 72.712C191.413 72.84 191.328 72.904 191.2 72.904L190.88 73.096C190.88 73.1387 190.859 73.16 190.816 73.16V73.288C190.645 73.672 190.453 74.0773 190.24 74.504C190.112 74.6747 190.005 74.8453 189.92 75.016C189.877 75.144 189.835 75.2507 189.792 75.336C189.579 76.0613 189.387 76.808 189.216 77.576C189.088 78.344 189.024 79.112 189.024 79.88C189.024 80.3067 189.045 80.7333 189.088 81.16C189.131 81.544 189.216 81.928 189.344 82.312ZM204.805 102.984C204.591 102.984 204.378 102.92 204.165 102.792C203.951 102.664 203.738 102.557 203.525 102.472C202.415 101.832 201.669 100.979 201.285 99.912C200.943 98.8027 200.773 97.672 200.773 96.52C200.773 94.8987 200.965 93.2773 201.349 91.656C201.732 90.0347 202.159 88.4347 202.629 86.856C203.567 83.6133 204.762 80.4987 206.213 77.512C207.663 74.4827 209.327 71.56 211.205 68.744C211.503 68.2747 211.802 67.8267 212.101 67.4C212.442 66.9733 212.783 66.5467 213.125 66.12C213.466 65.6933 213.786 65.2667 214.085 64.84C214.383 64.3707 214.682 63.944 214.981 63.56L215.877 62.408C216.047 62.2373 216.197 62.0667 216.325 61.896C216.453 61.6827 216.581 61.4907 216.708 61.32C216.794 61.064 216.837 60.872 216.837 60.744C216.794 60.616 216.773 60.424 216.773 60.168C216.773 59.7413 217.05 59.2507 217.605 58.696C217.861 58.44 218.074 58.2267 218.245 58.056C218.458 57.8427 218.629 57.6507 218.757 57.48C219.013 57.1813 219.247 56.8613 219.461 56.52C219.717 56.1787 219.951 55.8373 220.165 55.496C220.378 55.1547 220.591 54.8133 220.805 54.472C221.061 54.1307 221.295 53.8107 221.509 53.512C221.807 53.1707 222.106 52.8293 222.405 52.488C222.703 52.104 223.002 51.7627 223.301 51.464C223.599 51.1227 223.877 50.7813 224.133 50.44C224.431 50.0987 224.687 49.7147 224.901 49.288C225.626 49.4587 226.373 49.6933 227.141 49.992C227.909 50.2907 228.549 50.6747 229.061 51.144C229.615 51.6133 229.893 52.2533 229.893 53.064C229.893 53.3627 229.765 53.6827 229.509 54.024C228.613 54.9627 227.653 55.8587 226.629 56.712C226.074 57.1387 225.562 57.5867 225.093 58.056C224.623 58.5253 224.175 58.9947 223.749 59.464C222.426 60.9147 221.061 62.664 219.653 64.712C218.245 66.7173 216.922 68.7867 215.685 70.92C214.447 73.0533 213.423 75.016 212.613 76.808L212.293 77.32L211.781 77.64V77.256L211.909 76.808C211.653 77.2347 211.418 77.6613 211.205 78.088C210.991 78.5147 210.778 78.9627 210.565 79.432L209.22 82.184C208.837 82.952 208.453 83.7413 208.069 84.552C207.727 85.3627 207.45 86.1947 207.237 87.048C207.194 87.176 207.173 87.3253 207.173 87.496C207.173 87.7093 207.151 87.88 207.109 88.008C207.109 88.264 206.959 88.392 206.661 88.392C206.49 88.392 206.405 88.3067 206.405 88.136C206.405 87.496 206.575 86.8347 206.917 86.152C206.874 86.1947 206.831 86.2587 206.789 86.344C206.746 86.3867 206.682 86.4293 206.597 86.472C206.511 86.3013 206.469 86.1947 206.469 86.152V86.088C206.469 85.5333 206.554 84.9573 206.725 84.36C206.511 84.5733 206.383 84.7867 206.341 85C206.255 85.2987 206.149 85.6187 206.021 85.96C205.935 86.2587 205.807 86.5787 205.637 86.92C205.466 87.2187 205.338 87.5387 205.253 87.88C205.167 88.1787 205.082 88.4773 204.997 88.776L204.613 90.888C204.57 91.2293 204.506 91.592 204.421 91.976C204.335 92.3173 204.25 92.6587 204.165 93C203.951 94.152 203.845 95.24 203.845 96.264C203.845 96.3493 203.845 96.456 203.845 96.584C203.845 96.712 203.866 96.84 203.909 96.968C203.951 97.096 203.973 97.224 203.973 97.352C203.973 97.48 203.994 97.6293 204.036 97.8L204.229 98.504C204.271 98.5893 204.293 98.696 204.293 98.824C204.293 98.952 204.314 99.0587 204.357 99.144C204.442 98.9307 204.634 98.8027 204.933 98.76V99.08C205.103 99.2507 205.231 99.4 205.317 99.528C205.445 99.656 205.615 99.72 205.829 99.72C206.426 99.72 207.045 99.4427 207.685 98.888C208.325 98.3333 208.922 97.6933 209.477 96.968C210.031 96.2427 210.437 95.6453 210.693 95.176C210.863 94.9627 211.034 94.7493 211.205 94.536C211.375 94.3227 211.546 94.1307 211.717 93.96C211.93 93.7893 212.101 93.5973 212.229 93.384C212.399 93.1707 212.57 92.9573 212.741 92.744C213.637 91.3787 214.469 90.0347 215.237 88.712C215.322 88.5413 215.407 88.392 215.493 88.264C215.578 88.136 215.663 88.0293 215.749 87.944L216.26 87.432C216.517 87.176 216.687 87.048 216.773 87.048C216.901 87.048 216.965 87.1333 216.965 87.304C216.965 87.3467 216.858 87.624 216.645 88.136C216.431 88.648 216.239 89.0107 216.069 89.224L216.133 89.288C215.663 89.9707 215.215 90.6533 214.789 91.336C214.362 92.0187 213.978 92.7227 213.637 93.448C213.295 94.1733 212.911 94.8773 212.485 95.56C212.101 96.2427 211.674 96.9253 211.205 97.608C210.778 98.248 210.351 98.952 209.925 99.72C209.498 100.445 209.029 101.085 208.517 101.64C208.047 102.237 207.429 102.6 206.661 102.728C206.575 102.771 206.469 102.792 206.341 102.792C206.213 102.792 206.106 102.792 206.021 102.792H205.381C205.21 102.92 205.018 102.984 204.805 102.984ZM209.605 77.896C209.775 77.7253 209.903 77.5547 209.989 77.384C210.117 77.1707 210.223 76.9573 210.309 76.744C210.522 76.4453 210.714 76.1467 210.885 75.848C211.055 75.5493 211.226 75.2507 211.397 74.952H211.461L211.525 74.696C211.397 74.696 211.226 74.888 211.013 75.272C210.927 75.4853 210.842 75.6987 210.757 75.912C210.671 76.0827 210.586 76.2533 210.501 76.424L209.925 77.384L209.605 77.896ZM207.557 81.736C207.045 82.4613 206.789 83.2507 206.789 84.104C207.045 83.2507 207.407 82.4827 207.877 81.8L208.581 80.712C208.751 80.4133 208.879 80.008 208.965 79.496L208.901 79.432C208.474 80.2427 208.026 81.0107 207.557 81.736ZM207.237 85.448C207.322 85.2773 207.365 85.192 207.365 85.192C207.578 84.7227 207.749 84.2747 207.877 83.848C208.047 83.4213 208.154 82.9947 208.197 82.568C208.154 82.952 207.983 83.464 207.685 84.104C207.386 84.6587 207.237 85.1067 207.237 85.448ZM213.634 121.992C213.335 121.992 213.015 121.8 212.674 121.416C212.418 121.032 212.162 120.669 211.906 120.328C211.607 119.901 211.458 119.453 211.458 118.984C213.89 115.4 216.557 112.008 219.458 108.808C222.402 105.608 225.474 102.6 228.674 99.784C229.783 97.5227 230.871 95.304 231.938 93.128C233.047 90.9093 234.157 88.6907 235.266 86.472L233.73 88.264C233.218 88.904 232.685 89.5013 232.13 90.056C231.959 90.184 231.767 90.3547 231.554 90.568C231.341 90.7387 231.127 90.9307 230.914 91.144L229.89 92.296C229.719 92.4667 229.57 92.6587 229.442 92.872C229.314 93.0853 229.186 93.2987 229.058 93.512C228.93 93.7253 228.695 93.96 228.354 94.216C228.183 94.344 228.013 94.472 227.842 94.6C227.671 94.728 227.479 94.8773 227.266 95.048C227.095 95.2187 226.903 95.368 226.69 95.496C226.519 95.624 226.349 95.752 226.178 95.88C226.007 96.0507 225.837 96.2 225.666 96.328C225.495 96.4133 225.367 96.4987 225.282 96.584C225.111 96.7547 224.919 96.9253 224.706 97.096C224.535 97.224 224.343 97.3947 224.13 97.608C223.703 98.0347 223.234 98.248 222.722 98.248C221.954 98.248 221.378 97.8427 220.994 97.032C220.653 96.1787 220.482 95.4107 220.482 94.728C220.482 93.7467 220.674 92.7867 221.058 91.848C221.229 91.3787 221.399 90.9093 221.57 90.44C221.741 89.9707 221.911 89.5013 222.082 89.032L224.77 81.864C224.983 81.3947 225.197 80.904 225.41 80.392C225.666 79.88 225.922 79.368 226.178 78.856C226.69 77.8747 226.946 76.8293 226.946 75.72C226.946 75.592 226.967 75.4853 227.01 75.4C227.01 75.3573 226.967 75.2933 226.882 75.208C226.669 75.4213 226.413 75.6347 226.114 75.848C225.858 76.0187 225.581 76.1893 225.282 76.36C224.727 76.6587 224.215 77.0853 223.746 77.64C222.637 78.9627 221.634 80.3493 220.738 81.8C219.842 83.208 218.967 84.6373 218.114 86.088C218.029 86.2587 217.879 86.4507 217.666 86.664C217.495 86.8773 217.303 86.984 217.09 86.984C216.834 86.984 216.706 86.8347 216.706 86.536C216.706 86.0667 216.962 85.4693 217.474 84.744C217.986 83.976 218.327 83.3147 218.498 82.76C218.711 82.2907 218.946 81.9493 219.202 81.736C219.33 81.6507 219.437 81.544 219.522 81.416C219.65 81.2453 219.757 81.0747 219.842 80.904C220.269 80.008 220.909 79.0053 221.762 77.896C222.615 76.744 223.575 75.7627 224.642 74.952C225.751 74.0987 226.797 73.672 227.778 73.672C228.759 73.672 229.485 74.0133 229.954 74.696C230.423 75.3787 230.658 76.1467 230.658 77C230.658 77.8533 230.551 78.728 230.338 79.624C230.125 80.4773 229.89 81.288 229.634 82.056C229.719 82.1413 229.762 82.312 229.762 82.568C229.762 82.9947 229.634 83.3787 229.378 83.72C229.079 84.0613 228.909 84.424 228.866 84.808C228.695 85.704 228.482 86.3867 228.226 86.856C227.97 87.2827 227.629 87.8587 227.202 88.584C227.287 88.7973 227.159 89.2667 226.818 89.992C226.477 90.7173 226.242 91.2293 226.114 91.528C225.986 91.8267 225.879 92.104 225.794 92.36C225.709 92.616 225.623 92.8933 225.538 93.192V93.512C225.495 93.5973 225.474 93.704 225.474 93.832C225.602 93.7467 225.709 93.6613 225.794 93.576C225.922 93.4907 226.007 93.4267 226.05 93.384C226.178 93.256 226.306 93.1493 226.434 93.064C226.605 92.9787 226.775 92.8933 226.946 92.808C226.989 92.7653 227.031 92.744 227.074 92.744C227.117 92.744 227.159 92.7227 227.202 92.68C227.245 92.2533 227.479 92.04 227.906 92.04C227.991 91.9973 228.077 91.9547 228.162 91.912C228.247 91.8267 228.333 91.7627 228.418 91.72C228.589 91.5493 228.717 91.4427 228.802 91.4C228.973 90.9733 229.207 90.6747 229.506 90.504C229.634 90.4187 229.762 90.3333 229.89 90.248C230.061 90.12 230.231 90.0133 230.402 89.928L232.514 87.752C232.685 87.5387 232.813 87.3467 232.898 87.176C233.026 86.9627 233.111 86.792 233.154 86.664C233.239 86.4507 233.602 86.1733 234.242 85.832L234.562 85.384V84.936C234.562 84.7227 234.583 84.5307 234.626 84.36C234.669 84.1893 234.797 84.0613 235.01 83.976C235.266 83.848 235.437 83.6133 235.522 83.272C235.607 82.888 235.714 82.632 235.842 82.504L236.994 80.968C237.079 80.7547 237.143 80.6267 237.186 80.584L237.57 80.2V80.136C237.57 80.0507 237.549 79.9867 237.506 79.944C237.421 79.8587 237.378 79.7733 237.378 79.688C237.378 79.56 237.442 79.496 237.57 79.496L237.826 79.304C238.295 79.3467 238.829 79.4533 239.426 79.624C240.066 79.752 240.386 80.136 240.386 80.776C240.386 80.8613 240.365 80.9893 240.322 81.16C240.322 81.3307 240.301 81.5227 240.258 81.736C240.215 83.144 239.917 84.552 239.362 85.96C239.063 86.6427 238.786 87.3253 238.53 88.008C238.274 88.6907 238.018 89.3947 237.762 90.12C237.549 90.76 237.335 91.4 237.122 92.04C236.909 92.68 236.695 93.3413 236.482 94.024C237.421 93.2133 238.402 92.488 239.426 91.848C240.45 91.208 241.517 90.6107 242.626 90.056C242.967 89.8 243.309 89.672 243.65 89.672C243.821 89.672 243.906 89.7573 243.906 89.928C243.906 90.056 243.735 90.2267 243.394 90.44L242.69 90.952C241.709 91.5067 240.77 92.104 239.874 92.744C239.021 93.384 238.167 94.0667 237.314 94.792C237.015 95.0053 236.717 95.24 236.418 95.496C236.119 95.752 235.842 96.008 235.586 96.264C235.373 96.4773 235.181 96.7547 235.01 97.096C234.839 97.48 234.647 97.8213 234.434 98.12C234.349 98.248 234.263 98.376 234.178 98.504C234.093 98.632 234.029 98.7813 233.986 98.952C233.943 99.2507 233.815 99.5707 233.602 99.912C233.431 100.211 233.261 100.488 233.09 100.744C232.962 101 232.834 101.277 232.706 101.576C232.535 101.832 232.386 102.088 232.258 102.344C232.13 102.6 231.981 102.877 231.81 103.176C231.725 103.261 231.618 103.389 231.49 103.56C231.362 103.731 231.234 103.944 231.106 104.2C230.935 104.413 230.807 104.605 230.722 104.776C230.637 104.989 230.551 105.139 230.466 105.224C230.21 105.693 229.933 106.099 229.634 106.44C229.378 106.781 229.165 106.952 228.994 106.952H228.802C228.802 106.824 228.845 106.675 228.93 106.504C228.973 106.419 229.015 106.312 229.058 106.184C229.101 106.099 229.143 106.013 229.186 105.928C229.527 105.373 229.933 104.691 230.402 103.88C230.914 103.069 231.17 102.493 231.17 102.152C231.17 102.067 231.127 102.024 231.042 102.024L230.53 102.792C230.189 103.005 229.954 103.283 229.826 103.624L229.25 104.584L226.946 108.232C226.989 108.275 227.01 108.339 227.01 108.424C227.01 108.552 226.989 108.637 226.946 108.68C226.903 108.723 226.882 108.765 226.882 108.808C226.882 108.851 226.861 108.893 226.818 108.936L226.69 109.064C226.519 109.235 226.434 109.469 226.434 109.768V109.832C226.477 109.875 226.498 109.917 226.498 109.96C226.498 110.131 226.413 110.237 226.242 110.28C225.986 110.365 225.858 110.408 225.858 110.408L225.73 110.472C225.645 110.728 225.495 110.963 225.282 111.176C225.197 111.389 225.026 111.688 224.77 112.072C224.557 112.456 224.322 112.627 224.066 112.584C223.639 113.096 223.234 113.651 222.85 114.248C222.466 114.845 222.146 115.464 221.89 116.104C221.89 116.147 221.911 116.189 221.954 116.232V116.36C221.954 116.531 221.847 116.616 221.634 116.616H221.442L221.25 116.552L221.186 116.488C221.143 116.488 221.101 116.467 221.058 116.424C220.973 116.893 220.738 117.213 220.354 117.384C220.226 117.64 220.055 117.811 219.842 117.896C219.671 117.939 219.458 118.088 219.202 118.344H219.138C219.053 118.515 218.903 118.685 218.69 118.856C218.477 119.027 218.285 119.133 218.114 119.176L218.05 119.24H217.922L217.794 119.304C217.666 119.517 217.453 119.709 217.154 119.88C216.898 120.051 216.663 120.179 216.45 120.264C216.322 120.477 216.066 120.755 215.682 121.096C215.341 121.48 215.063 121.672 214.85 121.672H214.594C214.253 121.885 213.933 121.992 213.634 121.992ZM214.338 118.984C214.594 118.899 214.85 118.813 215.106 118.728C215.362 118.643 215.597 118.493 215.81 118.28C216.194 117.939 216.77 117.341 217.538 116.488C218.306 115.677 219.117 114.76 219.97 113.736C220.823 112.712 221.591 111.795 222.274 110.984C222.871 110.173 223.511 109.277 224.194 108.296C224.919 107.357 225.559 106.44 226.114 105.544C226.669 104.691 226.989 104.029 227.074 103.56C226.434 104.2 225.815 104.819 225.218 105.416C224.621 106.056 224.002 106.675 223.362 107.272C222.039 108.552 220.759 109.896 219.522 111.304C218.797 112.157 218.114 113.032 217.474 113.928C216.834 114.824 216.215 115.72 215.618 116.616C215.362 117 215.106 117.363 214.85 117.704C214.509 118.088 214.317 118.493 214.274 118.92C214.317 118.92 214.338 118.941 214.338 118.984ZM272.552 101.128C271.912 101.128 271.4 100.936 271.016 100.552C270.632 100.168 270.269 99.7413 269.928 99.272C269.971 99.1867 269.992 99.1227 269.992 99.08C270.035 99.0373 270.056 99.016 270.056 99.016C270.056 98.9733 270.013 98.9093 269.928 98.824C269.587 98.2267 269.373 97.5867 269.288 96.904C269.203 96.1787 269.139 95.496 269.096 94.856L269.224 94.728C269.309 94.088 269.373 93.448 269.416 92.808C269.459 92.168 269.48 91.5067 269.48 90.824C269.48 90.5253 269.587 90.2267 269.8 89.928V89.864C269.757 89.864 269.736 89.8427 269.736 89.8V89.736C269.736 89.6507 269.757 89.608 269.8 89.608C269.843 88.968 269.971 88.3493 270.184 87.752C270.525 86.6853 270.888 85.6613 271.272 84.68C271.656 83.656 272.083 82.5467 272.552 81.352C272.68 81.224 272.701 81.096 272.616 80.968L272.488 80.712C272.488 80.2427 272.659 79.7307 273 79.176C273.384 78.6213 273.704 78.152 273.96 77.768C273.96 77.5547 274.067 77.2133 274.28 76.744C274.493 76.232 274.707 75.7413 274.92 75.272C275.176 74.8027 275.347 74.5253 275.432 74.44C275.091 74.5253 274.941 74.504 274.984 74.376C275.069 74.2053 275.155 74.12 275.24 74.12L275.88 73.16C276.093 72.904 276.221 72.584 276.264 72.2C276.349 71.8587 276.456 71.5173 276.584 71.176C276.712 70.8347 276.989 70.6213 277.416 70.536C277.501 70.4507 277.629 70.408 277.8 70.408C278.141 70.408 278.611 70.5147 279.208 70.728C279.848 70.8987 280.424 71.1333 280.936 71.432C281.448 71.7307 281.704 72.0507 281.704 72.392C281.704 72.776 281.533 73.288 281.192 73.928C280.893 74.5253 280.552 75.1653 280.168 75.848L278.952 77.768C278.525 78.3653 278.205 78.92 277.992 79.432H277.864V79.624L277.288 80.2V80.456L277.224 80.52C277.181 80.8187 277.117 81.1387 277.032 81.48C276.947 81.7787 276.797 82.0773 276.584 82.376L276.2 82.312C275.944 82.8667 275.795 82.9947 275.752 82.696C275.752 82.3973 275.923 81.9707 276.264 81.416L276.136 81.224C275.965 81.5653 275.816 81.8853 275.688 82.184C275.603 82.44 275.581 82.76 275.624 83.144V83.08L275.688 83.144L275.432 83.272L275.24 83.912C275.197 84.04 275.155 84.168 275.112 84.296C275.069 84.424 275.027 84.5307 274.984 84.616C274.813 85.128 274.579 85.4267 274.28 85.512L274.344 85.896L274.152 86.472C274.067 86.7707 274.045 86.9627 274.088 87.048H273.832V87.112L272.872 88.712C272.915 88.7547 272.936 88.8187 272.936 88.904C272.936 89.16 272.829 89.544 272.616 90.056C272.317 90.6107 272.147 91.0373 272.104 91.336C272.061 91.4213 272.019 91.5067 271.976 91.592C271.976 91.6773 271.997 91.8053 272.04 91.976L271.976 91.912C271.976 91.9547 271.976 91.9973 271.976 92.04C272.019 92.0827 272.04 92.104 272.04 92.104V92.36C272.04 92.9147 271.955 93.384 271.784 93.768C271.613 94.2373 271.528 94.728 271.528 95.24C271.528 95.496 271.571 95.7947 271.656 96.136C271.699 96.3067 271.72 96.4773 271.72 96.648C271.763 96.776 271.784 96.9253 271.784 97.096C271.784 97.352 271.763 97.544 271.72 97.672C271.677 97.7573 271.656 97.864 271.656 97.992C271.656 98.12 271.656 98.2267 271.656 98.312C271.656 98.6533 271.869 99.016 272.296 99.4C272.723 99.7413 273.107 99.912 273.448 99.912C273.96 99.912 274.323 99.8267 274.536 99.656C274.621 99.5707 274.728 99.4853 274.856 99.4C275.027 99.272 275.197 99.1653 275.368 99.08L275.688 98.44V99.208L275.624 99.272C275.411 99.7413 274.963 100.168 274.28 100.552C273.597 100.936 273.021 101.128 272.552 101.128ZM240.808 100.616C240.723 100.616 240.573 100.573 240.36 100.488C240.147 100.36 240.019 100.211 239.976 100.04H240.168C240.253 99.9973 240.36 99.9547 240.488 99.912C240.573 99.8693 240.637 99.8267 240.68 99.784C240.765 99.7413 240.872 99.6987 241 99.656C241.085 99.6133 241.171 99.5707 241.256 99.528C241.555 99.3573 241.832 99.016 242.088 98.504C242.344 97.992 242.557 97.4587 242.728 96.904C242.941 96.3067 243.091 95.88 243.176 95.624L243.368 94.792C243.368 94.6213 243.368 94.472 243.368 94.344C243.411 94.216 243.453 94.088 243.496 93.96C243.624 93.4907 243.773 93.0427 243.944 92.616C244.157 92.1893 244.371 91.7627 244.584 91.336C244.627 91.2507 244.648 91.0587 244.648 90.76C244.691 90.4613 244.712 90.248 244.712 90.12C244.669 90.12 244.605 90.0773 244.52 89.992C244.477 89.9493 244.456 89.9067 244.456 89.864C244.456 89.7787 244.477 89.736 244.52 89.736C244.648 89.4373 244.797 89.1173 244.968 88.776C245.181 88.392 245.459 88.1573 245.8 88.072C245.885 87.8587 245.992 87.6453 246.12 87.432C246.248 87.2187 246.355 87.0053 246.44 86.792C246.525 86.5787 246.632 86.3867 246.76 86.216C246.888 86.0027 246.995 85.7893 247.08 85.576L247.656 83.848C247.741 83.5493 247.827 83.272 247.912 83.016C248.04 82.7173 248.189 82.44 248.36 82.184H248.168L248.04 81.8L248.296 81.416L247.848 81.288C247.976 81.2453 248.083 81.1813 248.168 81.096V81.032C248.04 80.904 247.976 80.776 247.976 80.648C247.976 80.5627 247.997 80.52 248.04 80.52C248.125 80.3493 248.189 80.2 248.232 80.072C248.275 79.9013 248.317 79.7307 248.36 79.56C248.445 79.2187 248.595 78.9413 248.808 78.728H248.68C248.68 78.7707 248.616 78.792 248.488 78.792C248.403 78.792 248.36 78.728 248.36 78.6C248.36 78.3867 248.403 78.152 248.488 77.896C248.573 77.5973 248.659 77.3413 248.744 77.128C248.829 76.8293 248.915 76.5307 249 76.232C249.085 75.9333 249.128 75.6347 249.128 75.336C249.128 75.1653 249.107 75.0373 249.064 74.952C248.979 74.7813 248.936 74.632 248.936 74.504C248.936 74.3333 249.021 74.1627 249.192 73.992C249.32 73.9067 249.448 73.8 249.576 73.672C249.32 73.5867 249.149 73.5013 249.064 73.416C248.979 73.288 248.829 73.2027 248.616 73.16H248.552L247.912 73.032L247.4 72.84C247.187 72.7547 247.08 72.648 247.08 72.52C247.08 72.392 247.187 72.2853 247.4 72.2C247.656 72.1147 247.805 72.0507 247.848 72.008C248.445 72.136 249.213 72.3067 250.152 72.52C251.133 72.7333 252.051 72.9893 252.904 73.288C253.757 73.5867 254.312 73.928 254.568 74.312C254.653 74.4827 254.696 74.6533 254.696 74.824C254.739 74.952 254.76 75.08 254.76 75.208C254.76 75.5067 254.632 76.0187 254.376 76.744C254.163 77.4693 253.885 78.152 253.544 78.792C253.203 79.3893 252.84 79.752 252.456 79.88L252.52 79.944L252.776 80.392C252.861 80.648 252.904 80.776 252.904 80.776C252.904 80.904 252.861 81.0533 252.776 81.224C252.733 81.352 252.627 81.4373 252.456 81.48L252.392 81.544C252.392 81.5867 252.371 81.6293 252.328 81.672C252.285 81.7147 252.264 81.7787 252.264 81.864C252.264 81.992 252.243 82.0773 252.2 82.12H252.264V82.376C252.264 82.632 252.136 82.824 251.88 82.952C251.837 83.1653 251.688 83.5493 251.432 84.104C251.219 84.616 251.048 84.936 250.92 85.064L250.664 85.448C250.707 85.4907 250.728 85.5333 250.728 85.576C250.728 85.704 250.685 85.768 250.6 85.768L250.472 85.896C250.429 86.024 250.323 86.1733 250.152 86.344C250.109 86.4293 250.045 86.5147 249.96 86.6C249.917 86.6427 249.875 86.7067 249.832 86.792C249.576 87.0907 249.491 87.4107 249.576 87.752H249.512C249.512 87.8373 249.469 87.9227 249.384 88.008C249.299 88.1787 249.192 88.3707 249.064 88.584C248.936 88.7973 248.765 88.9253 248.552 88.968C248.509 89.1387 248.467 89.3307 248.424 89.544C248.381 89.7147 248.339 89.8427 248.296 89.928C248.253 90.0133 248.211 90.12 248.168 90.248C248.125 90.3333 248.083 90.4187 248.04 90.504L247.784 91.144C247.571 91.656 247.379 92.1893 247.208 92.744C247.037 93.256 246.867 93.8107 246.696 94.408H246.888C246.888 94.4507 246.909 94.472 246.952 94.472C247.165 94.472 247.357 94.344 247.528 94.088C247.699 93.7893 247.741 93.512 247.656 93.256C247.869 93.1707 248.019 93.064 248.104 92.936C248.317 92.7227 248.488 92.616 248.616 92.616C248.829 92.4027 249 92.2533 249.128 92.168L249.576 91.72C250.216 91.1227 250.771 90.44 251.24 89.672C251.453 89.3307 251.688 88.9893 251.944 88.648C252.243 88.264 252.541 87.9227 252.84 87.624C253.181 87.1973 253.523 86.7707 253.864 86.344C254.248 85.9173 254.589 85.4693 254.888 85C255.187 84.5307 255.485 84.0827 255.784 83.656C256.125 83.2293 256.467 82.8027 256.808 82.376C257.107 82.0347 257.405 81.6933 257.704 81.352C258.003 80.968 258.259 80.5627 258.472 80.136C258.387 80.0507 258.344 79.9653 258.344 79.88C258.344 79.6667 258.557 79.368 258.984 78.984C259.411 78.5573 259.901 78.1307 260.456 77.704C261.053 77.2773 261.608 76.8933 262.12 76.552C262.675 76.2107 263.059 75.9973 263.272 75.912C263.4 75.912 263.677 75.848 264.104 75.72C264.573 75.592 264.851 75.528 264.936 75.528H265.128C265.128 75.9973 265.107 76.4453 265.064 76.872C265.064 77.2987 265 77.6827 264.872 78.024C264.744 78.408 264.595 78.792 264.424 79.176C264.296 79.56 264.147 79.944 263.976 80.328C263.677 81.1387 263.357 81.9067 263.016 82.632L262.44 84.168C262.355 84.424 262.248 84.68 262.12 84.936C261.992 85.192 261.885 85.4267 261.8 85.64L261.544 86.28C261.501 86.4933 261.395 86.6853 261.224 86.856C261.224 86.8987 261.203 86.984 261.16 87.112C261.16 87.1973 261.139 87.304 261.096 87.432C261.224 87.432 261.352 87.4107 261.48 87.368C261.181 88.0507 260.968 88.6267 260.84 89.096C260.712 89.5227 260.627 90.0987 260.584 90.824C261.096 90.1413 261.629 89.4373 262.184 88.712C262.781 87.944 263.165 87.4747 263.336 87.304C263.805 86.9627 264.296 86.5573 264.808 86.088C265.32 85.6187 265.811 85.1493 266.28 84.68C266.536 84.424 266.792 84.168 267.048 83.912C267.304 83.656 267.539 83.4 267.752 83.144C267.965 82.888 268.179 82.6533 268.392 82.44C268.648 82.184 268.883 81.9493 269.096 81.736C269.267 81.5653 269.416 81.3947 269.544 81.224C269.715 81.0533 269.864 80.8827 269.992 80.712C270.205 80.3707 270.483 80.0293 270.824 79.688C271.08 79.432 271.315 79.0907 271.528 78.664C271.613 78.4933 271.699 78.3227 271.784 78.152C271.869 77.9813 271.997 77.8107 272.168 77.64L272.616 77.192C272.787 77.0213 272.936 76.936 273.064 76.936C273.235 76.936 273.32 77.0427 273.32 77.256C273.32 77.8107 272.979 78.5147 272.296 79.368C271.613 80.1787 271.037 80.8613 270.568 81.416C270.397 81.5867 270.248 81.7787 270.12 81.992C269.992 82.1627 269.864 82.3547 269.736 82.568C269.437 82.9947 269.117 83.3787 268.776 83.72L267.24 85.448C266.6 86.088 266.088 86.6853 265.704 87.24C265.107 88.0933 264.488 88.968 263.848 89.864C263.251 90.7173 262.568 91.5067 261.8 92.232C261.331 92.7013 260.947 93.256 260.648 93.896C260.392 94.536 260.136 95.1547 259.88 95.752C259.923 96.0933 259.901 96.392 259.816 96.648C259.731 96.8613 259.453 96.968 258.984 96.968C258.557 96.968 258.131 96.9467 257.704 96.904C257.277 96.8187 256.957 96.52 256.744 96.008C256.701 95.9227 256.595 95.7947 256.424 95.624C256.296 95.5387 256.232 95.4107 256.232 95.24C256.232 95.1973 256.253 95.1547 256.296 95.112V94.984L256.68 94.792V94.728C256.637 94.5147 256.595 94.3013 256.552 94.088C256.552 93.8747 256.552 93.6613 256.552 93.448C256.552 93.0213 256.573 92.616 256.616 92.232C256.659 91.8053 256.723 91.3787 256.808 90.952C256.893 90.568 256.979 90.184 257.064 89.8C257.149 89.3733 257.213 88.9467 257.256 88.52C257.341 88.52 257.341 88.4773 257.256 88.392C257.341 87.5387 257.555 86.6853 257.896 85.832C258.237 84.9787 258.557 84.1467 258.856 83.336C259.197 82.4827 259.368 81.672 259.368 80.904V80.648C259.24 80.9467 259.069 81.2027 258.856 81.416C258.771 81.5867 258.685 81.736 258.6 81.864C258.515 81.992 258.408 82.12 258.28 82.248L258.088 82.376C257.875 82.5467 257.725 82.824 257.64 83.208C257.597 83.3787 257.533 83.5493 257.448 83.72C257.363 83.848 257.277 83.9973 257.192 84.168C257.149 84.2533 257 84.424 256.744 84.68L256.552 84.808C256.424 84.8933 256.317 85 256.232 85.128C256.147 85.256 256.061 85.3627 255.976 85.448C255.72 85.96 255.4 86.408 255.016 86.792C254.803 87.0053 254.589 87.24 254.376 87.496C254.205 87.7093 254.013 87.9227 253.8 88.136L253.544 88.52C253.373 88.6907 253.267 88.84 253.224 88.968L252.456 90.312C252.371 90.4827 252.264 90.632 252.136 90.76C252.008 90.888 251.901 90.9947 251.816 91.08C251.517 91.2933 251.283 91.5493 251.112 91.848C250.515 92.6587 250.003 93.448 249.576 94.216C249.32 94.6427 249.021 95.048 248.68 95.432C248.381 95.7733 248.061 96.1147 247.72 96.456C247.549 96.6267 247.4 96.776 247.272 96.904C247.144 97.032 247.037 97.16 246.952 97.288C246.867 97.416 246.76 97.544 246.632 97.672C246.504 97.8 246.397 97.9067 246.312 97.992L245.096 99.208C244.413 99.7627 243.795 100.104 243.24 100.232C242.685 100.275 241.981 100.403 241.128 100.616H240.808ZM248.68 88.072H248.744C248.872 87.944 248.957 87.8373 249 87.752L249.064 87.688L248.936 87.432C248.893 87.56 248.851 87.688 248.808 87.816C248.765 87.9013 248.723 87.9867 248.68 88.072ZM259.624 92.168C259.709 92.0827 259.773 91.9973 259.816 91.912C259.901 91.784 259.987 91.656 260.072 91.528C260.029 91.528 259.923 91.5707 259.752 91.656C259.709 91.7413 259.667 91.8267 259.624 91.912C259.581 91.9973 259.581 92.0827 259.624 92.168ZM271.575 118.536C271.106 118.536 270.743 118.387 270.487 118.088C270.188 117.789 269.996 117.427 269.911 117C270.082 116.659 270.167 116.147 270.167 115.464C270.167 115.123 270.167 114.803 270.167 114.504C270.167 114.248 270.188 114.013 270.231 113.8C270.231 113.203 270.274 112.605 270.359 112.008C270.444 111.411 270.636 110.941 270.935 110.6C271.063 110.472 271.17 110.216 271.255 109.832L271.319 109.32C271.362 109.277 271.383 109.213 271.383 109.128C271.383 109.128 271.426 109 271.511 108.744C271.511 108.531 271.532 108.317 271.575 108.104C271.575 107.891 271.596 107.699 271.639 107.528C271.767 107.187 271.788 106.781 271.703 106.312C271.746 106.184 271.81 105.949 271.895 105.608L272.279 104.52C272.322 104.349 272.364 104.179 272.407 104.008C272.45 103.88 272.492 103.731 272.535 103.56C272.663 103.261 272.684 103.069 272.599 102.984L273.175 102.408C273.175 102.365 273.154 102.344 273.111 102.344V102.216L273.047 102.088V101.896C273.09 101.896 273.132 101.875 273.175 101.832C273.218 101.789 273.303 101.768 273.431 101.768H273.623L273.687 101.576V101.448C273.431 101.448 273.303 101.256 273.303 100.872L273.367 100.808C273.452 100.68 273.538 100.616 273.623 100.616C273.708 100.488 273.794 100.232 273.879 99.848C273.964 99.5067 274.156 99.336 274.455 99.336V99.208C274.54 98.3547 274.839 97.5013 275.351 96.648C275.82 95.7947 276.226 95.0267 276.567 94.344C276.567 94.3013 276.588 94.28 276.631 94.28V94.088L276.951 93.384L277.335 93.448L277.655 92.936L277.463 92.744C277.762 92.488 277.996 92.1893 278.167 91.848C278.38 91.5067 278.594 91.1227 278.807 90.696L279.383 89.224C279.468 89.0107 279.554 88.776 279.639 88.52C279.724 88.264 279.81 88.008 279.895 87.752C280.236 86.7707 280.578 85.8533 280.919 85C281.303 84.104 281.751 83.4853 282.263 83.144C282.476 82.8453 282.647 82.5467 282.775 82.248C282.946 81.9067 283.074 81.5867 283.159 81.288L283.735 79.368C283.778 79.2827 283.82 79.176 283.863 79.048C283.906 78.92 283.948 78.792 283.991 78.664L284.311 77.832L284.375 77.896L284.503 77.64L284.759 77.448C284.844 77.192 284.972 76.9573 285.143 76.744C285.314 76.488 285.484 76.2533 285.655 76.04L285.591 75.912C285.847 75.656 285.975 75.4 285.975 75.144C285.975 75.1013 285.954 75.08 285.911 75.08C285.868 75.1227 285.826 75.1227 285.783 75.08H285.655C285.399 75.08 285.271 74.9947 285.271 74.824C285.271 74.7387 285.42 74.4827 285.719 74.056C285.847 73.8427 285.954 73.672 286.039 73.544C286.124 73.3733 286.188 73.2453 286.231 73.16C286.231 72.904 286.402 72.7333 286.743 72.648C286.956 72.264 287.191 71.88 287.447 71.496C287.746 71.112 288.044 70.7493 288.343 70.408C288.642 69.9813 288.898 69.5973 289.111 69.256C289.367 68.9147 289.538 68.616 289.623 68.36H289.879L289.815 68.104C289.815 67.976 289.879 67.848 290.007 67.72C290.22 67.72 290.434 67.72 290.647 67.72C290.903 67.72 291.138 67.7413 291.351 67.784C291.564 67.8267 291.756 67.848 291.927 67.848C292.14 67.848 292.354 67.848 292.567 67.848C293.079 68.0187 293.676 68.36 294.359 68.872C295.084 69.3413 295.447 69.8747 295.447 70.472C295.234 70.6427 295.042 70.8347 294.871 71.048C294.7 71.2613 294.551 71.4747 294.423 71.688C294.252 71.9013 294.082 72.1147 293.911 72.328C293.74 72.5413 293.548 72.7547 293.335 72.968V73.736H293.079C292.994 73.7787 292.887 73.8 292.759 73.8C292.674 73.8427 292.61 73.8853 292.567 73.928C292.524 73.928 292.503 73.928 292.503 73.928C292.503 73.928 292.503 73.9493 292.503 73.992C292.503 73.992 292.524 74.0133 292.567 74.056L292.631 74.184C292.631 74.312 292.652 74.4187 292.695 74.504H292.439C292.183 74.7173 291.948 74.9733 291.735 75.272C291.564 75.528 291.372 75.8267 291.159 76.168H291.223C291.138 76.2533 291.031 76.36 290.903 76.488C290.818 76.5733 290.796 76.7013 290.839 76.872L289.495 78.472L289.559 78.792L289.495 79.304C288.94 79.432 288.492 79.88 288.151 80.648C287.98 80.904 287.831 81.288 287.703 81.8C287.66 82.0133 287.575 82.248 287.447 82.504C287.362 82.76 287.276 83.0373 287.191 83.336V83.144C287.148 83.1867 287.127 83.272 287.127 83.4C287.084 83.4427 287.063 83.4853 287.063 83.528C287.063 83.5707 287.042 83.6133 286.999 83.656C286.956 83.7413 286.935 83.848 286.935 83.976C286.935 84.0613 286.914 84.1467 286.871 84.232C286.786 84.4453 286.594 84.744 286.295 85.128V84.68L286.167 84.616L285.591 85.576L284.951 86.536L284.759 86.984C284.716 87.0693 284.674 87.1547 284.631 87.24C284.588 87.3253 284.546 87.4107 284.503 87.496H284.375L284.503 87.624C284.375 87.752 284.268 88.0507 284.183 88.52C284.098 88.9467 283.906 89.1813 283.607 89.224V89.608L283.223 90.312L283.415 90.504L282.391 91.016L282.327 90.888L281.751 91.656C281.452 91.9973 281.303 92.296 281.303 92.552C281.303 92.7227 281.196 92.8507 280.983 92.936C280.727 93.0213 280.642 93.1707 280.727 93.384L280.471 93.576L280.663 94.216L280.087 94.472C280.002 94.728 279.959 94.92 279.959 95.048L280.215 94.856L280.343 95.368C280.343 95.4107 280.364 95.432 280.407 95.432V95.624C280.407 95.88 280.322 96.1147 280.151 96.328L280.023 96.456C279.938 96.6267 279.895 96.84 279.895 97.096L279.639 96.968C279.639 97.0107 279.596 97.0747 279.511 97.16L279.447 97.224C279.49 97.2667 279.511 97.3307 279.511 97.416V97.544C279.468 97.5867 279.447 97.6293 279.447 97.672L279.255 97.864H279.383L278.295 99.528L278.423 99.912H278.231L278.103 100.232H278.423C278.508 100.104 278.594 99.976 278.679 99.848C278.764 99.72 278.85 99.6133 278.935 99.528V99.272L279.063 99.144L279.639 98.12H279.767L281.303 95.368L281.239 95.24C281.324 95.1547 281.474 94.984 281.687 94.728C281.9 94.472 282.114 94.216 282.327 93.96C282.412 93.832 282.498 93.704 282.583 93.576C282.711 93.448 282.818 93.3413 282.903 93.256C283.031 93.0427 283.095 92.8933 283.095 92.808L285.335 89.544V89.288L285.207 89.096L285.335 89.224V89.096L285.527 89.352L286.167 88.2H286.231V88.136C286.231 88.008 286.338 87.8587 286.551 87.688C286.764 87.5173 286.956 87.3893 287.127 87.304C287.127 87.2187 287.063 87.1547 286.935 87.112L287.831 85.96L288.023 85.896C288.108 85.896 288.322 85.64 288.663 85.128C289.047 84.616 289.324 84.2747 289.495 84.104L289.367 83.848C289.58 83.6347 289.772 83.4213 289.943 83.208C290.156 82.9947 290.348 82.8027 290.519 82.632C290.732 82.4187 290.903 82.2053 291.031 81.992C291.202 81.7787 291.372 81.5653 291.543 81.352V81.096L291.799 81.224C292.012 80.712 292.332 80.3067 292.759 80.008L292.887 80.072V80.008L293.079 79.688C293.164 79.3893 293.314 79.24 293.527 79.24H293.655L294.103 78.856V78.728C294.103 78.5573 294.231 78.472 294.487 78.472H294.551C294.636 78.472 294.786 78.3653 294.999 78.152L295.127 77.96C295.212 77.832 295.298 77.704 295.383 77.576C295.511 77.448 295.66 77.384 295.831 77.384C295.959 77.2133 296.108 77.0427 296.279 76.872C296.45 76.7013 296.642 76.5733 296.855 76.488L297.687 76.744C297.218 77.0853 296.791 77.4267 296.407 77.768C296.023 78.0667 295.66 78.408 295.319 78.792C295.276 78.8347 295.17 78.8987 294.999 78.984C294.828 79.0267 294.7 79.0907 294.615 79.176L294.487 79.304C294.444 79.432 294.359 79.56 294.231 79.688L294.295 79.944H293.911L293.399 80.584H293.335C292.908 81.1387 292.418 81.6933 291.863 82.248C291.308 82.76 290.839 83.3573 290.455 84.04H290.263C289.964 84.4667 289.644 84.9147 289.303 85.384C289.004 85.8107 288.684 86.2373 288.343 86.664C287.66 87.4747 287.02 88.3707 286.423 89.352V89.416L282.071 95.688C281.986 95.8587 281.9 96.0293 281.815 96.2C281.73 96.3707 281.644 96.5627 281.559 96.776L281.303 96.84L281.367 96.904C281.367 97.16 281.324 97.3733 281.239 97.544C281.154 97.672 281.026 97.8427 280.855 98.056L280.471 98.44C280.258 98.568 280.13 98.7173 280.087 98.888H280.023C279.767 99.3573 279.362 100.125 278.807 101.192C278.252 102.259 277.655 103.389 277.015 104.584C276.375 105.821 275.799 106.952 275.287 107.976C274.818 108.915 274.306 109.96 273.751 111.112C273.196 112.307 272.727 113.395 272.343 114.376C271.916 115.4 271.703 116.147 271.703 116.616C271.703 116.829 271.81 117.107 272.023 117.448L272.407 117.832L272.791 118.088C272.791 118.216 272.727 118.28 272.599 118.28C272.215 118.451 271.874 118.536 271.575 118.536ZM289.239 97.608C288.855 97.608 288.471 97.288 288.087 96.648C287.703 96.008 287.511 95.5387 287.511 95.24C287.511 95.0693 287.554 94.8133 287.639 94.472C287.724 94.1307 287.81 93.896 287.895 93.768V93.832C287.98 93.7467 288.044 93.64 288.087 93.512C288.13 93.384 288.194 93.3627 288.279 93.448L288.407 93.192H288.471C288.556 93.192 288.62 93.1707 288.663 93.128C288.748 93.0427 288.812 92.9787 288.855 92.936H288.919C289.004 92.8507 289.047 92.7653 289.047 92.68C289.004 92.6373 289.047 92.5733 289.175 92.488H289.239L289.879 91.912L289.815 91.848H290.007V91.784L290.135 91.592L290.263 91.656V91.592L290.775 91.08V91.144L290.839 91.08H290.967V90.952L291.031 91.016L291.095 90.76H291.159C291.287 90.5893 291.415 90.44 291.543 90.312C291.671 90.1413 291.82 89.9707 291.991 89.8L292.823 88.968L292.951 89.288H293.015L293.143 89.16C293.143 89.1173 293.1 89.0533 293.015 88.968C293.143 88.84 293.207 88.7333 293.207 88.648L293.399 88.456L293.911 88.264V88.328L293.975 88.392C293.975 88.3067 293.996 88.1787 294.039 88.008C294.124 87.8373 294.21 87.752 294.295 87.752C294.38 87.752 294.423 87.7947 294.423 87.88L294.615 87.624C294.7 87.5387 294.722 87.4747 294.679 87.432C294.722 87.432 294.764 87.4107 294.807 87.368C294.892 87.3253 294.914 87.2827 294.871 87.24L295.127 87.496C295.212 87.4107 295.276 87.3467 295.319 87.304C295.362 87.2187 295.404 87.1547 295.447 87.112L295.511 87.432L295.575 87.496V87.112L295.767 86.984L295.639 86.6C295.724 86.6 295.767 86.5573 295.767 86.472C295.767 86.4293 295.81 86.408 295.895 86.408C295.98 86.408 296.066 86.4507 296.151 86.536L296.343 86.728V86.856H296.471C296.215 87.0267 296.066 87.1973 296.023 87.368C295.98 87.5387 295.831 87.7093 295.575 87.88H295.319L294.615 88.456H294.551V88.584L293.783 89.544C293.527 89.8853 293.186 90.056 292.759 90.056L292.823 90.12V90.184C292.78 90.2267 292.759 90.2693 292.759 90.312V90.44C292.716 90.44 292.652 90.3973 292.567 90.312V90.376L291.351 91.656L291.223 91.592L290.775 91.912L290.839 91.976L290.263 92.552L290.391 92.744L289.943 93V93.256C289.9 93.2987 289.879 93.3627 289.879 93.448C289.666 93.6187 289.474 93.8107 289.303 94.024C289.175 94.2373 289.068 94.4507 288.983 94.664L289.239 94.792C289.282 94.8347 289.367 94.856 289.495 94.856C289.538 94.856 289.559 94.8133 289.559 94.728C289.602 94.6853 289.666 94.6427 289.751 94.6C289.836 94.5573 289.943 94.4933 290.071 94.408C290.284 94.28 290.412 94.216 290.455 94.216V94.472L290.903 94.28L290.775 94.088H291.095C291.18 94.1307 291.287 94.152 291.415 94.152C291.5 94.152 291.586 94.1093 291.671 94.024C291.671 93.9387 291.692 93.8747 291.735 93.832V93.704L292.375 93.448V93.384L293.079 92.616H293.143L293.079 92.488H293.399L293.719 92.104V92.04L293.847 92.104V91.976C294.06 91.8907 294.167 91.7627 294.167 91.592C294.167 91.5067 294.146 91.4427 294.103 91.4C294.188 91.3147 294.316 91.1867 294.487 91.016C294.658 90.8453 294.828 90.6533 294.999 90.44C295.34 90.056 295.682 89.864 296.023 89.864C296.023 89.6933 296.087 89.5867 296.215 89.544V89.48C296.215 89.352 296.343 89.0747 296.599 88.648C296.898 88.1787 297.196 87.7307 297.495 87.304C297.836 86.8773 298.071 86.6 298.199 86.472V86.536L298.327 86.216L298.391 86.28L298.839 85.768L298.775 85.384L298.839 85.256C298.839 85.1707 298.946 85.128 299.159 85.128C299.372 85.0853 299.522 85.064 299.607 85.064L299.543 84.872C299.33 84.872 299.138 84.7867 298.967 84.616C299.01 84.5733 299.138 84.552 299.351 84.552C299.564 84.296 299.692 84.0187 299.735 83.72H299.799C300.012 83.3787 300.183 82.9733 300.311 82.504C300.396 82.0347 300.588 81.6507 300.887 81.352L300.759 81.16C300.844 80.9467 300.951 80.7333 301.079 80.52C301.122 80.52 301.143 80.4987 301.143 80.456C301.143 80.3707 301.164 80.328 301.207 80.328V80.2C301.207 79.9867 301.186 79.8373 301.143 79.752C301.1 79.6667 301.079 79.5387 301.079 79.368C301.079 78.5147 301.015 77.7893 300.887 77.192C300.802 76.5947 300.29 76.296 299.351 76.296C299.223 76.296 299.095 76.296 298.967 76.296C298.839 76.296 298.711 76.3173 298.583 76.36L297.751 76.552H297.687C297.559 76.552 297.474 76.5307 297.431 76.488V76.232C297.431 76.104 297.538 76.04 297.751 76.04H298.199V75.848L298.263 75.912L298.711 75.592H299.031C299.074 75.592 299.116 75.5707 299.159 75.528L299.543 75.336L299.927 75.4L300.119 75.336V75.4C300.119 75.3573 300.204 75.336 300.375 75.336C300.546 75.336 300.588 75.2933 300.503 75.208C300.716 75.2507 300.908 75.2933 301.079 75.336C301.25 75.3787 301.378 75.4213 301.463 75.464L301.527 75.336L302.039 75.784C302.082 75.8267 302.103 75.8053 302.103 75.72V75.592H302.167C302.551 76.104 303.02 76.5093 303.575 76.808C304.13 77.1067 304.45 77.64 304.535 78.408C304.578 78.6213 304.599 78.8347 304.599 79.048C304.599 79.2613 304.599 79.4747 304.599 79.688V80.968C304.599 82.376 304.428 83.528 304.087 84.424C303.746 85.32 303.148 86.3227 302.295 87.432C302.21 87.56 301.932 87.944 301.463 88.584C300.994 89.1813 300.503 89.7787 299.991 90.376C299.479 90.9307 299.116 91.208 298.903 91.208L299.031 91.4C298.818 91.528 298.562 91.8053 298.263 92.232C297.964 92.616 297.708 92.8507 297.495 92.936V93.256L296.279 94.152L296.151 94.024L295.447 94.536V94.6C295.49 94.6427 295.554 94.664 295.639 94.664C295.682 94.664 295.703 94.7067 295.703 94.792V94.856L295.063 95.048V95.112L294.679 95.496L294.743 95.688L294.039 95.432L294.103 96.072L293.335 96.328V96.456C292.823 96.6693 292.482 96.8613 292.311 97.032C292.055 97.032 291.884 97.0533 291.799 97.096L291.287 97.288L291.223 97.224V97.288H290.583L290.455 97.544H289.559C289.474 97.5867 289.367 97.608 289.239 97.608ZM276.439 103.496C276.823 102.899 277.228 102.237 277.655 101.512C277.868 101.085 278.103 100.68 278.359 100.296L277.783 100.616C277.74 100.744 277.676 100.915 277.591 101.128C277.506 101.341 277.42 101.491 277.335 101.576C277.122 101.576 276.972 101.448 276.887 101.192L276.823 101.832L277.015 102.024C277.015 102.365 276.951 102.643 276.823 102.856C276.61 103.069 276.482 103.283 276.439 103.496ZM318.671 71.176C318.031 71.176 317.519 70.8987 317.135 70.344C316.794 69.7467 316.623 69.1707 316.623 68.616C317.903 67.6773 319.183 66.76 320.463 65.864C321.786 64.9253 323.13 64.2 324.495 63.688L325.263 63.112L325.327 63.368C325.327 63.624 325.05 63.9867 324.495 64.456C323.94 64.8827 323.535 65.1387 323.279 65.224C323.236 65.3093 323.023 65.672 322.639 66.312C322.255 66.9093 321.786 67.592 321.231 68.36C320.719 69.0853 320.207 69.7467 319.695 70.344C319.226 70.8987 318.884 71.176 318.671 71.176ZM306.127 100.616C305.53 100.616 305.06 100.403 304.719 99.976C304.378 99.5067 304.143 98.952 304.015 98.312C303.887 97.672 303.823 97.1173 303.823 96.648C303.823 94.984 304.1 93.32 304.655 91.656C305.252 89.9493 305.956 88.392 306.767 86.984C306.98 86.6 307.215 86.2587 307.471 85.96L308.111 85C308.239 84.7867 308.367 84.5307 308.495 84.232C308.58 83.9333 308.708 83.6987 308.879 83.528C309.092 83.1013 309.327 82.6533 309.583 82.184C309.882 81.7147 310.18 81.2453 310.479 80.776C311.076 79.7947 311.375 78.792 311.375 77.768C311.418 77.8107 311.482 77.832 311.567 77.832H311.631C311.802 77.832 311.93 77.8107 312.015 77.768H312.271C312.698 77.768 313.188 77.96 313.743 78.344C314.34 78.728 314.874 79.1973 315.343 79.752C315.812 80.264 316.047 80.7333 316.047 81.16C316.047 81.4587 315.876 81.8 315.535 82.184C315.236 82.568 314.895 82.952 314.511 83.336L313.935 83.912L313.359 84.552C313.06 84.8933 312.762 85.2773 312.463 85.704C312.164 86.088 311.887 86.5147 311.631 86.984C311.546 87.0693 311.503 87.176 311.503 87.304C311.503 87.4747 311.482 87.5813 311.439 87.624C311.439 87.88 311.226 88.0933 310.799 88.264V87.944C309.732 89.0107 308.836 90.3547 308.111 91.976C307.428 93.5973 307.087 95.1333 307.087 96.584V97.16C307.087 97.4587 307.13 97.6507 307.215 97.736C307.258 97.9067 307.343 97.992 307.471 97.992H307.599C307.599 98.0347 307.62 98.056 307.663 98.056C307.663 98.0987 307.684 98.12 307.727 98.12V98.184C307.727 98.2693 307.663 98.376 307.535 98.504L307.471 98.568C307.386 98.6533 307.343 98.696 307.343 98.696C307.343 98.7387 307.492 98.8027 307.791 98.888C308.09 98.9307 308.26 98.952 308.303 98.952C308.474 98.952 308.751 98.8027 309.135 98.504C309.519 98.1627 309.924 97.8 310.351 97.416C310.778 97.032 311.119 96.7547 311.375 96.584C311.674 96.328 311.951 96.1573 312.207 96.072C312.548 95.6453 312.89 95.2187 313.231 94.792C313.572 94.3653 313.892 93.9387 314.191 93.512C314.532 93.0853 314.852 92.68 315.151 92.296C315.492 91.912 315.834 91.5067 316.175 91.08V90.952C316.175 90.8667 316.282 90.6533 316.495 90.312C316.751 89.928 317.007 89.5653 317.263 89.224C317.562 88.8827 317.754 88.712 317.839 88.712C317.882 88.7547 317.903 88.8613 317.903 89.032C317.903 89.2027 317.882 89.3093 317.839 89.352C317.583 89.9067 317.199 90.696 316.687 91.72C316.175 92.7013 315.642 93.6187 315.087 94.472C314.575 95.3253 314.084 95.816 313.615 95.944C313.53 96.1573 313.402 96.4133 313.231 96.712C313.06 97.0107 312.847 97.2027 312.591 97.288C312.463 97.5013 312.292 97.608 312.079 97.608C311.951 97.9493 311.802 98.1413 311.631 98.184C311.546 98.2693 311.46 98.3547 311.375 98.44C311.29 98.4827 311.226 98.5253 311.183 98.568C311.14 98.7387 310.991 98.9093 310.735 99.08C310.479 99.208 310.266 99.3147 310.095 99.4C309.882 99.6133 309.604 99.848 309.263 100.104C308.922 100.36 308.58 100.488 308.239 100.488H308.047L307.855 100.424H307.727C307.684 100.381 307.62 100.36 307.535 100.36C307.407 100.36 307.172 100.403 306.831 100.488C306.49 100.573 306.255 100.616 306.127 100.616ZM321.588 101.064C320.99 101.064 320.414 100.957 319.86 100.744C319.305 100.488 318.793 100.211 318.324 99.912C318.153 99.8267 317.812 99.5707 317.299 99.144C316.83 98.7173 316.574 98.376 316.532 98.12L316.148 97.736L316.404 97.544C316.276 97.16 316.169 96.7547 316.084 96.328C315.998 95.9013 315.956 95.496 315.956 95.112C315.956 94.0027 316.105 93.0213 316.404 92.168C316.745 91.272 317.15 90.3547 317.62 89.416H317.364L316.852 88.968C316.894 88.8827 316.937 88.84 316.98 88.84C317.022 88.7973 317.065 88.7547 317.108 88.712H317.044L317.236 88.392L317.428 88.264L317.556 88.136L317.492 87.944C317.534 87.9013 317.577 87.8373 317.62 87.752C317.705 87.6667 317.79 87.5813 317.876 87.496C317.918 87.4107 317.982 87.3253 318.068 87.24V86.984L318.388 86.792V86.664C318.388 86.5787 318.43 86.536 318.516 86.536V86.216L318.644 86.28V86.152L319.092 86.024L319.156 85.96L318.836 86.024V85.512C319.092 85.4267 319.369 85.1707 319.668 84.744L320.5 83.848L320.628 83.592C320.713 83.592 320.777 83.5707 320.82 83.528C320.82 83.144 321.054 82.824 321.524 82.568C322.036 82.2693 322.292 81.9067 322.292 81.48C322.292 81.2667 322.377 81.16 322.548 81.16H322.676L322.548 81.096C322.761 80.968 322.91 80.8827 322.996 80.84C323.081 80.7973 323.06 80.6907 322.932 80.52L323.764 80.072L326.708 77.064C326.665 77.0213 326.644 76.9573 326.644 76.872C326.644 76.7013 326.686 76.616 326.772 76.616C326.985 76.4027 327.177 76.1893 327.348 75.976C327.561 75.7627 327.753 75.528 327.924 75.272C328.137 75.0587 328.35 74.8667 328.564 74.696C328.777 74.4827 328.99 74.2907 329.204 74.12L330.292 73.224C330.462 73.096 330.633 72.968 330.804 72.84C330.974 72.712 331.145 72.5627 331.316 72.392C332.254 72.4773 333.172 72.7547 334.068 73.224C335.006 73.6507 335.476 74.3333 335.476 75.272C336.201 76.2533 336.564 77.2773 336.564 78.344C336.564 79.5387 336.222 80.712 335.54 81.864C334.9 82.9733 334.217 83.9973 333.492 84.936C333.236 85.2347 332.916 85.64 332.532 86.152C332.148 86.6213 331.806 86.984 331.508 87.24C330.825 87.6667 330.228 88.0933 329.716 88.52C329.204 88.9467 328.649 89.5013 328.052 90.184H327.732V89.992C327.732 89.8213 327.774 89.736 327.86 89.736C327.902 89.6507 327.966 89.5653 328.052 89.48C328.137 89.3947 328.201 89.3307 328.244 89.288L328.564 88.84L329.012 88.392C329.566 87.8373 330.142 87.0693 330.74 86.088C331.337 85.064 331.828 84.2107 332.212 83.528C332.254 83.272 332.404 83.0587 332.66 82.888C332.617 82.6747 332.617 82.4613 332.66 82.248C332.745 81.992 332.873 81.7787 333.044 81.608C333.214 81.3947 333.342 81.1813 333.428 80.968C333.556 80.7547 333.662 80.5413 333.748 80.328C334.046 79.7307 334.238 79.1333 334.324 78.536C334.409 77.896 334.473 77.2347 334.516 76.552C333.705 76.936 332.937 77.3627 332.212 77.832C331.486 78.3013 330.804 78.8347 330.164 79.432L326.324 83.08C325.854 83.5493 325.172 84.168 324.276 84.936C323.422 85.6613 322.612 86.408 321.844 87.176C321.076 87.9013 320.585 88.4773 320.372 88.904V88.968H320.5V89.352H320.436C320.35 89.5227 320.244 89.6507 320.116 89.736L319.924 89.992C319.881 90.0347 319.86 90.12 319.86 90.248H319.54C319.412 90.5467 319.284 90.8453 319.156 91.144C319.028 91.4427 318.921 91.7627 318.836 92.104V92.488L318.772 92.616C318.302 93.512 318.068 94.4293 318.068 95.368C318.068 95.9227 318.196 96.5627 318.452 97.288C318.708 98.0133 319.177 98.4613 319.86 98.632C319.902 98.632 319.966 98.632 320.052 98.632C320.137 98.632 320.244 98.6533 320.372 98.696C320.585 98.824 320.734 98.824 320.82 98.696H321.076C321.673 98.696 322.057 98.6533 322.228 98.568C322.441 98.44 322.761 98.312 323.188 98.184L323.764 97.992C323.849 97.9067 323.913 97.864 323.956 97.864H324.148V98.12L324.788 97.672V97.8C325.94 97.4587 327.156 96.7547 328.436 95.688C329.758 94.6213 330.974 93.6613 332.083 92.808C332.169 92.5947 332.276 92.4453 332.404 92.36V92.04L332.66 92.296H332.852L333.236 91.784C333.406 91.656 333.556 91.5067 333.684 91.336C333.812 91.1653 333.982 90.9733 334.196 90.76C334.324 90.6747 334.43 90.5893 334.516 90.504C334.644 90.376 334.793 90.248 334.964 90.12V90.696H334.9C334.772 90.9093 334.622 91.144 334.452 91.4C334.324 91.6133 334.153 91.8267 333.94 92.04C333.684 92.2107 333.449 92.4027 333.236 92.616C333.065 92.7867 332.873 92.9573 332.66 93.128C332.489 93.2987 332.318 93.4693 332.148 93.64C331.977 93.8107 331.828 94.0027 331.7 94.216C331.444 94.5573 331.102 94.8987 330.676 95.24C330.334 95.5387 329.972 95.8587 329.588 96.2C329.246 96.4987 328.905 96.8187 328.564 97.16C327.796 97.8 327.07 98.4613 326.388 99.144C325.961 99.5707 325.214 99.9973 324.148 100.424C323.081 100.851 322.228 101.064 321.588 101.064ZM317.876 88.776C317.876 88.8187 317.854 88.8613 317.812 88.904C317.812 88.904 317.812 88.9253 317.812 88.968C317.94 88.7973 318.068 88.5413 318.196 88.2L318.132 88.264C318.089 88.392 318.046 88.4987 318.004 88.584C317.961 88.6267 317.918 88.6907 317.876 88.776ZM342.255 100.36C342.041 100.36 341.828 100.36 341.615 100.36C341.444 100.317 341.252 100.275 341.039 100.232C340.825 100.147 340.612 100.083 340.399 100.04C340.185 99.9973 339.972 99.9547 339.759 99.912L339.823 99.592C338.5 99.592 337.604 99.3573 337.135 98.888C336.708 98.376 336.495 97.4373 336.495 96.072C336.495 95.944 336.516 95.8587 336.559 95.816V95.624C336.772 95.6667 336.943 95.7093 337.071 95.752C337.199 95.752 337.305 95.752 337.391 95.752C337.817 95.752 338.116 95.6667 338.286 95.496C338.543 95.4533 338.799 95.432 339.055 95.432C339.311 95.432 339.567 95.4107 339.823 95.368C340.036 95.368 340.271 95.368 340.527 95.368C340.783 95.3253 341.017 95.2827 341.231 95.24V95.176C340.505 93.7253 339.865 92.4027 339.311 91.208C338.799 90.0133 338.543 88.6907 338.543 87.24C338.543 86.2587 338.713 85.3627 339.055 84.552C339.439 83.7413 339.737 82.888 339.951 81.992C340.036 81.736 340.164 81.608 340.335 81.608C340.548 81.5653 340.697 81.5227 340.783 81.48C340.953 81.2667 341.103 81.0747 341.231 80.904C341.401 80.7333 341.572 80.5627 341.743 80.392C341.871 80.264 341.999 80.1573 342.127 80.072C342.297 79.944 342.447 79.816 342.575 79.688L343.023 79.304C344.175 78.3227 345.476 77.4907 346.927 76.808C348.377 76.0827 349.764 75.4427 351.087 74.888L352.751 75.976C352.964 76.4027 353.22 76.8507 353.519 77.32C353.817 77.7467 353.967 78.2373 353.967 78.792V79.048C353.924 79.1333 353.903 79.2613 353.903 79.432L353.519 80.008C353.519 80.008 353.177 80.2213 352.495 80.648C351.855 81.0747 351.087 81.544 350.191 82.056C349.337 82.568 348.569 83.0373 347.887 83.464C347.247 83.848 346.905 84.04 346.863 84.04C346.692 84.04 346.607 83.976 346.607 83.848C346.607 83.72 346.863 83.4427 347.375 83.016C347.929 82.5467 348.548 82.056 349.231 81.544C349.913 80.9893 350.532 80.52 351.087 80.136C351.641 79.752 351.94 79.5387 351.983 79.496C350.788 79.624 349.615 79.88 348.463 80.264C347.311 80.6053 346.287 81.096 345.391 81.736C345.305 81.7787 345.177 81.7787 345.007 81.736C344.836 81.6933 344.708 81.7147 344.623 81.8C344.495 81.8853 344.409 82.056 344.367 82.312C344.324 82.568 344.26 82.7387 344.175 82.824C343.62 83.3787 343.172 84.04 342.831 84.808C342.532 85.576 342.383 86.4507 342.383 87.432C342.383 87.6453 342.489 88.1573 342.703 88.968C342.916 89.736 343.193 90.5893 343.535 91.528C343.876 92.4667 344.239 93.2773 344.623 93.96C345.007 94.6427 345.369 94.984 345.711 94.984H347.311C347.567 94.984 347.823 94.984 348.079 94.984C348.335 94.9413 348.591 94.8987 348.847 94.856C349.316 94.7707 349.764 94.6427 350.191 94.472C351.087 94.2587 351.983 94.1307 352.878 94.088C353.177 93.9173 353.54 93.7893 353.967 93.704C354.18 93.6613 354.372 93.64 354.543 93.64C354.756 93.64 354.948 93.6187 355.119 93.576L355.503 93.768L355.439 94.344C355.14 94.4293 354.649 94.6 353.967 94.856C353.327 95.112 352.665 95.3467 351.983 95.56C351.343 95.7733 350.852 95.88 350.51 95.88L350.255 95.816C350.212 95.816 350.191 95.7947 350.191 95.752H350.127C349.785 95.752 349.444 95.816 349.103 95.944C348.932 96.0293 348.74 96.1147 348.527 96.2C348.356 96.2427 348.185 96.3067 348.015 96.392C347.673 96.52 347.268 96.648 346.799 96.776C346.372 96.8613 345.924 96.8827 345.455 96.84C345.369 97.6933 345.049 98.504 344.495 99.272C343.983 99.9973 343.236 100.36 342.255 100.36ZM340.911 97.864C341.039 97.864 341.103 97.736 341.103 97.48C341.103 97.3947 341.081 97.288 341.039 97.16C340.996 96.9893 340.932 96.904 340.847 96.904C340.633 96.904 340.399 96.904 340.143 96.904C339.887 96.8613 339.652 96.8187 339.439 96.776C339.183 96.7333 338.927 96.712 338.671 96.712C338.415 96.6693 338.18 96.648 337.967 96.648H337.903C337.988 96.776 338.265 96.9467 338.735 97.16C339.204 97.3307 339.673 97.5013 340.143 97.672C340.612 97.8 340.868 97.864 340.911 97.864Z" fill="#3E759D"/>
</svg>
