<svg width="58" height="57" viewBox="0 0 58 57" fill="none" xmlns="http://www.w3.org/2000/svg">
<g clip-path="url(#clip0_11_1909)">
<path d="M29 0C12.9836 0 0 12.7598 0 28.5C0 44.2402 12.9836 57 29 57C45.0164 57 58 44.2402 58 28.5C58 12.7598 45.0164 0 29 0Z" fill="#5B82BB"/>
<path d="M43.1109 16.3944L37.9312 42.0593C37.9312 42.0593 37.2069 43.8392 35.2147 42.9849L23.2618 33.9789L18.9154 31.9144L11.5988 29.4937C11.5988 29.4937 10.4759 29.1023 10.3672 28.2479C10.2587 27.3936 11.635 26.9309 11.635 26.9309L40.7202 15.718C40.7202 15.718 43.1109 14.6857 43.1109 16.3944Z" fill="white"/>
<path d="M22.3431 41.771C22.3431 41.771 21.9942 41.7389 21.5594 40.3861C21.1248 39.0334 18.9154 31.9142 18.9154 31.9142L36.4824 20.9506C36.4824 20.9506 37.4967 20.3454 37.4605 20.9506C37.4605 20.9506 37.6415 21.0573 37.0982 21.5556C36.5549 22.0541 23.298 33.7651 23.298 33.7651" fill="#D2E5F1"/>
<path d="M27.8449 37.4319L23.117 41.6681C23.117 41.6681 22.7474 41.9438 22.343 41.771L23.2484 33.9021" fill="#B5CFE4"/>
</g>
<defs>
<clipPath id="clip0_11_1909">
<rect width="58" height="57" fill="white"/>
</clipPath>
</defs>
</svg>
