<svg width="1920" height="1200" viewBox="0 0 1920 1200" fill="none" xmlns="http://www.w3.org/2000/svg">
<path d="M915.764 0V148.471C930.082 150.718 942.343 156.256 951.541 170.541C959.874 183.502 957.628 199.935 943.914 204.65C945.991 193.534 937.281 176.079 929.538 191.287C909.679 230.331 964.808 254.488 986.967 254.809C1021.82 255.31 1057.38 245.72 1086.32 221.162C1115.23 196.644 1137.19 159.145 1174.08 150.678C1191.34 146.706 1207.3 149.274 1220.38 164.703C1231.11 177.363 1234.9 198.55 1217.13 204.65C1219.45 192.21 1209.67 176.48 1202.28 192.732C1184.12 232.658 1239.52 254.668 1261.84 254.809C1295.04 255.009 1330.15 245.981 1357.88 222.627C1388.62 196.744 1411.45 158.282 1450.61 149.414C1466.73 145.763 1483.91 152.223 1495.16 166.609C1505.18 179.45 1506.73 199.032 1490.36 204.65C1492.43 193.534 1483.72 176.079 1475.98 191.287C1456.11 230.331 1511.25 254.488 1533.41 254.809C1568.26 255.31 1603.82 245.72 1632.76 221.162C1661.67 196.644 1683.63 159.145 1720.52 150.678C1737.78 146.706 1753.74 149.274 1766.82 164.703C1777.55 177.363 1781.34 198.55 1763.58 204.65C1765.89 192.21 1756.11 176.48 1748.72 192.732C1730.56 232.658 1785.96 254.668 1808.29 254.809C1841.49 255.009 1876.59 245.981 1904.33 222.627C1935.06 196.744 1957.89 158.282 1997.06 149.414C2013.17 145.763 2030.36 152.223 2041.6 166.609C2051.62 179.45 2053.17 199.032 2036.8 204.65C2038.62 194.899 2032.44 176.761 2023.32 189.762C2014.49 202.322 2022.94 226.659 2031.9 235.227C2053.95 256.314 2081.57 254.809 2108 254.809V106.338C2081.9 106.338 2054.81 107.28 2033.49 85.6117C2024.43 76.4025 2014.29 55.7971 2024.26 42.4748C2033.97 29.4936 2038.11 49.0758 2036.8 58.1847C2054.85 50.721 2052.48 26.6446 2039.83 13.4025C2026.48 -0.561798 2008.61 -1.6051 1992.09 2.207C1954.81 10.7742 1931.88 49.457 1902.67 74.4162C1876.66 96.6267 1839.93 107.943 1808.29 106.257C1788.5 105.214 1729.13 80.7162 1749.9 44.2605C1758.79 28.671 1765.12 47.4506 1763.58 58.1847C1781.63 50.721 1779.26 26.6446 1766.61 13.4025C1753.26 -0.561798 1735.39 -1.6051 1718.87 2.207C1681.49 10.7943 1658.73 49.3968 1629.45 74.4162C1602.99 97.0079 1567.06 107.26 1535.06 106.297C1515.13 105.716 1456.1 80.3952 1476.68 44.2605C1485.57 28.671 1491.9 47.4506 1490.36 58.1847C1508.4 50.721 1506.04 26.6446 1493.39 13.4025C1480.04 -0.561798 1462.17 -1.6051 1445.65 2.207C1408.37 10.7742 1385.44 49.457 1356.23 74.4162C1330.22 96.6267 1293.49 107.943 1261.84 106.257C1242.06 105.214 1182.69 80.7162 1203.46 44.2605C1212.35 28.671 1218.67 47.4506 1217.13 58.1847C1235.18 50.721 1232.82 26.6446 1220.17 13.4025C1206.82 -0.561798 1188.95 -1.6051 1172.43 2.207C1135.05 10.7943 1112.28 49.3968 1083.01 74.4162C1056.55 97.0079 1020.61 107.26 988.623 106.297C968.693 105.716 909.652 80.3952 930.24 44.2605C939.132 28.671 945.454 47.4506 943.914 58.1847C958.855 52.0051 960.892 32.4229 951.061 18.3984C942.28 5.87865 928.917 0.702229 915.764 0Z" fill="#C5DCFF"/>
<path d="M915.764 148.663V1200H2108V255.001C2081.8 255.001 2055.48 255.803 2033.52 235.419C2024.25 226.811 2014.62 205.022 2023.32 191.519C2031.65 178.558 2038.01 195.251 2036.8 204.842C2053.32 201.732 2052.3 179.441 2043.07 166.801C2031.8 151.372 2013.48 146.336 1997.06 149.265C1958.03 156.227 1934.2 195.371 1904.33 221.394C1877.1 245.129 1841.37 255.482 1808.29 255.001C1787.32 254.68 1732.3 232.409 1748.72 194.85C1755.69 178.919 1765.17 192.282 1763.58 204.842C1780.1 201.732 1779.08 179.441 1769.85 166.801C1758.97 151.934 1743.01 146.878 1727.15 149.245C1685.83 155.385 1662.87 194.408 1631.11 221.354C1603.39 244.869 1568.6 255.482 1535.06 255.001C1513.62 254.68 1457.87 231.426 1475.98 193.185C1483.14 178.077 1491.75 193.807 1490.36 204.842C1506.88 201.732 1505.85 179.441 1496.63 166.801C1485.35 151.372 1467.04 146.336 1450.61 149.265C1411.59 156.227 1387.76 195.371 1357.88 221.394C1330.66 245.129 1294.93 255.482 1261.84 255.001C1240.88 254.68 1185.86 232.409 1202.28 194.85C1209.25 178.919 1218.72 192.282 1217.13 204.842C1233.66 201.732 1232.63 179.441 1223.41 166.801C1212.53 151.934 1196.57 146.878 1180.71 149.245C1139.39 155.385 1116.42 194.408 1084.66 221.354C1056.94 244.869 1022.16 255.482 988.623 255.001C967.174 254.68 911.432 231.426 929.538 193.185C936.693 178.077 945.31 193.807 943.914 204.842C958.045 202.173 960.224 183.735 952.768 170.733C944.088 155.605 930.243 150.068 915.764 148.663H915.764Z" fill="#254E6B"/>
<path d="M-59.9999 0V148.372C-47.1199 150.617 -36.0901 156.151 -27.8153 170.427C-20.3196 183.379 -22.3395 199.801 -34.6765 204.512C-32.8085 193.404 -40.6438 175.961 -47.6094 191.159C-65.4743 230.177 -15.8807 254.317 4.05331 254.638C35.4067 255.139 67.3916 245.555 93.43 221.014C119.439 196.512 139.191 159.038 172.379 150.577C187.901 146.607 202.261 149.174 214.029 164.592C223.682 177.244 227.093 198.417 211.109 204.512C213.195 192.081 204.391 176.362 197.748 192.602C181.407 232.502 231.249 254.498 251.329 254.638C281.196 254.838 312.775 245.816 337.726 222.477C365.374 196.613 385.915 158.176 421.145 149.314C435.639 145.665 451.101 152.121 461.215 166.497C470.227 179.329 471.628 198.898 456.895 204.512C458.757 193.404 450.922 175.961 443.965 191.159C426.09 230.177 475.694 254.317 495.625 254.638C526.982 255.139 558.964 245.555 585.002 221.014C611.01 196.512 630.763 159.038 663.951 150.577C679.473 146.607 693.833 149.174 705.601 164.592C715.254 177.244 718.665 198.417 702.681 204.512C704.767 192.081 695.963 176.362 689.319 192.602C672.978 232.502 722.821 254.498 742.901 254.638C772.767 254.838 804.347 245.816 829.298 222.477C856.945 196.613 877.487 158.176 912.717 149.314C927.21 145.665 942.673 152.121 952.787 166.497C961.799 179.329 963.199 198.898 948.467 204.512C950.106 194.768 944.549 176.643 936.342 189.635C928.402 202.187 935.999 226.507 944.058 235.069C963.9 256.142 988.746 254.638 1012.52 254.638V106.266C989.044 106.266 964.674 107.209 945.488 85.5543C937.34 76.3513 928.223 55.7597 937.191 42.4463C945.92 29.4738 949.644 49.0429 948.467 58.1457C964.704 50.687 962.574 26.6267 951.193 13.3935C939.187 -0.561422 923.114 -1.60402 908.248 2.20552C874.716 10.767 854.085 49.4238 827.809 74.3663C804.407 96.5619 771.367 107.87 742.901 106.186C725.1 105.143 671.697 80.6621 690.377 44.2308C698.376 28.6518 704.067 47.4188 702.681 58.1457C718.918 50.687 716.788 26.6267 705.407 13.3935C693.401 -0.561422 677.328 -1.60402 662.462 2.20552C628.841 10.787 608.359 49.3637 582.023 74.3663C558.219 96.9428 525.894 107.189 497.115 106.226C479.18 105.645 426.075 80.3413 444.591 44.2308C452.59 28.6518 458.281 47.4188 456.895 58.1457C473.132 50.687 471.002 26.6267 459.621 13.3935C447.615 -0.561422 431.542 -1.60402 416.676 2.20552C383.145 10.767 362.513 49.4238 336.237 74.3663C312.835 96.5619 279.795 107.87 251.329 106.186C233.528 105.143 180.125 80.6621 198.805 44.2308C206.804 28.6518 212.495 47.4188 211.109 58.1457C227.346 50.687 225.216 26.6267 213.835 13.3935C201.829 -0.561422 185.756 -1.60402 170.89 2.20552C137.269 10.787 116.787 49.3637 90.4508 74.3663C66.6498 96.9428 34.3192 107.189 5.54292 106.226C-12.386 105.645 -65.4982 80.3413 -46.9778 44.2308C-38.9786 28.6518 -33.2913 47.4188 -34.6766 58.1457C-21.2358 51.9702 -19.4036 32.4012 -28.2474 18.3861C-36.1468 5.87471 -48.1679 0.701758 -59.9999 0Z" fill="#C5DCFF"/>
<path d="M-60 148.563V1199.2H1012.52V254.83C988.955 254.83 965.27 255.632 945.518 235.261C937.176 226.659 928.521 204.885 936.342 191.391C943.835 178.438 949.555 195.12 948.467 204.704C963.334 201.596 962.41 179.321 954.113 166.689C943.969 151.27 927.493 146.238 912.717 149.165C877.606 156.122 856.171 195.24 829.298 221.246C804.809 244.965 772.663 255.311 742.901 254.83C724.042 254.509 674.542 232.253 689.319 194.719C695.591 178.799 704.111 192.153 702.681 204.704C717.548 201.596 716.624 179.321 708.327 166.689C698.54 151.832 684.18 146.779 669.91 149.145C632.744 155.28 612.083 194.278 583.512 221.205C558.576 244.704 527.279 255.311 497.115 254.83C477.824 254.509 427.669 231.271 443.965 193.055C450.401 177.957 458.147 193.677 456.895 204.704C471.762 201.596 470.838 179.321 462.541 166.689C452.397 151.27 435.922 146.238 421.145 149.165C386.034 156.122 364.599 195.24 337.726 221.246C313.237 244.965 281.091 255.311 251.329 254.83C232.47 254.509 182.971 232.253 197.748 194.719C204.019 178.799 212.539 192.153 211.109 204.704C225.976 201.596 225.052 179.321 216.755 166.689C206.968 151.832 192.608 146.779 178.338 149.145C141.172 155.28 120.511 194.278 91.9404 221.205C67.0013 244.704 35.712 255.311 5.54292 254.83C-13.752 254.509 -63.8968 231.271 -47.6094 193.055C-41.1728 177.957 -33.4209 193.677 -34.6766 204.704C-21.9642 202.037 -20.0039 183.611 -26.7116 170.619C-34.5202 155.501 -46.9748 149.967 -60 148.563H-60Z" fill="#254E6B"/>
</svg>
